<svg width="81" height="49" viewBox="0 0 81 49" fill="none" xmlns="http://www.w3.org/2000/svg">
<path d="M5.86236 46.4164C5.86236 46.4164 -9.62589 28.1788 10.8694 20.447C10.8694 20.447 12.7868 0.638546 32.1314 5.33711C32.1314 5.33711 53.7821 -8.59694 63.8561 11.8596C63.8561 11.8596 85.9078 14.6702 78.5715 30.8582C78.5715 30.8582 88.26 46.2883 67.7554 48.1397C43.3869 50.3403 5.86236 46.4164 5.86236 46.4164Z" fill="#67904C"/>
<path d="M48.3493 20.1959C48.4614 20.2065 48.5767 20.1745 48.6658 20.0922C48.6858 20.0723 48.8594 19.9031 49.1482 19.6179C49.4432 19.3312 49.8657 18.9469 50.3558 18.4589C50.597 18.2088 50.8736 17.9678 51.1363 17.6613C51.2684 17.5103 51.4036 17.3563 51.5419 17.1977L51.6464 17.0787C51.6617 17.0604 51.6925 17.0284 51.6709 17.0482C51.6617 17.0543 51.7032 17.0177 51.717 17.0055C51.7985 16.9308 51.8799 16.8546 51.9613 16.7783C52.2886 16.4489 52.5667 16.0707 52.8155 15.6681C52.8878 15.7809 52.9815 15.8465 53.0583 15.8236C53.0844 15.8145 53.533 15.6559 54.1921 15.4241C54.8528 15.1877 55.7377 14.8766 56.572 14.4557C57.4109 14.0455 58.1714 13.4919 58.6307 12.981C59.0963 12.4747 59.2883 12.0599 59.253 12.0355C59.2023 11.9974 58.9303 12.3405 58.4279 12.7523C57.9302 13.1686 57.1773 13.6169 56.3492 13.9479C55.5257 14.288 54.6485 14.5381 53.9786 14.7363C53.6698 14.8278 53.4086 14.9056 53.2104 14.9635C53.2888 14.811 53.3671 14.6601 53.4393 14.5076L53.7266 13.8945C53.8173 13.7344 53.9555 13.5285 54.0738 13.3516C54.3243 12.9886 54.5701 12.6303 54.8082 12.2856C55.286 11.5933 55.7147 10.9299 55.9989 10.3199C56.2908 9.71291 56.4399 9.17153 56.4936 8.78875C56.552 8.40597 56.5259 8.18485 56.5075 8.18332C56.4399 8.17265 56.3892 9.04495 55.7347 10.1704C55.4197 10.7362 54.9696 11.3569 54.461 12.0187C54.206 12.3542 53.9417 12.7019 53.6744 13.0542L53.4762 13.3287L53.3779 13.469L53.3287 13.5392C53.3149 13.5529 53.2672 13.6383 53.2626 13.6505L52.9554 14.2437C52.5451 15.0306 52.0858 15.7718 51.5188 16.3055L51.3022 16.4946L51.2285 16.5602L51.1394 16.6548L51.038 16.7631C50.9043 16.9064 50.7737 17.0467 50.6462 17.1824C50.3973 17.4585 50.1084 17.6979 49.8688 17.9312C49.3771 18.3933 48.9393 18.773 48.6381 19.0506C48.6258 19.0628 48.6166 19.0704 48.6043 19.0826C48.6781 18.9408 48.655 18.7654 48.5536 18.6312C48.6059 17.646 48.6581 16.6731 48.7088 15.7321C48.7472 14.6784 48.7595 13.6612 48.7718 12.6943C48.7733 12.6989 48.7749 12.7019 48.7764 12.7065C48.8763 12.8987 49.053 12.9978 49.1697 12.9276C49.1897 12.9063 49.7059 12.6272 50.2191 11.9867C50.7322 11.3523 51.1855 10.3854 51.4098 9.38656C51.6494 8.3892 51.7232 7.37811 51.7401 6.62323C51.7554 5.86835 51.7232 5.36357 51.6725 5.35899C51.6172 5.35289 51.548 5.84852 51.4405 6.58358C51.3329 7.31711 51.1778 8.29312 50.8859 9.21575C50.6093 10.1445 50.1469 10.9832 49.6829 11.5033C49.2435 11.9989 48.8363 12.2094 48.7779 12.2475C48.7887 11.4042 48.8041 10.602 48.8394 9.85779C48.8686 8.99768 48.8947 8.20925 48.9178 7.51079C48.9884 6.82453 48.9546 6.22063 48.9208 5.72195C48.8317 4.72764 48.8025 4.14203 48.7703 4.14356C48.7564 4.14356 48.7488 4.28691 48.7457 4.55989C48.7395 4.83439 48.7457 5.22937 48.7657 5.72652C48.7749 6.22215 48.7826 6.81691 48.6919 7.47266L48.6765 7.63279L48.6689 7.76547C48.6627 7.85392 48.6581 7.94542 48.652 8.03692C48.6412 8.21992 48.6289 8.40902 48.6166 8.60422C48.5936 8.99463 48.5675 9.40486 48.5413 9.83339C48.4092 11.5841 48.4 13.5544 48.2786 15.6971C48.2202 16.5282 48.1588 17.3853 48.0973 18.2515C48.042 18.2088 47.9836 18.1645 47.9176 18.1127C47.6072 17.8199 47.1509 17.428 46.6962 16.8729C46.5732 16.7432 46.458 16.5953 46.3489 16.4367C46.2352 16.2811 46.1169 16.1195 45.9971 15.9548C45.7743 15.6117 45.5423 15.2441 45.3272 14.8507C44.897 14.0623 44.513 13.1808 44.155 12.2795C43.7571 11.3904 43.3837 10.5135 43.25 9.62903C43.2209 9.40943 43.1855 9.19135 43.184 8.97785C43.1671 8.76283 43.1717 8.5539 43.184 8.34955C43.204 8.14672 43.1778 7.93779 43.1579 7.74717C43.1379 7.55349 43.1195 7.36744 43.1026 7.18749C42.9581 5.7616 42.8291 4.79626 42.7784 4.79474C42.7523 4.79474 42.743 5.03417 42.7492 5.45812C42.7553 5.88207 42.7768 6.49513 42.8014 7.19359C42.8076 7.37049 42.8153 7.55349 42.8229 7.74412C42.8275 7.83867 42.8306 7.93627 42.8352 8.03387L42.8383 8.09487C42.8368 8.10402 42.8352 8.13452 42.8337 8.14672L42.8183 8.30685C42.7937 8.52187 42.7784 8.743 42.7845 8.97175C42.7753 9.2005 42.8014 9.43383 42.8229 9.67173C42.9213 10.6203 43.2915 11.5902 43.648 12.4686C43.9691 13.376 44.3363 14.3002 44.7603 15.1359C44.9723 15.5522 45.2043 15.9472 45.4286 16.3162C45.5515 16.4962 45.6714 16.67 45.7882 16.8393C45.9003 17.0116 46.0186 17.1718 46.1461 17.3151C46.6163 17.9221 47.0956 18.3567 47.4244 18.6785C47.7747 18.9713 47.9944 19.136 48.019 19.1588C47.8484 20.1974 47.6564 21.2451 47.4029 22.3019C47.2769 22.8616 47.1525 23.4213 47.0265 23.9794C46.9635 24.26 46.902 24.5391 46.839 24.8182C46.7883 25.1018 46.7376 25.384 46.6885 25.6646C46.501 26.8022 46.2598 27.8667 46.0432 28.9174C45.9541 29.317 45.8773 29.7135 45.7882 30.1024C45.7866 30.0993 45.7851 30.0963 45.7851 30.0947C45.7144 29.927 45.6499 29.7333 45.5715 29.5259C45.2381 28.6993 44.9262 27.5647 44.6666 26.4179C44.1719 24.1151 44.0736 21.7529 43.9552 21.7529C43.9061 21.7514 43.8646 22.3385 43.8677 23.2276C43.8769 24.1151 43.946 25.3062 44.1273 26.4957C44.3224 27.6806 44.5882 28.8671 44.8955 29.7363C44.9677 29.9544 45.0276 30.1588 45.0922 30.3357C45.1613 30.5111 45.2228 30.6666 45.2735 30.7947C45.3749 31.0524 45.4363 31.208 45.444 31.2248C45.4532 31.2492 45.4732 31.2659 45.4901 31.2842C45.4332 31.4977 45.3764 31.7189 45.3211 31.9278C45.1951 32.4051 45.0737 32.8703 44.9554 33.3217C44.7956 33.7502 44.6405 34.1635 44.4914 34.563C44.4177 34.7628 44.344 34.958 44.2733 35.1486C44.1965 35.3392 44.1074 35.5223 44.0275 35.7022C43.8646 36.0621 43.7094 36.4052 43.5635 36.7285C43.27 37.3797 43.0104 37.9531 42.7953 38.4305C42.697 38.6485 42.6094 38.8437 42.5295 39.0206C42.4942 36.1506 42.4619 32.7635 42.3759 29.378C42.3513 28.8457 42.3267 28.315 42.3021 27.7859C42.2453 27.2582 42.1899 26.7336 42.1346 26.2136C42.107 25.9543 42.0778 25.6951 42.0501 25.4373C42.0071 25.1811 41.9641 24.9265 41.9226 24.6748C41.8366 24.17 41.7505 23.6714 41.666 23.1803C41.5677 22.6923 41.4448 22.2165 41.3388 21.7498C41.2343 21.335 41.1514 20.9248 41.0392 20.5314C41.0438 20.5283 41.0484 20.5268 41.053 20.5237C41.2113 20.3834 41.222 20.1333 41.0776 19.9641C41.073 19.958 41.053 19.9351 41.0238 19.9031C41.156 19.8497 41.2528 19.7307 41.2558 19.5889C41.2558 19.5401 41.2543 18.7181 41.2528 17.5134C41.2389 16.3116 41.2635 14.6997 41.2113 13.1076C41.1713 12.7065 41.1329 12.307 41.0945 11.912L41.0653 11.6192L41.0069 11.3325C40.967 11.1434 40.9286 10.9558 40.8902 10.7728C40.758 10.0347 40.5414 9.36978 40.377 8.79638C40.0252 7.65567 39.744 6.90993 39.6964 6.92213C39.6396 6.93433 39.8239 7.70904 40.0851 8.86348C40.2049 9.43993 40.3755 10.1109 40.4646 10.8338C40.4922 11.0137 40.5199 11.1983 40.5491 11.3843L40.5921 11.6649L40.6059 11.9486C40.6259 12.3283 40.6459 12.7157 40.6659 13.103C40.6059 15.2426 40.546 17.3898 40.5122 18.5931C40.4523 18.3613 40.3924 18.134 40.334 17.9129C39.9376 16.3757 39.5504 15.1099 39.1925 14.2605C39.0296 13.8289 38.8575 13.5102 38.7469 13.2921C38.6348 13.074 38.5687 12.9612 38.5564 12.9673C38.5441 12.9734 38.5856 13.0969 38.6747 13.3241C38.7623 13.5514 38.9082 13.8777 39.0465 14.3124C39.3553 15.1694 39.6918 16.4321 40.0421 17.9785C40.1251 18.3323 40.2096 18.7044 40.3002 19.0856C40.0774 18.8294 39.8193 18.529 39.532 18.1844C38.6609 17.1321 37.5639 15.6955 36.6774 14.1339C36.2226 13.3592 35.8524 12.5418 35.5328 11.7656C35.3915 11.3706 35.2378 10.9924 35.138 10.6203C35.0827 10.4358 35.0289 10.2558 34.9782 10.082C34.9367 9.90506 34.8968 9.73426 34.8583 9.57108C34.5618 8.255 34.5403 7.34304 34.4696 7.34456C34.4435 7.34456 34.4282 7.57026 34.4235 7.96829C34.4235 8.06894 34.422 8.17875 34.422 8.29922C34.4312 8.4197 34.442 8.54932 34.4527 8.6881C34.4758 8.96565 34.4958 9.28133 34.5618 9.61836C34.5895 9.78764 34.6202 9.96454 34.6509 10.1475C34.6893 10.329 34.737 10.5151 34.7831 10.7072C34.8645 11.0946 35.0012 11.4896 35.1272 11.9013C35.4145 12.7141 35.7617 13.5712 36.1981 14.3825C37.0461 16.0204 38.1247 17.524 38.9789 18.619C39.8377 19.7155 40.4692 20.42 40.503 20.4643C40.5522 20.5207 40.6121 20.5558 40.6751 20.5786C40.7842 20.9873 40.8548 21.4037 40.9532 21.8307C41.0469 22.2943 41.159 22.764 41.2451 23.2474C41.3188 23.7339 41.3926 24.228 41.4694 24.7282C41.5063 24.9783 41.5431 25.2299 41.5815 25.4831C41.6046 25.7378 41.6276 25.994 41.6507 26.2502C41.6968 26.7641 41.7429 27.2826 41.789 27.8026C41.8043 28.3242 41.8197 28.8488 41.835 29.3719C41.8366 30.3448 41.8366 31.3178 41.8381 32.2801C41.7429 32.152 41.6046 31.972 41.4218 31.7555C41.2497 31.5511 41.0423 31.3086 40.8241 31.0326C40.7166 30.8938 40.6013 30.7459 40.4999 30.5858L40.4185 30.4638C40.3478 30.3586 40.3371 30.3479 40.3002 30.2976C40.2387 30.2122 40.1742 30.1237 40.1097 30.0337C39.8516 29.6708 39.5581 29.2865 39.2662 28.8534C39.1279 28.6307 38.9835 28.402 38.836 28.1656C38.7623 28.0482 38.687 27.9277 38.6117 27.8072L38.498 27.6242L38.4396 27.5327C38.4274 27.5114 38.4043 27.4748 38.3874 27.4565L38.3505 27.4122C37.6039 26.4881 36.7435 25.5349 35.9031 24.5086C35.6972 24.2493 35.4883 23.987 35.2793 23.7232C35.0811 23.4518 34.8814 23.1788 34.6801 22.9043C34.4958 22.6206 34.3052 22.337 34.124 22.0487L33.8735 21.6034C33.8013 21.4586 33.6799 21.2954 33.6538 21.178C33.259 19.8512 32.7719 18.5366 32.1543 17.3593C30.7777 15.0642 30.6287 12.5784 29.9773 10.9543L29.9757 10.9497C29.8451 10.5364 29.7284 10.1628 29.6239 9.83339C29.5179 9.50398 29.4564 9.2066 29.3873 8.9687C29.3135 8.47765 29.2721 8.19705 29.249 8.19705C29.229 8.19552 29.229 8.47612 29.2644 8.987C29.3135 9.23101 29.3566 9.54058 29.4457 9.87914C29.5317 10.2116 29.63 10.5883 29.7391 11.0046L29.7453 11.0259C29.8559 11.4408 29.9773 11.8967 30.1079 12.3832C30.2415 12.8697 30.3229 13.408 30.4443 13.9631C30.4996 14.2392 30.578 14.5518 30.6471 14.8537C30.7117 15.1633 30.8469 15.4515 30.9467 15.7596C31.1772 16.3604 31.4568 16.9567 31.7456 17.553C32.2142 18.5031 32.5891 19.5203 32.9117 20.5771C32.3894 20.1532 31.5382 19.4608 30.6886 18.77C30.0034 18.2072 29.2705 17.7696 28.8265 17.2831C28.3794 16.8058 28.1751 16.394 28.1121 16.4214C28.0875 16.4321 28.1167 16.5419 28.1874 16.7295C28.2504 16.9217 28.3933 17.1763 28.5899 17.4661C28.994 18.0517 29.7284 18.5976 30.3199 19.1695C30.9774 19.807 31.5705 20.3362 32.076 20.8043C32.5737 21.2573 32.9117 21.5668 32.9333 21.5851C32.9932 21.6385 33.1023 21.6126 33.2083 21.5318L33.2574 21.6233L33.3834 21.8581L33.6369 22.3278C33.8182 22.6313 34.0103 22.9272 34.1962 23.2261C34.3974 23.5112 34.5972 23.7964 34.7969 24.0785C35.0058 24.3515 35.2132 24.623 35.4191 24.8914C36.2549 25.9497 37.0999 26.9151 37.8159 27.8316L37.8512 27.8758L37.9081 27.9704L38.0217 28.158C38.097 28.2815 38.1708 28.4035 38.243 28.5255C38.3889 28.7664 38.5318 29.0013 38.6686 29.23C38.962 29.6784 39.2631 30.0871 39.5259 30.4684C39.5919 30.5629 39.658 30.6559 39.721 30.7459C39.7471 30.7825 39.8024 30.8603 39.7855 30.8389L39.8762 30.9808C39.9929 31.1714 40.1158 31.333 40.2311 31.4871C40.4631 31.789 40.6689 32.0345 40.8349 32.2374C41.1636 32.6415 41.3234 32.8809 41.3465 32.9145C41.4986 33.1417 41.6737 33.314 41.8381 33.3735C41.8458 40.3382 41.8535 46.4139 41.8535 46.635C41.8535 47.1612 42.0271 47.5912 42.2406 47.5958C42.4542 47.6004 42.6278 47.1779 42.6263 46.6518C42.6247 46.5207 42.5986 44.3201 42.5602 41.0947C42.5587 41.0352 42.5587 40.9727 42.5571 40.9117C42.6693 40.7668 42.7768 40.5746 42.8598 40.352C42.8721 40.3199 42.9305 40.1583 43.0303 39.8838C43.081 39.7465 43.141 39.5818 43.2101 39.3912C43.2931 39.2021 43.3868 38.9886 43.4913 38.7507C43.7002 38.2734 43.9522 37.7015 44.2379 37.0503C44.3824 36.7224 44.5345 36.3732 44.6958 36.0072C44.7741 35.8227 44.8617 35.6397 44.9385 35.4414C45.0107 35.2416 45.0845 35.0373 45.1598 34.8284C45.3088 34.412 45.4655 33.9774 45.6253 33.5306C45.739 33.0746 45.8573 32.6034 45.9787 32.1199C46.1 31.6365 46.2229 31.1409 46.3505 30.6331C46.4841 30.1283 46.5625 29.596 46.6746 29.0638C46.8805 27.9963 47.1125 26.8937 47.2784 25.7866C47.3245 25.509 47.3691 25.2299 47.4152 24.9509C47.4736 24.6733 47.5304 24.3942 47.5888 24.1151C47.7056 23.5555 47.8223 22.9958 47.9391 22.4346C48.0912 21.6919 48.2279 20.9431 48.3493 20.1959Z" fill="#454B03"/>
<path d="M60.9567 37.151C60.9843 37.1479 61.0089 37.1464 61.0366 37.1388C61.0857 37.1388 61.1303 37.1281 61.1687 37.1006C61.1794 37.093 61.184 37.0793 61.1948 37.0716C61.2655 37.0305 61.3346 36.9801 61.3976 36.9146C61.4222 36.881 61.6849 36.6141 62.1381 36.1795C62.596 35.7479 63.2735 35.1745 64.0571 34.4334C64.2537 34.2488 64.455 34.0521 64.6517 33.8356C64.856 33.6282 65.0526 33.3979 65.2478 33.1524C65.4352 32.9206 65.6288 32.6811 65.8254 32.4386C66.0298 32.2114 66.2418 31.9811 66.4799 31.7661C67.262 31.0341 68.2468 30.4043 69.1532 29.654C69.2485 29.7195 69.353 29.747 69.4375 29.7058C69.4544 29.6967 69.6034 29.6158 69.8508 29.4832C69.9752 29.4161 70.1227 29.3352 70.2917 29.2422C70.4668 29.1568 70.6635 29.0607 70.8771 28.957C71.7282 28.5331 72.8805 28.0222 74.0251 27.493C75.1928 26.9669 76.2052 26.1739 76.8459 25.4922C77.4973 24.8166 77.883 24.321 77.8476 24.2859C77.8077 24.2432 77.3437 24.6687 76.6431 25.2634C75.9471 25.8658 74.95 26.5429 73.8069 26.9837C72.6439 27.4442 71.4609 27.9048 70.579 28.2997C70.5759 28.3013 70.5729 28.3028 70.5683 28.3043C71.2227 27.5784 71.7866 26.793 72.2859 26.0305C72.6378 25.48 72.9758 24.9478 73.2984 24.443C73.4582 24.1898 73.6241 23.9534 73.7655 23.7064C73.8822 23.4502 73.9959 23.2031 74.105 22.9652C74.5367 22.0136 74.821 21.1886 74.9608 20.5999C75.0299 20.3056 75.0698 20.0723 75.0791 19.9121C75.0944 19.752 75.096 19.6666 75.0837 19.6651C75.0698 19.6636 75.0422 19.7444 75.0022 19.8954C74.9684 20.0479 74.9039 20.2705 74.8117 20.5527C74.6274 21.1154 74.3047 21.9038 73.8346 22.8265C73.7163 23.0583 73.5934 23.2992 73.4674 23.5478C73.4382 23.6012 73.4674 23.5539 73.4367 23.5981L73.3752 23.6866L73.2492 23.865C73.1647 23.9839 73.0802 24.1059 72.9927 24.2295C72.6547 24.7205 72.2982 25.2406 71.9295 25.7774C71.1874 26.8373 70.3486 27.917 69.31 28.7832C68.2959 29.686 67.073 30.3677 66.0498 31.2796C65.7932 31.5008 65.555 31.7463 65.3307 31.9872C65.1233 32.2328 64.919 32.4752 64.7208 32.7101C64.5364 32.9343 64.349 33.1463 64.1493 33.3399C63.9603 33.5412 63.7636 33.7258 63.57 33.9011C63.1045 34.3251 62.6728 34.6941 62.2933 35.022L62.5192 34.6194L62.7174 34.2656L62.891 33.8996C63.971 31.7448 64.7454 29.4755 65.3261 27.3451C65.4583 27.4305 65.6027 27.4473 65.6826 27.3725C65.7056 27.3466 66.1204 26.9303 66.7611 26.3233C67.3972 25.7133 68.2529 24.9127 69.0273 24.0343C69.8016 23.1604 70.493 22.1982 70.7972 21.3777C71.1244 20.5618 71.0584 19.9793 71.0215 19.9823C70.9523 19.9762 70.9139 20.5161 70.5268 21.2404C70.1596 21.9709 69.4359 22.8402 68.6339 23.6423C67.832 24.4476 66.9501 25.1948 66.2879 25.7758C66.0037 26.0214 65.7625 26.2364 65.5719 26.4072C65.913 25.0515 66.1803 23.7689 66.4016 22.6297C66.5844 21.8459 66.6781 21.1108 66.7934 20.4673C66.9024 19.8206 66.9977 19.2579 67.0761 18.7928C67.1729 18.3307 67.2481 17.9678 67.3004 17.7192C67.348 17.4691 67.368 17.3349 67.3557 17.3303C67.3434 17.3257 67.2973 17.4538 67.2251 17.6963C67.156 17.9418 67.0545 18.3002 66.9255 18.7562C66.8195 19.2152 66.7043 19.7764 66.5691 20.42C66.4308 21.0559 66.314 21.7849 66.1097 22.5581C65.9176 23.3328 65.721 24.1822 65.5136 25.0804C65.406 25.5288 65.2739 25.9787 65.151 26.4438C65.0327 26.9105 64.8867 27.3802 64.7346 27.8544C64.14 29.7592 63.3949 31.7631 62.407 33.6373L62.2303 33.9942L62.0306 34.3373L61.6327 35.022C61.4959 35.2462 61.3776 35.4841 61.2271 35.6976C61.1733 35.7754 61.121 35.8516 61.0673 35.9294C61.0304 35.8166 60.992 35.6869 60.9536 35.536C60.8015 34.9747 60.6801 34.1558 60.4712 33.1478C60.3452 32.6567 60.21 32.1275 60.0671 31.5694C59.9334 31.0692 59.7967 30.5476 59.6661 30.0123C59.8167 30.0352 59.9657 29.9788 60.0333 29.8568C60.0441 29.837 60.1378 29.654 60.296 29.352C60.4558 29.0501 60.6586 28.6215 60.9628 28.1228C61.5574 27.127 62.2764 25.7865 63.0169 24.4582C63.6269 23.0018 63.9572 21.5241 64.074 20.3788C64.1953 19.2396 64.1032 18.4832 64.0601 18.4847C63.9956 18.4832 63.9849 19.2289 63.7775 20.3239C63.6822 20.8729 63.5163 21.5027 63.3165 22.1707C63.2059 22.5016 63.0984 22.8448 62.9616 23.1848C62.8971 23.3556 62.8326 23.5295 62.7573 23.6972L62.6482 23.9534L62.5929 24.0815C62.5653 24.1456 62.5852 24.1029 62.5483 24.1654C61.751 25.4525 60.9782 26.7702 60.3559 27.7355C60.0425 28.2113 59.809 28.6566 59.6354 28.9647C59.5785 29.0653 59.534 29.1477 59.4925 29.2209C59.4111 28.8167 59.3419 28.405 59.2989 27.9871C59.2405 27.3542 59.2221 26.6985 59.1883 26.0427C59.0592 23.4258 59.4157 20.8302 59.8858 18.9392C60.3605 17.0466 60.8537 15.8388 60.7861 15.8099C60.7615 15.7992 60.6217 16.092 60.3959 16.6166C60.2822 16.8789 60.1424 17.1961 60.0179 17.5758C59.8935 17.9556 59.7199 18.3719 59.597 18.8507C59.0316 20.7341 58.583 23.377 58.6429 26.0336C58.6598 26.6924 58.6598 27.3542 58.7043 28.0237C58.7566 28.6932 58.8718 29.3398 58.9962 29.959C59.1284 30.5751 59.2728 31.1653 59.408 31.7173C59.537 32.2694 59.66 32.7924 59.7736 33.2759C59.9534 34.2336 60.0656 35.0907 60.2177 35.7007C60.3452 36.2451 60.4988 36.5958 60.5372 36.6965C60.3237 37.0045 60.1086 37.3126 59.8827 37.6222C59.577 38.0477 59.2897 38.4747 59.0024 38.8895C58.4324 39.7237 57.8808 40.5151 57.3031 41.2197C57.0235 41.5796 56.7209 41.8983 56.4336 42.214C56.1355 42.5236 55.8205 42.7859 55.5425 43.0894C53.3116 45.4745 51.7891 47.1017 51.6984 47.1993C51.3389 47.5851 51.1684 48.0228 51.3189 48.1784C51.4695 48.3339 51.8889 48.1433 52.2546 47.7513C52.3437 47.6537 53.8401 46.0174 56.0356 43.617C56.3045 43.3151 56.6364 43.0299 56.939 42.7066C57.2355 42.3726 57.549 42.0341 57.8332 41.6589C58.4201 40.9223 58.9732 40.1049 59.5309 39.2631C59.9933 38.5738 60.4727 37.8662 60.9567 37.151Z" fill="#454B03"/>
<path d="M76.9904 39.062C76.6708 39.2816 76.2668 39.4966 75.8289 39.7162C75.3818 39.9221 74.8963 40.128 74.3924 40.3064C73.6088 40.587 72.8007 40.8265 72.1062 41.0293C72.1738 40.9713 72.2445 40.9164 72.3106 40.8585C72.5641 40.613 72.813 40.3857 73.0665 40.1676C74.0836 39.2923 75.0699 38.51 75.832 37.752C76.6017 37.0017 77.144 36.2865 77.4467 35.7481C77.5926 35.4752 77.7002 35.2586 77.7509 35.1015C77.8077 34.9475 77.8308 34.8636 77.8185 34.8575C77.7847 34.8423 77.6495 35.161 77.3146 35.6612C76.9766 36.1599 76.4127 36.8233 75.6245 37.5263C74.8456 38.2385 73.8439 38.9751 72.7868 39.8291C72.6532 39.9404 72.5195 40.0533 72.3828 40.1661C72.2583 40.2775 72.1324 40.3888 72.0064 40.5001C71.7513 40.7151 71.4886 40.9164 71.1982 41.0933C70.9355 41.2611 70.6574 41.4105 70.3717 41.5524C70.258 41.589 70.1858 41.6134 70.175 41.6164C70.1397 41.6286 70.112 41.653 70.089 41.685C69.8416 41.7979 69.5912 41.9062 69.3346 42.0068C67.9887 42.4948 66.6383 43.0408 65.3707 43.5257C65.0542 43.6493 64.7408 43.7697 64.4351 43.8887L64.2077 43.9771L64.1509 43.9985C64.1217 44.0092 64.0817 44.0244 64.0494 44.0488L63.9235 44.1281C63.7975 44.2089 63.6715 44.2898 63.5486 44.3675C63.0339 44.6649 62.5054 44.9013 62.0015 45.1316C61.4991 45.3436 61.0136 45.6303 60.6356 45.8758C60.2546 46.1259 59.9304 46.3501 59.66 46.5178C59.5156 46.6109 59.3865 46.6871 59.2728 46.7512C59.3435 46.5987 59.4603 46.376 59.6462 46.0969C59.9873 45.5845 60.5849 44.9227 61.3715 44.1922C61.7725 43.8277 62.2058 43.4342 62.6621 43.0194C62.7758 42.9127 62.8926 42.8044 63.0093 42.6961L63.1845 42.5253L63.272 42.4384C63.2813 42.4262 63.3151 42.4018 63.332 42.3743L63.3734 42.3194C63.567 42.0571 63.7637 41.7903 63.9634 41.5188C64.3629 40.9805 64.7762 40.4239 65.1956 39.8596C65.4153 39.5897 65.6381 39.3167 65.8608 39.0437L66.1973 38.6335L66.566 38.2568C66.8119 38.0128 67.0638 37.7413 67.3035 37.5187C67.5893 37.3128 67.875 37.1085 68.1577 36.9041C68.7262 36.5 69.3085 36.1355 69.8677 35.7756C71.0046 35.0817 72.0279 34.3741 72.9789 33.8952C73.9238 33.4057 74.7043 32.9848 75.2051 32.631C75.3296 32.541 75.4402 32.4617 75.5354 32.3916C75.6245 32.3138 75.6998 32.2482 75.7613 32.1949C75.8827 32.0866 75.9426 32.024 75.9334 32.0134C75.9241 32.0027 75.8473 32.0439 75.7121 32.1308C75.6445 32.175 75.5631 32.2299 75.4663 32.294C75.3649 32.3535 75.2497 32.4206 75.1191 32.4968C74.5982 32.8033 73.8116 33.1724 72.8406 33.6223C71.845 34.0706 70.7988 34.7416 69.6388 35.3989C69.0657 35.7436 68.4665 36.0943 67.8781 36.4878C67.5847 36.6876 67.2881 36.8889 66.9916 37.0902C66.8795 37.1649 66.8411 37.2259 66.7673 37.2884L66.5707 37.4775L66.1758 37.8588L65.7825 38.2415L65.4276 38.6533C65.1925 38.9278 64.959 39.2008 64.727 39.4738C64.2937 40.0319 63.8666 40.5809 63.4533 41.1132C63.249 41.3785 63.0477 41.6393 62.8511 41.8955L62.8203 41.9351L62.805 41.9504L62.7205 42.0312L62.5515 42.1898C62.4347 42.2935 62.321 42.3957 62.2073 42.4979C61.7418 42.9051 61.2993 43.2924 60.8907 43.6493C60.0718 44.3813 59.4219 45.0706 59.0255 45.6425C58.6276 46.2128 58.4678 46.6353 58.4586 46.6856C58.4263 46.7817 58.4048 46.8762 58.3971 46.9647C58.3925 47.0516 58.4094 47.1355 58.4294 47.2056C58.4202 47.2148 58.4079 47.2209 58.3986 47.23C58.3141 47.3246 58.2619 47.4374 58.2788 47.5442C58.2957 47.6509 58.3848 47.7302 58.5292 47.7683C58.6721 47.808 58.8734 47.808 59.0485 47.7241C59.0946 47.7089 59.5094 47.5426 60.0718 47.1644C60.3575 46.9814 60.6802 46.7496 61.0474 46.4995C61.4207 46.2525 61.8063 46.0085 62.3103 45.7812C62.8004 45.5464 63.3489 45.2902 63.902 44.9562C64.0372 44.8662 64.1754 44.7747 64.3137 44.6817L64.3659 44.6466L64.3921 44.6299L64.4013 44.6238C64.4044 44.6222 64.4059 44.6207 64.4136 44.6161L64.4689 44.5933L64.6947 44.5002C64.9974 44.3752 65.3047 44.2486 65.6196 44.119C66.8764 43.6081 68.1977 43.0393 69.5451 42.5131C69.7571 42.4247 69.9661 42.3301 70.1735 42.231C70.2518 42.3255 70.3471 42.3774 70.43 42.3499C70.4623 42.3393 70.9816 42.1441 71.7636 41.8757C72.5441 41.6027 73.5858 41.2535 74.5921 40.8173C75.096 40.6023 75.5846 40.3522 76.0286 40.1005C76.4649 39.8352 76.8629 39.5729 77.1671 39.3045C77.7893 38.7814 78.0812 38.33 78.0474 38.301C78.0013 38.2644 77.6403 38.6365 76.9904 39.062ZM64.3967 44.6314C64.3982 44.6314 64.3997 44.6299 64.3997 44.6299C64.3967 44.6314 64.3936 44.6329 64.3967 44.6314Z" fill="#454B03"/>
<path d="M54.75 34.9188C55.1894 34.1623 55.5658 33.3785 55.9268 32.6556C56.208 31.8901 56.4938 31.1901 56.6197 30.5511C56.692 30.2354 56.7795 29.9533 56.8149 29.6925C56.8441 29.4318 56.8686 29.2045 56.8886 29.0169C56.9255 28.6433 56.9347 28.4313 56.907 28.4283C56.8809 28.4252 56.8195 28.6296 56.735 28.988C56.695 29.1679 56.6459 29.386 56.5906 29.6346C56.5337 29.8832 56.4231 30.1546 56.3309 30.4566C56.165 31.0681 55.8439 31.7345 55.5351 32.4604C55.1448 33.1528 54.7438 33.9 54.2921 34.6061C53.3365 35.9832 52.1443 37.2535 51.3623 38.3394C51.3607 38.3409 51.3607 38.3424 51.3592 38.3439C51.6941 36.8128 51.9737 35.1872 52.1842 33.5462C52.3886 31.7955 52.6252 30.0646 52.8356 28.4359C52.937 27.6216 53.0354 26.8331 53.1291 26.0874C53.2259 25.3417 53.2643 24.6295 53.3273 23.9768C53.4702 22.6729 53.4487 21.5764 53.4548 20.8139C53.4563 20.0499 53.4456 19.6152 53.4195 19.6152C53.3933 19.6152 53.3519 20.0483 53.2996 20.8047C53.2428 21.5627 53.2167 22.6454 53.0277 23.9387C52.9432 24.5853 52.8833 25.2883 52.7634 26.0279C52.6497 26.7691 52.5314 27.5499 52.4085 28.3597C52.3394 28.8095 52.2672 29.2716 52.195 29.7368C52.1197 29.6041 52.0352 29.4348 51.9492 29.235C51.7064 28.6647 51.4683 27.8488 51.3208 27.0222C51.2424 26.612 51.2209 26.1957 51.1886 25.7931C51.1533 25.3966 51.1195 25.026 51.0903 24.7073C51.0258 24.0713 50.9628 23.6489 50.909 23.6474C50.8552 23.6458 50.8168 24.0668 50.7892 24.7012C50.78 25.0184 50.7677 25.3889 50.7554 25.7854C50.7523 25.9852 50.7477 26.1911 50.7446 26.4C50.7431 26.6273 50.7585 26.8484 50.7769 27.0695C50.8614 27.9479 51.0488 28.8126 51.2793 29.4638C51.499 30.1165 51.8155 30.5511 51.8401 30.574C51.8892 30.6335 51.9722 30.6426 52.0613 30.6167C51.9184 31.5515 51.7755 32.5031 51.6465 33.4517C51.5282 34.3194 51.35 35.1719 51.2086 36.0213C51.0488 36.8662 50.846 37.6867 50.674 38.4873C50.5188 39.108 50.3482 39.7012 50.1854 40.2807C50.17 40.3127 50.1608 40.3341 50.1562 40.3402C50.1285 40.3981 50.1193 40.4561 50.1193 40.514C50.0963 40.5979 50.0702 40.6848 50.0486 40.7672C49.8412 41.4885 49.6108 42.1443 49.3573 42.7497C49.1053 43.3567 48.8533 43.9102 48.6352 44.415C48.5799 44.5401 48.5261 44.6621 48.4754 44.7795C48.4723 44.7978 48.4278 44.8634 48.4216 44.9259L48.4001 45.0372C48.3878 45.0982 48.3771 45.1577 48.3648 45.2172C48.3171 45.4505 48.2772 45.664 48.2326 45.8546C48.0698 46.6217 47.8824 47.0152 47.867 47.064C47.7149 47.4193 47.6688 47.7609 47.8378 47.9073C47.996 48.0476 48.3863 47.831 48.5783 47.3873C48.5968 47.3339 48.8134 46.8459 48.9732 46.0376C49.0177 45.8363 49.0561 45.6167 49.1007 45.3804C49.1237 45.2736 49.1437 45.1043 49.1606 45.0906C49.2098 44.9732 49.262 44.8512 49.3143 44.7261C49.5232 44.2259 49.769 43.6632 50.0179 43.0379C50.2791 42.3547 50.5234 41.6014 50.7508 40.8038C50.7984 40.7687 50.8399 40.726 50.866 40.6711C50.8768 40.6482 50.9689 40.4408 51.121 40.0977C51.3238 39.7729 51.5604 39.294 51.9445 38.7725C52.6605 37.7004 53.8097 36.395 54.75 34.9188Z" fill="#454B03"/>
<path d="M37.0077 44.3355C36.7388 43.8521 36.4116 43.2741 36.0075 42.6428C35.6142 42.0008 35.1656 41.2931 34.6739 40.5306C33.7075 39.0056 32.7857 37.1222 31.7594 35.1092C31.4967 34.609 31.2309 34.0997 30.962 33.5857C30.6717 33.0809 30.4013 32.5579 30.0848 32.0546C29.4933 31.0283 28.7343 30.0629 28.0936 29.0717C27.7618 28.5776 27.4299 28.085 27.098 27.5939C26.8061 27.0785 26.5158 26.5646 26.2285 26.0552C25.7998 25.3506 25.4572 24.6156 25.1223 23.8927C25.1975 23.8622 25.2651 23.8104 25.3066 23.728C25.322 23.7067 25.4142 23.4856 25.514 23.1135C25.6185 22.7398 25.6754 22.2091 25.6846 21.6006C25.6892 21.2956 25.68 20.9708 25.6692 20.6323C25.6692 20.5636 25.6646 20.6231 25.6707 20.5514L25.683 20.4203C25.6923 20.3318 25.6999 20.2434 25.7092 20.1534C25.7245 19.9735 25.7522 19.792 25.7537 19.6044C25.7967 18.8571 25.7691 18.0718 25.7414 17.2894C25.7414 17.2727 25.7414 17.2544 25.7368 17.2376L25.7276 17.1857L25.7138 17.1156L25.6876 16.9737L25.6339 16.6916C25.5939 16.5056 25.5709 16.3134 25.5448 16.1243C25.4925 15.7446 25.4418 15.371 25.3927 15.0095C25.3435 14.6466 25.2713 14.2974 25.2144 13.9679C25.1284 13.6401 25.0178 13.3427 24.8949 13.0758C24.6521 12.5451 24.4432 12.0983 24.3541 11.7552C24.2542 11.4166 24.2419 11.2031 24.2066 11.2046C24.1897 11.2016 24.1482 11.4181 24.202 11.7826C24.245 12.1501 24.4201 12.6442 24.6137 13.178C24.7136 13.4494 24.7935 13.73 24.8519 14.0259C24.8857 14.3507 24.9348 14.6832 24.9625 15.0431C24.9932 15.406 25.0239 15.7827 25.0562 16.164C25.0731 16.3576 25.0869 16.5513 25.1192 16.7526L25.1945 17.2833C25.1883 18.0535 25.1822 18.8282 25.1161 19.5327C25.1084 19.7111 25.0746 19.882 25.0547 20.0528C25.0439 20.1382 25.0316 20.222 25.0209 20.3044L25.004 20.4279C24.9994 20.4325 24.984 20.6079 24.9901 20.6155C24.9886 20.951 24.9871 21.2667 24.9732 21.5518C24.9563 22.2533 24.8303 22.7612 24.7305 23.0631C24.7182 23.0372 24.7059 23.0098 24.6921 22.9838C24.437 22.4867 24.2711 21.9636 24.0683 21.468C23.8747 20.9678 23.6842 20.4798 23.4998 20.004C23.3508 19.5175 23.231 19.0356 23.1004 18.575C22.9713 18.1129 22.8453 17.6661 22.7731 17.2284C22.6871 16.7923 22.6041 16.3744 22.5258 15.9764C22.4889 15.7751 22.4413 15.5906 22.4167 15.3877C22.4029 15.1971 22.3906 15.0126 22.3783 14.8326C22.326 14.1159 22.28 13.4921 22.2431 12.9767C22.1985 12.4597 22.1647 12.0541 22.1401 11.7765C22.1125 11.4989 22.091 11.351 22.0787 11.351C22.0649 11.351 22.0603 11.4989 22.0618 11.7765C22.0679 12.0556 22.0772 12.4643 22.0879 12.9828C22.1048 13.4952 22.1263 14.1189 22.1494 14.8326C22.1555 15.0111 22.1632 15.1941 22.1693 15.3832C22.1709 15.3938 22.1709 15.4731 22.1755 15.4899L22.1878 15.5631L22.2124 15.7095C22.2293 15.8071 22.2462 15.9078 22.2631 16.0084C22.3307 16.4125 22.4029 16.8365 22.4782 17.2803C22.5396 17.7271 22.6564 18.18 22.7762 18.6513C22.8976 19.121 23.0082 19.6105 23.148 20.1061C23.3247 20.5911 23.506 21.0898 23.6919 21.6006C23.887 22.1069 24.0468 22.6422 24.2942 23.147C24.7704 24.1672 25.1929 25.2576 25.7952 26.2824C26.0794 26.804 26.3652 27.3286 26.6525 27.8562C26.9813 28.361 27.3116 28.8673 27.6419 29.3752C27.7018 29.4697 27.7618 29.5582 27.8217 29.6512C27.4053 29.3691 26.886 29.0397 26.2822 28.7011C25.3189 28.1414 24.1359 27.5589 22.9022 26.9184C22.8976 26.8833 22.896 26.8482 22.8807 26.8116C22.8745 26.7811 22.7593 26.5508 22.5519 26.1925C22.3445 25.8341 22.0172 25.3766 21.6823 24.8337C21.5133 24.5622 21.3566 24.2664 21.2275 23.9446C21.0985 23.6045 20.9633 23.2263 20.8312 22.8466C20.5592 22.0795 20.3165 21.2773 20.129 20.4279C19.8356 19.5907 19.5836 18.7748 19.2379 18.0336C19.072 17.6631 18.9353 17.2971 18.7601 16.9692C18.5865 16.6413 18.4236 16.3317 18.2715 16.0465C18.1947 15.9047 18.1225 15.769 18.0534 15.6394C17.9781 15.5143 17.8967 15.3999 17.826 15.2901C17.68 15.0736 17.5525 14.886 17.4465 14.7305C17.233 14.4239 17.1024 14.2562 17.0793 14.2699C17.0578 14.2836 17.1438 14.4804 17.3128 14.8098C17.3989 14.9729 17.5049 15.1712 17.6247 15.3984C17.6846 15.5128 17.7538 15.6302 17.8183 15.7598C17.8767 15.8925 17.9381 16.0313 18.0027 16.1777C18.1333 16.4674 18.2731 16.7816 18.4236 17.1125C18.5757 17.4435 18.6894 17.8125 18.8339 18.1816C19.1335 18.912 19.3516 19.7569 19.5944 20.5362C19.7419 21.3688 19.9723 22.2549 20.2181 23.0265C20.341 23.4215 20.4578 23.7875 20.5838 24.155C20.7236 24.5409 20.8926 24.884 21.0647 25.1783C21.3274 25.6328 21.5671 26.0034 21.7468 26.3023C21.2859 26.0506 20.825 25.7914 20.3718 25.5184C19.3424 24.8916 18.3591 24.1855 17.5602 23.3864C16.749 22.598 16.139 21.7181 15.7288 20.9052C14.9115 19.2658 14.8147 18.0092 14.7317 18.0275C14.7087 18.0291 14.7225 18.3371 14.8024 18.8709C14.893 19.4031 15.0728 20.1656 15.4569 21.0272C15.8364 21.8873 16.4371 22.8329 17.2514 23.6838C18.0534 24.5454 19.0505 25.3095 20.0845 25.9805C22.1632 27.3164 24.3648 28.3626 25.9258 29.3157C27.5021 30.2459 28.4332 31.0557 28.4915 31.0969C28.6145 31.2037 28.7573 31.2525 28.8864 31.254C29.123 31.6124 29.355 31.9738 29.5655 32.3505C29.8681 32.8476 30.1293 33.3676 30.4074 33.8679C30.6686 34.3818 30.9252 34.8881 31.1787 35.3883C32.1712 37.3967 33.0884 39.3274 34.0594 40.8951C36.0306 43.9741 37.1275 46.1488 37.1567 46.2967C37.4025 46.8244 37.7621 47.1889 37.9602 47.1126C38.1584 47.0363 38.1108 46.5285 37.8558 45.978C37.825 45.9124 37.5715 45.2856 37.0077 44.3355Z" fill="#454B03"/>
<path d="M39.8794 42.9415C39.7888 42.6685 39.6843 42.3909 39.5921 42.0981C39.5045 41.8053 39.4154 41.5034 39.3233 41.1923C39.1358 40.5746 38.9545 39.9036 38.7548 39.2235C38.5689 38.6425 38.3983 38.0401 38.1786 37.4408C38.277 37.4057 38.3446 37.3492 38.3446 37.2791C38.343 37.2501 38.3092 36.7758 38.2585 36.0789C38.2109 35.382 38.0911 34.4685 37.9743 33.5627C37.7162 31.7464 37.2799 29.9835 37.1831 30.0002C37.0694 30.0185 37.3106 31.7921 37.4289 33.5932C37.4704 34.4212 37.5241 35.2432 37.541 35.9051C37.3936 35.6306 37.2537 35.3484 37.117 35.0648C36.4687 33.7167 35.8818 32.2725 34.8923 31.2172C33.9475 30.1604 33.0072 29.2423 32.2743 28.3807C31.5399 27.5236 31.0007 26.7428 30.6842 26.1542C30.3846 25.5594 30.254 25.1873 30.2202 25.198C30.2079 25.201 30.2279 25.2956 30.2801 25.471C30.3078 25.5594 30.3416 25.6677 30.38 25.7943C30.4215 25.9208 30.4614 26.0718 30.5444 26.2197C30.8224 26.8435 31.3325 27.67 32.0423 28.5698C32.7491 29.4711 33.6678 30.4303 34.5666 31.4963C35.4623 32.5028 35.9954 33.8997 36.6192 35.2844C36.7759 35.6321 36.9372 35.9798 37.117 36.3244L37.2276 36.544L37.3167 36.8002L37.498 37.3203C37.7561 38.002 37.9328 38.7111 38.1341 39.3836C38.32 40.0699 38.4844 40.7271 38.6657 41.3677C38.7548 41.6864 38.8408 41.996 38.9238 42.2964C39.0114 42.5938 39.1128 42.8789 39.1988 43.1519C39.5506 44.2377 39.7934 45.1512 39.9132 45.8085C40.0423 46.4642 40.0515 46.8592 40.0669 46.905C40.0822 47.2572 40.2666 47.5485 40.4817 47.5561C40.6952 47.5638 40.8581 47.2511 40.8381 46.8592C40.8228 46.8135 40.8043 46.3773 40.6584 45.6834C40.5216 44.9834 40.2543 44.0349 39.8794 42.9415Z" fill="#454B03"/>
<path d="M31.3109 45.4734C31.3048 45.4643 31.3017 45.4521 31.294 45.4429C31.2802 45.42 31.1266 45.2477 30.9069 44.8848C30.6856 44.5264 30.406 43.9896 30.0957 43.3308C29.9374 42.9968 29.7684 42.6369 29.5887 42.2572L29.5318 42.1443L29.4842 41.9994C29.4519 41.8988 29.4181 41.7966 29.3843 41.6929C29.3167 41.487 29.2491 41.2766 29.1785 41.0615C29.0448 40.6361 28.8835 40.1846 28.7191 39.7287C28.6376 39.5014 28.5562 39.2727 28.4733 39.0439L28.292 38.7191C28.4057 38.6993 28.4855 38.652 28.4886 38.5818C28.4886 38.5681 28.4871 38.4522 28.484 38.2585C28.4902 38.0633 28.464 37.7965 28.421 37.4838C28.3534 36.854 28.1583 36.0503 27.9186 35.2725C27.6682 34.4963 27.3655 33.7475 27.0936 33.2077C26.8263 32.6663 26.6035 32.3308 26.5605 32.3491C26.5067 32.372 26.6342 32.7441 26.8124 33.3068C26.9937 33.868 27.2119 34.6244 27.3886 35.39C27.553 36.1555 27.6866 36.9318 27.7112 37.5143C27.7189 37.6058 27.7235 37.6912 27.7281 37.7736C27.5914 37.5738 27.4562 37.3756 27.3225 37.1773C27.0321 36.7991 26.7571 36.4194 26.4714 36.0701C25.909 35.364 25.379 34.7144 24.958 34.1288C24.1038 32.9667 23.7243 32.0563 23.6582 32.0822C23.6337 32.0914 23.712 32.3232 23.8718 32.7242C23.9133 32.8249 23.9578 32.9362 24.007 33.0567C24.0638 33.1726 24.133 33.2946 24.2037 33.4257C24.3496 33.6865 24.5017 33.9931 24.7076 34.292C25.0963 34.9126 25.6002 35.5989 26.1257 36.3248C26.3961 36.6878 26.648 37.0675 26.9169 37.4503C27.0398 37.647 27.1627 37.8437 27.2872 38.042L27.4731 38.3409C27.5299 38.4415 27.5791 38.5452 27.6329 38.6474L27.9478 39.2605C28.0185 39.4816 28.0876 39.7027 28.1583 39.9223C28.2981 40.36 28.4379 40.787 28.5639 41.2354C28.6284 41.455 28.6914 41.6715 28.7529 41.8835C28.7836 41.9887 28.8143 42.094 28.8451 42.1977L28.8927 42.3593C28.9388 42.4768 28.9495 42.4874 28.9726 42.5408C29.0632 42.7482 29.1523 42.948 29.2368 43.1432C29.1431 43.041 29.0479 42.9358 28.9511 42.829C28.8604 42.7269 28.7898 42.6994 28.7222 42.6415C28.6515 42.5896 28.5808 42.5378 28.5101 42.4844C27.934 42.0665 27.3333 41.5861 26.6434 41.1652C26.3039 40.9487 25.9582 40.7169 25.6002 40.4973C25.2407 40.2838 24.8735 40.0642 24.5002 39.843C23.9486 39.5182 23.3848 39.1812 22.8056 38.8503C22.8639 38.7145 22.8486 38.5224 22.741 38.3378C22.7257 38.3028 22.5352 38.0161 22.1833 37.5753C21.8346 37.1316 21.2861 36.5734 20.6039 35.971C19.2611 34.754 17.2623 33.4349 16.1331 31.37C15.5277 30.3361 14.7565 29.418 13.9913 28.6189C13.7993 28.4221 13.6088 28.23 13.4229 28.0409C13.2477 27.8411 13.0772 27.6459 12.9113 27.4553C12.5809 27.074 12.2706 26.7111 11.9741 26.3847C11.3841 25.7305 10.8587 25.2196 10.4546 24.9131C10.0551 24.602 9.8047 24.4601 9.79241 24.4769C9.77398 24.5028 9.99214 24.6858 10.3532 25.029C10.7173 25.3691 11.1967 25.9013 11.7467 26.5769C12.0202 26.92 12.3151 27.2921 12.6286 27.6871C12.7884 27.8853 12.9512 28.0882 13.1187 28.2971C13.3 28.4969 13.4859 28.7012 13.6748 28.9086C14.3585 29.6788 15.033 30.5389 15.5707 31.489C15.5369 31.4813 15.5031 31.4752 15.4663 31.4676C15.3403 31.4295 15.1989 31.3853 15.0422 31.338C14.8855 31.2907 14.7165 31.2389 14.5352 31.184C14.357 31.1214 14.1696 31.0437 13.9729 30.9674C13.5688 30.8286 13.1694 30.6121 12.7392 30.4047L12.7238 30.3955C11.4855 29.8023 10.1949 28.9452 9.29462 28.1614C8.83678 27.7771 8.47881 27.4065 8.22991 27.1366C7.99024 26.859 7.8366 26.6973 7.81048 26.7141C7.78436 26.7309 7.88576 26.9231 8.08549 27.2448C8.29291 27.5575 8.62169 27.9768 9.05649 28.4115C9.91379 29.2975 11.1798 30.2522 12.4503 30.9445L12.4242 30.9293C12.8713 31.1748 13.2969 31.431 13.7102 31.5942C13.9145 31.6826 14.1081 31.7741 14.294 31.8473C14.483 31.9145 14.6597 31.9754 14.8241 32.0334C14.9869 32.0898 15.1359 32.1417 15.2681 32.1874C15.4048 32.2225 15.5246 32.2515 15.623 32.2774C15.8212 32.3262 15.9395 32.3567 15.9548 32.3598C15.9979 32.3704 16.0409 32.3643 16.0808 32.3491L16.1192 32.4131C16.2959 32.6663 16.4618 32.9255 16.6585 33.1558C17.0318 33.6347 17.4482 34.0556 17.8553 34.449C18.6773 35.2298 19.4839 35.8902 20.1307 36.491C20.9342 37.2093 21.4674 37.8575 21.7716 38.2723C21.1017 37.9139 20.4134 37.5723 19.7036 37.2734C17.9936 36.5398 16.1899 36.1327 14.5183 35.8002C12.8437 35.4647 11.2888 35.1094 10.0075 34.6122C9.3653 34.3774 8.75843 34.2188 8.22838 34.0541C7.69525 33.897 7.23434 33.7308 6.86254 33.566C6.12046 33.2305 5.75327 32.9042 5.72869 32.9393C5.71947 32.9499 5.80704 33.0308 5.98219 33.1756C6.15119 33.3297 6.43081 33.5081 6.79801 33.7064C7.16674 33.897 7.63073 34.0922 8.16078 34.2737C8.68776 34.4628 9.28848 34.6442 9.90457 34.8928C11.1859 35.4418 12.7699 35.849 14.4338 36.2242C16.1023 36.5978 17.8523 37.0355 19.4947 37.7751C21.1447 38.5056 22.7041 39.4816 24.1791 40.386C24.5478 40.6132 24.9119 40.8374 25.2684 41.057C25.6202 41.2796 25.9505 41.5099 26.2808 41.7264C26.9492 42.1473 27.5268 42.6232 28.0799 43.0364C28.1491 43.0883 28.2167 43.1401 28.2843 43.192C28.3473 43.2438 28.4348 43.2987 28.4456 43.3231C28.5562 43.4482 28.6638 43.5702 28.7698 43.6891C28.9818 43.927 29.1815 44.1543 29.372 44.3678C29.75 44.7978 30.0895 45.1654 30.3522 45.4948C30.4644 45.632 30.5658 45.754 30.6595 45.8669C30.678 45.8913 30.6933 45.9111 30.6979 45.9172C30.701 45.9218 30.7056 45.9233 30.7087 45.9264C31.0283 46.3152 31.2188 46.544 31.2464 46.5775C31.5368 46.9298 31.9071 47.1082 32.0745 46.9786C32.242 46.849 32.1391 46.454 31.8441 46.0956C31.8133 46.0682 31.6259 45.8455 31.3109 45.4734Z" fill="#454B03"/>
<path d="M20.8281 43.7313C20.106 43.26 19.2564 42.74 18.267 42.3008C18.1548 42.252 18.0396 42.2032 17.9259 42.1529C17.7953 42.0873 17.6647 42.0202 17.5264 41.9745C17.253 41.8708 16.9687 41.8143 16.686 41.7777C16.5631 41.7625 16.4418 41.7533 16.3189 41.7472C16.2943 41.6298 16.2221 41.5276 16.1053 41.4834C16.0531 41.4651 15.0836 41.1281 13.7116 40.6508L13.6809 40.6401C13.2707 40.512 12.8282 40.3137 12.3796 40.0286C11.9294 39.7464 11.467 39.4079 10.9492 39.1105C10.6926 38.958 10.4084 38.8421 10.1288 38.7399C9.85376 38.6484 9.57874 38.5569 9.30527 38.467C8.76446 38.2763 8.22058 38.1315 7.70743 37.9942C7.19428 37.857 6.71032 37.7273 6.27245 37.6114C5.83305 37.5001 5.43973 37.3949 5.11556 37.2897C4.46259 37.0929 4.05545 36.9877 4.04163 37.0228C4.0278 37.0579 4.40728 37.2348 5.04488 37.4986C5.36291 37.6389 5.74701 37.7761 6.18027 37.9195C6.61046 38.0644 7.08673 38.2245 7.59067 38.3938C8.09153 38.5585 8.62312 38.7293 9.14702 38.9428C9.41128 39.0434 9.67707 39.1456 9.9444 39.2493C10.1933 39.3545 10.4299 39.4597 10.6588 39.6077C11.1182 39.8944 11.5668 40.2482 12.0308 40.5638C12.4948 40.8841 12.9987 41.1403 13.4904 41.3096L13.4535 41.2958C13.9313 41.4788 14.3569 41.6405 14.7149 41.7762C14.2632 41.8021 13.8161 41.825 13.3782 41.8052C12.8589 41.7732 12.3104 41.6832 11.8004 41.6298C11.2872 41.552 10.7863 41.5536 10.3131 41.5261C10.0765 41.517 9.84761 41.5063 9.62484 41.4971C9.4036 41.5032 9.1885 41.5078 8.98263 41.5139C8.57088 41.5276 8.19447 41.5307 7.86261 41.5536C7.53075 41.5856 7.24191 41.613 7.00377 41.6359C6.52903 41.6862 6.26016 41.7259 6.2617 41.7533C6.26323 41.7808 6.53671 41.793 7.01299 41.793C7.25113 41.7915 7.53997 41.7884 7.87183 41.7854C8.20215 41.7884 8.57549 41.8082 8.98263 41.8174C9.18543 41.8235 9.39745 41.8296 9.61715 41.8357C9.83532 41.8555 10.0612 41.8769 10.2932 41.8967C10.7571 41.944 11.2488 41.9638 11.7527 42.0614C12.0047 42.1026 12.2628 42.1422 12.5225 42.1849C12.653 42.2063 12.7836 42.2261 12.9142 42.2474C13.0479 42.2657 13.2061 42.2886 13.3475 42.2993C13.9206 42.345 14.4829 42.3237 15.0283 42.3115C15.5752 42.2978 16.1099 42.2962 16.6077 42.371C16.855 42.4106 17.0947 42.4655 17.3098 42.554C17.422 42.5921 17.5203 42.6485 17.6217 42.7019C17.6156 42.7004 17.76 42.772 17.7569 42.769L17.8429 42.8086L18.0135 42.8879C18.9184 43.3165 19.745 43.8472 20.4317 44.3184C20.7759 44.5563 21.0832 44.7866 21.3582 44.9924C21.6224 45.2075 21.8637 45.3905 22.0496 45.5536C22.4198 45.883 22.6365 46.0828 22.6503 46.1102C22.8239 46.2963 23.1004 46.3405 23.2664 46.2094C23.4323 46.0782 23.4016 45.7915 23.1957 45.5719C23.1496 45.5048 22.2723 44.6691 20.8281 43.7313Z" fill="#454B03"/>
</svg>
