<svg width="81" height="47" viewBox="0 0 81 47" fill="none" xmlns="http://www.w3.org/2000/svg">
<g clip-path="url(#clip0)">
<path d="M5.61447 44.4014C5.61447 44.4014 -8.93671 27.2039 11.7816 19.5774C11.7816 19.5774 14.5968 0.666344 33.6021 4.90632C33.6021 4.90632 55.7537 -8.649 64.8235 10.7315C64.8235 10.7315 86.6042 13.1375 78.5717 28.6642C78.5717 28.6642 87.4892 43.2575 67.0313 45.2762C42.7187 47.6754 5.61447 44.4014 5.61447 44.4014Z" fill="#A4A53F"/>
<path d="M49.0348 18.8723C49.1452 18.8813 49.2623 18.8498 49.3533 18.7699C49.3738 18.7507 49.5546 18.5864 49.8549 18.3128C50.162 18.0358 50.5977 17.6643 51.1072 17.1925C51.3586 16.9516 51.6441 16.7186 51.9194 16.4225C52.057 16.2772 52.1992 16.1275 52.3436 15.9755L52.4528 15.8607C52.4676 15.8438 52.5017 15.8111 52.479 15.8314C52.4687 15.8381 52.512 15.8021 52.5267 15.7897C52.6109 15.7177 52.6951 15.6445 52.7804 15.5702C53.1205 15.2527 53.4151 14.8879 53.6801 14.5017C53.7472 14.6076 53.8359 14.6706 53.9133 14.647C53.9406 14.638 54.3933 14.4815 55.0587 14.2518C55.7263 14.0176 56.6192 13.7103 57.4678 13.2982C58.3197 12.8963 59.1011 12.3592 59.5811 11.8661C60.0679 11.3775 60.2772 10.9801 60.2431 10.9564C60.1942 10.9204 59.9075 11.2514 59.3911 11.6499C58.877 12.053 58.1093 12.4898 57.271 12.8152C56.4372 13.1496 55.5535 13.3995 54.8801 13.5954C54.5684 13.6866 54.3057 13.7632 54.1066 13.8217C54.1908 13.6765 54.2761 13.5301 54.3546 13.3838L54.6685 12.7949C54.7663 12.6407 54.9131 12.4425 55.0382 12.2737C55.3032 11.9247 55.5648 11.5801 55.8173 11.248C56.3235 10.5815 56.7807 9.94315 57.0913 9.3577C57.4086 8.77563 57.5826 8.25661 57.652 7.89183C57.7271 7.52593 57.7112 7.3154 57.693 7.31427C57.6259 7.30414 57.536 8.13727 56.8331 9.21922C56.4952 9.76301 56.0175 10.3597 55.4829 10.9981C55.2145 11.3212 54.9358 11.6556 54.6537 11.9956L54.4445 12.259L54.3409 12.3941L54.2886 12.4617C54.2738 12.4741 54.2227 12.5563 54.2181 12.5686L53.8848 13.1383C53.4412 13.8938 52.951 14.6053 52.363 15.1221L52.1389 15.3045L52.0615 15.3675L51.9683 15.4587L51.8636 15.5623C51.7249 15.7008 51.5884 15.8359 51.4553 15.9676C51.1948 16.2344 50.8968 16.4652 50.6488 16.6904C50.1393 17.1374 49.6866 17.5044 49.3738 17.7735C49.3613 17.7847 49.351 17.7926 49.3385 17.8039C49.4181 17.6677 49.4034 17.501 49.3078 17.3738C49.4056 16.4337 49.5012 15.506 49.5944 14.6076C49.682 13.6022 49.74 12.6317 49.7969 11.7096C49.7992 11.7141 49.7992 11.7175 49.8015 11.7209C49.8913 11.9033 50.0619 11.9956 50.1825 11.9269C50.2041 11.9066 50.7285 11.6331 51.2687 11.0172C51.8079 10.4059 52.3027 9.47817 52.5711 8.52232C52.8555 7.56871 52.9738 6.60385 53.0261 5.88331C53.0761 5.16276 53.0682 4.68314 53.017 4.67864C52.9624 4.67414 52.8702 5.147 52.7303 5.84953C52.5893 6.55094 52.3903 7.48315 52.0593 8.36582C51.7419 9.25412 51.2437 10.0602 50.7592 10.5612C50.2997 11.0386 49.8856 11.2446 49.8253 11.2818C49.8754 10.4779 49.9266 9.71235 49.9971 9.00306C50.0653 8.18231 50.1279 7.43136 50.1825 6.76485C50.2849 6.1096 50.2792 5.53429 50.2667 5.05918C50.2234 4.11233 50.2212 3.55391 50.1893 3.55616C50.1757 3.55616 50.162 3.69351 50.1461 3.95246C50.1279 4.21366 50.1165 4.59082 50.112 5.06481C50.0995 5.53767 50.079 6.1051 49.9584 6.73108L49.9357 6.88419L49.9209 7.01142C49.9106 7.09698 49.9015 7.18254 49.8913 7.27036C49.872 7.446 49.8515 7.62613 49.8299 7.81077C49.7889 8.18343 49.7446 8.5741 49.6991 8.98279C49.4875 10.6536 49.3874 12.5315 49.169 14.5772C49.0724 15.3698 48.9723 16.1872 48.871 17.0147C48.8176 16.9741 48.763 16.9325 48.6981 16.8841C48.4035 16.6082 47.9668 16.2412 47.5414 15.7177C47.4254 15.595 47.3173 15.4565 47.2161 15.3067C47.1103 15.1592 47.0011 15.0073 46.8885 14.8508C46.6826 14.5254 46.4699 14.1786 46.2743 13.806C45.883 13.0595 45.5406 12.2241 45.2278 11.3685C44.873 10.5252 44.5431 9.69433 44.4498 8.85219C44.4316 8.64278 44.4055 8.43562 44.4146 8.23184C44.4077 8.02806 44.4214 7.82766 44.4441 7.63289C44.4726 7.43924 44.4567 7.24109 44.4464 7.0587C44.4362 6.87519 44.4259 6.6973 44.4168 6.52617C44.3384 5.16839 44.2553 4.24969 44.2041 4.24856C44.178 4.24856 44.1587 4.47824 44.145 4.88242C44.1314 5.2866 44.1257 5.87092 44.1177 6.53743C44.1166 6.70518 44.1154 6.88082 44.1131 7.06208C44.1131 7.15327 44.112 7.24447 44.112 7.33904V7.39646C44.1109 7.40434 44.1063 7.43361 44.1041 7.446L44.0813 7.59911C44.0472 7.80402 44.0222 8.01568 44.0165 8.2341C43.9971 8.45251 44.0131 8.67431 44.0222 8.9006C44.0768 9.80354 44.4009 10.7245 44.7137 11.5565C44.9913 12.4178 45.3131 13.2948 45.6965 14.0852C45.8875 14.4804 46.1002 14.853 46.3073 15.2032C46.421 15.3732 46.5325 15.5375 46.6394 15.6974C46.7429 15.8595 46.8532 16.0104 46.9727 16.1466C47.4128 16.7197 47.8678 17.1272 48.1795 17.4312C48.5139 17.7059 48.7243 17.8602 48.7482 17.8816C48.5309 18.8746 48.2921 19.8743 47.9918 20.8865C47.8417 21.4213 47.6915 21.9572 47.5414 22.4908C47.4663 22.7588 47.3912 23.0256 47.3162 23.2924C47.2525 23.5626 47.1899 23.8328 47.1273 24.1008C46.8885 25.1873 46.5996 26.2062 46.3368 27.2104C46.2299 27.5932 46.1355 27.9704 46.0286 28.343C46.0275 28.3408 46.0263 28.3385 46.0252 28.3351C45.9626 28.1753 45.9069 27.9918 45.8386 27.7947C45.5452 27.0111 45.287 25.9337 45.0822 24.8427C44.6967 22.6529 44.708 20.4024 44.5897 20.4035C44.5408 20.4035 44.4726 20.963 44.435 21.8108C44.4043 22.6575 44.4168 23.7923 44.5431 24.9227C44.6819 26.0508 44.8912 27.1778 45.1573 28.0041C45.2187 28.2113 45.2688 28.405 45.3257 28.5738C45.3859 28.7405 45.4394 28.8879 45.4849 29.0095C45.5748 29.2538 45.6282 29.4013 45.6339 29.4171C45.6419 29.4396 45.6601 29.4565 45.6771 29.4734C45.6111 29.6783 45.544 29.8888 45.4792 30.0892C45.3325 30.5463 45.1892 30.991 45.0515 31.4234C44.873 31.8332 44.7001 32.2306 44.534 32.6123C44.451 32.8025 44.3691 32.9906 44.2895 33.173C44.2053 33.3553 44.1075 33.531 44.0199 33.7044C43.8413 34.05 43.6718 34.3787 43.5126 34.6884C43.1907 35.3132 42.9075 35.8626 42.6709 36.3209C42.5628 36.5291 42.4673 36.7172 42.3797 36.886C42.4764 34.1491 42.5992 30.9201 42.6709 27.6934C42.6709 27.1868 42.6709 26.6801 42.6709 26.1758C42.639 25.6736 42.6072 25.1737 42.5765 24.6784C42.5606 24.4307 42.5446 24.1841 42.5276 23.9387C42.4969 23.6955 42.4661 23.4534 42.4354 23.2125C42.3729 22.7318 42.3103 22.2578 42.2489 21.7905C42.1738 21.3267 42.0737 20.8752 41.9896 20.4305C41.9054 20.0353 41.8417 19.6458 41.7484 19.272C41.753 19.2686 41.7587 19.2675 41.7621 19.2641C41.9259 19.129 41.9486 18.8892 41.8121 18.7293C41.8076 18.7237 41.7882 18.7023 41.7621 18.6719C41.8963 18.619 41.9964 18.5042 42.0066 18.3691C42.0089 18.3218 42.0453 17.5393 42.0988 16.3898C42.1397 15.2437 42.2375 13.7069 42.2591 12.1892C42.2387 11.8076 42.2182 11.4259 42.1977 11.051L42.1818 10.7718L42.1363 10.4993C42.1056 10.3192 42.076 10.1413 42.0464 9.96679C41.9486 9.26425 41.7644 8.63265 41.6267 8.08886C41.3287 7.00578 41.0842 6.29875 41.0364 6.31113C40.9795 6.32464 41.1263 7.05983 41.3333 8.15754C41.4254 8.70583 41.5653 9.34306 41.6199 10.0321C41.6392 10.2032 41.6586 10.3789 41.6779 10.5556L41.7086 10.8224L41.7098 11.0938C41.712 11.4563 41.7143 11.8245 41.7166 12.1937C41.5585 14.2349 41.4004 16.2828 41.3117 17.4301C41.2616 17.2106 41.2138 16.9933 41.1649 16.7839C40.8419 15.3225 40.5155 14.1201 40.1981 13.3151C40.0559 12.9064 39.9001 12.6047 39.7989 12.3975C39.6965 12.1915 39.6374 12.0845 39.6248 12.089C39.6123 12.0947 39.6487 12.2129 39.7261 12.4279C39.8023 12.6441 39.9331 12.9526 40.0502 13.3658C40.3175 14.1797 40.5939 15.3788 40.8703 16.8492C40.9363 17.1858 41.0045 17.5382 41.0762 17.9018C40.8658 17.6609 40.6235 17.3772 40.3551 17.0518C39.5384 16.0588 38.5136 14.7033 37.7049 13.225C37.2886 12.4921 36.9576 11.7175 36.6766 10.9801C36.5538 10.6052 36.4184 10.2471 36.3365 9.89361C36.2899 9.71798 36.2455 9.54684 36.2023 9.38247C36.1693 9.21472 36.1375 9.05259 36.1068 8.8961C35.8736 7.64527 35.8929 6.77611 35.8235 6.77724C35.7974 6.77724 35.7724 6.99227 35.7496 7.37281C35.7451 7.46851 35.7394 7.57322 35.7325 7.68805C35.736 7.80289 35.7405 7.92561 35.7451 8.05846C35.7553 8.32304 35.761 8.62252 35.8099 8.94451C35.8304 9.10551 35.852 9.27439 35.8736 9.44889C35.9032 9.62115 35.9418 9.79791 35.9782 9.98143C36.0419 10.3496 36.1591 10.7245 36.266 11.1163C36.5151 11.8875 36.8199 12.7004 37.2158 13.4693C37.9835 15.0208 38.9845 16.4405 39.7841 17.4751C40.5871 18.5098 41.182 19.1729 41.2138 19.2157C41.2593 19.2686 41.3185 19.3013 41.3799 19.3238C41.4686 19.7122 41.5209 20.1085 41.5983 20.5138C41.6711 20.954 41.7598 21.401 41.8235 21.8615C41.8747 22.3242 41.9259 22.7948 41.9782 23.271C42.0032 23.5097 42.0294 23.7495 42.0544 23.9905C42.0658 24.2325 42.0771 24.4768 42.0874 24.7211C42.109 25.2109 42.1306 25.704 42.1534 26.2005C42.1443 26.6982 42.1352 27.1969 42.1261 27.6968C42.0828 28.6245 42.0385 29.5533 41.9953 30.4698C41.9065 30.3493 41.7769 30.1793 41.6063 29.9744C41.4447 29.7819 41.2491 29.5533 41.0455 29.2921C40.9454 29.1615 40.8373 29.0219 40.7441 28.8699L40.669 28.7551C40.6042 28.656 40.5928 28.6459 40.5598 28.5975C40.5018 28.5164 40.4427 28.4331 40.3824 28.3475C40.1424 28.0041 39.8683 27.6416 39.5987 27.2329C39.4713 27.0224 39.3382 26.8062 39.2029 26.5833C39.1346 26.4719 39.0664 26.3593 38.997 26.2444L38.8923 26.0722L38.8389 25.9855C38.8275 25.9652 38.807 25.9303 38.79 25.9134L38.7547 25.8706C38.0563 24.9981 37.2442 24.1008 36.456 23.1326C36.2626 22.8883 36.0681 22.6406 35.8724 22.3918C35.6882 22.1362 35.5016 21.8784 35.3151 21.6194C35.1456 21.3503 34.9682 21.0835 34.8021 20.8099L34.5735 20.3888C34.5075 20.2515 34.3949 20.0984 34.3756 19.9858C34.0435 18.726 33.6203 17.4785 33.0607 16.3628C31.7982 14.1921 31.7652 11.8222 31.1908 10.2832L31.1896 10.2798C31.0793 9.88798 30.9792 9.53221 30.8916 9.22035C30.8006 8.90736 30.754 8.62477 30.6971 8.39847C30.6471 7.93124 30.6175 7.66441 30.5959 7.66441C30.5766 7.66329 30.5629 7.93124 30.5743 8.41761C30.6118 8.64954 30.6403 8.94451 30.7131 9.26538C30.7836 9.58062 30.8643 9.93864 30.9531 10.3349L30.9587 10.3563C31.0497 10.7504 31.1498 11.1827 31.2567 11.6466C31.3671 12.1082 31.4239 12.6204 31.5184 13.1485C31.5604 13.4119 31.6241 13.708 31.6787 13.9951C31.7288 14.289 31.8494 14.5625 31.9347 14.8541C32.136 15.4238 32.3862 15.989 32.6456 16.5553C33.0675 17.4549 33.394 18.4209 33.6647 19.424C33.1654 19.0266 32.3521 18.3769 31.5388 17.7296C30.8837 17.2015 30.1762 16.794 29.7576 16.3346C29.3356 15.8843 29.1514 15.4947 29.0877 15.5229C29.0626 15.533 29.0865 15.6377 29.1491 15.8167C29.2025 15.9991 29.3333 16.2401 29.5153 16.5136C29.8907 17.0676 30.5959 17.5787 31.1555 18.1157C31.78 18.7158 32.3453 19.2135 32.8253 19.6525C33.2984 20.0781 33.6215 20.3686 33.6408 20.3855C33.6977 20.4361 33.8069 20.4102 33.9161 20.3303L33.9604 20.417L34.0753 20.6399L34.3051 21.0846C34.4711 21.3728 34.6486 21.6521 34.8192 21.9347C35.0057 22.2049 35.1923 22.4739 35.3765 22.7408C35.5722 22.9986 35.7655 23.2542 35.9578 23.5075C36.7403 24.5061 37.5354 25.4169 38.2042 26.2805L38.2372 26.3221L38.2895 26.4111L38.393 26.5878C38.4612 26.7049 38.5295 26.8209 38.5966 26.9346C38.7308 27.1631 38.8605 27.3849 38.9879 27.6C39.2586 28.0233 39.5395 28.4095 39.7829 28.7697C39.8444 28.8598 39.9058 28.9465 39.9649 29.0321C39.9888 29.067 40.04 29.1413 40.0252 29.1199L40.1094 29.2538C40.2174 29.434 40.3312 29.5871 40.4392 29.7312C40.6565 30.0172 40.8487 30.248 41.0045 30.4394C41.3128 30.8199 41.4595 31.0473 41.4823 31.0789C41.6233 31.2939 41.7894 31.4549 41.9498 31.5101C41.6381 38.1504 41.3663 43.944 41.356 44.1546C41.3321 44.6567 41.4845 45.0643 41.6972 45.0665C41.9088 45.0688 42.0999 44.6635 42.1238 44.1613C42.1283 44.0364 42.2034 41.9389 42.3137 38.863C42.316 38.8056 42.3171 38.7459 42.3194 38.6885C42.4366 38.5489 42.5526 38.3643 42.6459 38.1504C42.6595 38.1188 42.7255 37.9646 42.837 37.7023C42.8927 37.5717 42.9609 37.4129 43.0383 37.2305C43.1293 37.0504 43.2328 36.8444 43.3477 36.617C43.5774 36.1599 43.8538 35.6104 44.1677 34.9856C44.3259 34.6703 44.4931 34.3371 44.6694 33.9858C44.7558 33.8091 44.8513 33.6334 44.9367 33.4443C45.0174 33.2529 45.1004 33.057 45.1858 32.8566C45.3541 32.4569 45.5281 32.0415 45.709 31.6125C45.8432 31.1757 45.982 30.7253 46.1253 30.2626C46.2674 29.7999 46.4142 29.3259 46.5632 28.8407C46.719 28.3588 46.8225 27.8488 46.9579 27.341C47.2104 26.321 47.4925 25.2672 47.7086 24.2089C47.7666 23.9432 47.8246 23.6775 47.8826 23.4095C47.9531 23.1438 48.0236 22.8781 48.0942 22.6113C48.2352 22.0765 48.3774 21.5406 48.5196 21.0047C48.7095 20.301 48.8801 19.5861 49.0348 18.8723Z" fill="#4F1900"/>
<path d="M60.7834 34.8829C60.8107 34.8795 60.8357 34.8772 60.8642 34.8693C60.9119 34.8693 60.9574 34.8581 60.9972 34.8322C61.0086 34.8243 61.0143 34.8119 61.0234 34.804C61.0951 34.7646 61.1667 34.7151 61.2316 34.6509C61.2577 34.6183 61.5307 34.3605 62.0005 33.9405C62.4759 33.5228 63.1743 32.9678 63.9876 32.2517C64.1912 32.0727 64.3993 31.8836 64.6052 31.6742C64.8179 31.4738 65.0238 31.252 65.2285 31.0155C65.4264 30.7915 65.6289 30.5618 65.8348 30.3276C66.0486 30.1081 66.2693 29.8852 66.5161 29.6791C67.3271 28.971 68.3337 28.3596 69.2698 27.6312C69.3608 27.6931 69.4643 27.7168 69.5496 27.6762C69.5667 27.6672 69.718 27.5884 69.9705 27.4578C70.0967 27.3925 70.248 27.3126 70.4198 27.2225C70.5983 27.1392 70.7974 27.0458 71.0146 26.9444C71.8791 26.5301 73.0472 26.028 74.2108 25.509C75.3949 24.9922 76.4368 24.2232 77.1056 23.5657C77.7835 22.9127 78.1896 22.4365 78.1566 22.4027C78.119 22.3622 77.6391 22.7731 76.9145 23.3496C76.1945 23.9328 75.1731 24.5903 74.0163 25.026C72.8402 25.4786 71.6436 25.9334 70.7485 26.3207C70.7451 26.3218 70.7416 26.3241 70.7382 26.3252C71.4218 25.6249 72.019 24.8695 72.549 24.1365C72.9232 23.6074 73.285 23.0951 73.6273 22.6099C73.7979 22.3667 73.9731 22.1393 74.1255 21.9017C74.254 21.6563 74.378 21.4187 74.4963 21.1902C74.9684 20.2771 75.2902 19.4868 75.4552 18.9249C75.5371 18.6435 75.5883 18.4206 75.6042 18.2674C75.6269 18.1155 75.6326 18.0333 75.6201 18.0321C75.6076 18.0299 75.5757 18.1076 75.528 18.2528C75.487 18.3992 75.412 18.612 75.3084 18.881C75.0992 19.4192 74.742 20.1758 74.2336 21.0618C74.1062 21.2836 73.9731 21.5155 73.8343 21.7542C73.8036 21.8049 73.8332 21.7599 73.8025 21.8026L73.7365 21.8871L73.6034 22.0582C73.5147 22.173 73.4237 22.2901 73.3327 22.4084C72.9744 22.8812 72.5968 23.3811 72.2055 23.8967C71.4196 24.9156 70.5369 25.9559 69.4643 26.7958C68.4145 27.6695 67.169 28.3349 66.11 29.2164C65.8439 29.4303 65.597 29.6679 65.3627 29.8998C65.1455 30.1374 64.9316 30.3693 64.7235 30.5956C64.5301 30.8117 64.3333 31.0167 64.1263 31.2036C63.9296 31.3983 63.7248 31.5762 63.5258 31.7462C63.0435 32.156 62.5988 32.514 62.2063 32.8304L62.4486 32.4442L62.6613 32.1042L62.8501 31.753C64.0228 29.6848 64.8964 27.5119 65.5709 25.4729C65.6983 25.5529 65.8404 25.5675 65.9235 25.4943C65.9474 25.4696 66.3784 25.0665 67.0427 24.4799C67.7024 23.89 68.5896 23.1154 69.3995 22.2687C70.2082 21.4255 70.9396 20.5 71.2808 19.7142C71.6436 18.9317 71.605 18.3767 71.5674 18.3812C71.4992 18.3755 71.4366 18.8923 71.0169 19.587C70.6188 20.2884 69.8601 21.126 69.0264 21.9017C68.1915 22.6797 67.2827 23.4036 66.5968 23.9654C66.3034 24.203 66.0531 24.4113 65.8575 24.5756C66.259 23.2786 66.5832 22.0515 66.855 20.9628C67.0723 20.2129 67.1985 19.5115 67.343 18.8968C67.4806 18.2787 67.6012 17.7405 67.7001 17.297C67.8173 16.8556 67.9094 16.5077 67.972 16.2702C68.0311 16.0315 68.0573 15.902 68.0437 15.8986C68.0311 15.8953 67.9811 16.0169 67.8969 16.2488C67.8162 16.483 67.699 16.8264 67.55 17.2632C67.4237 17.7023 67.2838 18.2393 67.1201 18.854C66.9529 19.462 66.8039 20.1589 66.5661 20.8986C66.3398 21.6394 66.1055 22.4523 65.8575 23.3113C65.7313 23.7402 65.5788 24.1703 65.4355 24.6162C65.2967 25.0631 65.1307 25.5112 64.9567 25.9672C64.2787 27.7899 63.4473 29.7107 62.3792 31.5109L62.1881 31.8532L61.9743 32.1819L61.5478 32.8394C61.4022 33.0556 61.2736 33.283 61.1133 33.489C61.0564 33.5633 61.0007 33.6377 60.9438 33.712C60.9119 33.605 60.8801 33.4823 60.8482 33.3382C60.7231 32.8056 60.6401 32.0254 60.4786 31.0673C60.3762 30.6012 60.267 30.098 60.1499 29.5666C60.0407 29.0914 59.9269 28.5961 59.8223 28.0872C59.9713 28.1074 60.1214 28.0511 60.1942 27.9341C60.2056 27.9149 60.308 27.7404 60.4786 27.4499C60.6503 27.1595 60.8733 26.7485 61.1986 26.27C61.8355 25.3131 62.6113 24.0251 63.4075 22.7506C64.0797 21.3545 64.4755 19.9416 64.645 18.8484C64.8167 17.7608 64.7599 17.0414 64.7178 17.0425C64.6541 17.0425 64.6086 17.7529 64.3515 18.7989C64.2321 19.3235 64.0387 19.9258 63.809 20.5653C63.6839 20.8817 63.561 21.2104 63.4097 21.5369C63.3381 21.7013 63.2664 21.8668 63.1823 22.0289L63.0617 22.2744L63.0014 22.3971C62.9707 22.459 62.9934 22.4174 62.9536 22.4782C62.1017 23.7155 61.2736 24.9821 60.6105 25.9098C60.2761 26.368 60.0247 26.7958 59.8382 27.0908C59.7779 27.1876 59.729 27.2664 59.6846 27.3374C59.6232 26.9534 59.572 26.5616 59.5493 26.1631C59.5209 25.5608 59.5322 24.9348 59.5288 24.3099C59.5209 21.8173 59.994 19.337 60.5468 17.5278C61.1053 15.7174 61.6501 14.5589 61.5842 14.533C61.5603 14.5228 61.4079 14.8043 61.1588 15.3076C61.0336 15.5586 60.8812 15.8637 60.739 16.2274C60.598 16.591 60.4058 16.9907 60.2625 17.4478C59.6141 19.2514 59.0465 21.7756 58.9851 24.3088C58.9715 24.937 58.9419 25.5675 58.9555 26.2047C58.976 26.842 59.0613 27.4578 59.1569 28.0466C59.2604 28.6321 59.3764 29.1939 59.4856 29.7185C59.5891 30.2432 59.6869 30.7397 59.7779 31.2002C59.9121 32.111 59.9838 32.9261 60.1078 33.5071C60.209 34.0249 60.3466 34.3571 60.3785 34.4528C60.1521 34.7489 59.9235 35.045 59.6858 35.3433C59.3628 35.7531 59.0579 36.163 58.7542 36.5615C58.1502 37.3631 57.5645 38.1264 56.9593 38.8042C56.6648 39.151 56.3497 39.4595 56.0494 39.7634C55.7389 40.0629 55.4147 40.3162 55.1235 40.609C52.7975 42.9113 51.2108 44.4808 51.1152 44.5754C50.7399 44.9469 50.551 45.368 50.6932 45.5143C50.8354 45.6607 51.2608 45.4738 51.6418 45.0966C51.7351 45.0021 53.2979 43.4236 55.5887 41.1077C55.8697 40.8172 56.2132 40.5403 56.5283 40.2284C56.8388 39.9064 57.1652 39.5799 57.4655 39.2174C58.0831 38.507 58.6701 37.7211 59.2627 36.9116C59.7609 36.2508 60.2693 35.5707 60.7834 34.8829Z" fill="#4F1900"/>
<path d="M76.6255 36.5055C76.2991 36.7194 75.8873 36.9288 75.4414 37.1438C74.9876 37.3465 74.4951 37.548 73.9878 37.7236C73.1962 38.0017 72.3829 38.2393 71.6822 38.4419C71.7528 38.3868 71.8244 38.3327 71.8927 38.2764C72.1566 38.04 72.4136 37.8193 72.6752 37.6077C73.7262 36.761 74.7419 36.0022 75.5336 35.2693C76.3321 34.5454 76.9053 33.8563 77.2306 33.3384C77.3876 33.0761 77.5047 32.869 77.5616 32.7181C77.6253 32.5706 77.6526 32.4895 77.6412 32.485C77.6094 32.4715 77.4593 32.7766 77.1032 33.2585C76.7449 33.7381 76.1535 34.3787 75.3391 35.0576C74.5315 35.7466 73.5044 36.4616 72.4136 37.2879C72.276 37.396 72.1372 37.5041 71.9973 37.6144C71.8688 37.7214 71.7391 37.8295 71.6083 37.9387C71.3444 38.1458 71.0737 38.3417 70.778 38.514C70.5095 38.6761 70.2263 38.8236 69.9363 38.961C69.8214 38.997 69.7486 39.0206 69.7384 39.024C69.702 39.0353 69.6735 39.06 69.6496 39.0904C69.3994 39.2019 69.1446 39.3077 68.8853 39.4068C67.5249 39.8887 66.1589 40.4257 64.877 40.9042C64.5562 41.0258 64.2412 41.1451 63.9318 41.2622L63.7009 41.35L63.644 41.3714C63.6144 41.3816 63.5735 41.3973 63.5405 41.421L63.412 41.4986C63.2823 41.5775 63.1538 41.6551 63.0275 41.7317C62.502 42.0222 61.9663 42.2541 61.4545 42.4804C60.946 42.6887 60.4501 42.969 60.0634 43.2066C59.6732 43.4498 59.3411 43.667 59.0647 43.8303C58.9168 43.9215 58.7849 43.9958 58.67 44.0566C58.7474 43.9102 58.8736 43.6963 59.0715 43.4284C59.4344 42.9364 60.0577 42.2969 60.8732 41.591C61.2884 41.2386 61.7365 40.858 62.2097 40.4572C62.328 40.3536 62.4486 40.2501 62.5703 40.1442L62.7511 39.9787L62.8421 39.8954C62.8524 39.8842 62.8865 39.8605 62.9047 39.8335L62.9479 39.7806C63.1515 39.5284 63.3597 39.2717 63.5712 39.0105C63.9932 38.4915 64.4288 37.9567 64.8713 37.4129C65.1022 37.1528 65.3354 36.8905 65.5697 36.6271L65.9223 36.2319L66.3067 35.8682C66.5615 35.6329 66.8243 35.3706 67.0734 35.1556C67.3668 34.9563 67.6591 34.757 67.9492 34.56C68.5327 34.1682 69.1276 33.8124 69.7008 33.4623C70.8622 32.7868 71.9109 32.1 72.8788 31.6316C73.8399 31.1531 74.635 30.7422 75.148 30.3988C75.2754 30.3121 75.3891 30.2344 75.4881 30.1669C75.5802 30.0915 75.6587 30.0284 75.7224 29.9755C75.8475 29.8708 75.9101 29.81 75.9021 29.7999C75.8941 29.7897 75.8157 29.8303 75.6769 29.9147C75.6086 29.9575 75.5245 30.0104 75.4255 30.0734C75.322 30.1309 75.2037 30.1973 75.0718 30.2716C74.5406 30.57 73.7421 30.9314 72.7571 31.3727C71.7471 31.8129 70.6767 32.4648 69.4938 33.1076C68.908 33.4431 68.2972 33.7854 67.6933 34.1682C67.3918 34.3618 67.0893 34.5577 66.7845 34.7536C66.6696 34.8257 66.6286 34.8854 66.5536 34.9462L66.3488 35.1297L65.9393 35.4978L65.531 35.8671L65.1602 36.2634C64.9145 36.528 64.67 36.7914 64.4266 37.0538C63.9705 37.5908 63.5212 38.1199 63.0855 38.6333C62.8706 38.8889 62.6579 39.14 62.4508 39.3865L62.419 39.4248L62.4019 39.4395L62.3144 39.5171L62.1392 39.6703C62.0186 39.7705 61.9003 39.8707 61.7832 39.9686C61.3009 40.3627 60.8448 40.7364 60.4217 41.0832C59.5743 41.7914 58.8975 42.4567 58.4767 43.0073C58.0547 43.5567 57.8772 43.9609 57.8647 44.0082C57.8272 44.0994 57.8033 44.1906 57.7908 44.275C57.7817 44.3583 57.7953 44.4383 57.8124 44.5047C57.8033 44.5137 57.7896 44.5193 57.7806 44.5283C57.6918 44.6184 57.635 44.7276 57.6475 44.8289C57.66 44.9303 57.7442 45.0046 57.8852 45.0395C58.0251 45.0755 58.2253 45.0732 58.4039 44.9911C58.4505 44.9753 58.8702 44.812 59.4457 44.445C59.7392 44.266 60.0702 44.042 60.4456 43.7999C60.8277 43.559 61.2224 43.3214 61.7343 43.0996C62.2313 42.8688 62.7887 42.6189 63.354 42.2935C63.4927 42.2057 63.6338 42.1167 63.776 42.0267L63.8294 41.9929L63.8556 41.976L63.8647 41.9704C63.8681 41.9681 63.8692 41.967 63.8783 41.9636L63.9352 41.9411L64.1638 41.8499C64.4698 41.7272 64.7826 41.6022 65.0999 41.475C66.3727 40.9717 67.7115 40.4133 69.0741 39.8954C69.2879 39.8087 69.5006 39.7153 69.7111 39.6185C69.7839 39.7074 69.8771 39.7558 69.9613 39.7288C69.9932 39.7187 70.5186 39.525 71.308 39.2593C72.0951 38.9891 73.1473 38.6435 74.1664 38.2145C74.6771 38.0029 75.1742 37.7597 75.6268 37.5142C76.0739 37.2553 76.4799 37.0008 76.795 36.7419C77.4365 36.2353 77.747 35.8007 77.7152 35.7748C77.6663 35.732 77.2898 36.0912 76.6255 36.5055ZM63.8567 41.9715C63.8578 41.9704 63.859 41.9704 63.8601 41.9693C63.8567 41.9715 63.8533 41.9738 63.8567 41.9715Z" fill="#4F1900"/>
<path d="M54.7185 32.8307C55.1906 32.1045 55.6 31.3525 55.9924 30.6578C56.3064 29.9238 56.6226 29.2539 56.7784 28.6425C56.8648 28.3408 56.9649 28.0695 57.0116 27.8207C57.0525 27.5718 57.0878 27.3545 57.1162 27.1755C57.1697 26.8186 57.1879 26.616 57.1617 26.6137C57.1356 26.6104 57.0662 26.8074 56.9649 27.1496C56.9172 27.3219 56.858 27.5302 56.7921 27.7689C56.7238 28.0075 56.6021 28.2676 56.4963 28.5558C56.303 29.1413 55.9526 29.7796 55.6137 30.4765C55.194 31.1419 54.7606 31.8591 54.2806 32.538C53.2672 33.8631 52.0251 35.0881 51.1982 36.134C51.197 36.1351 51.1959 36.1374 51.1948 36.1385C51.5974 34.6749 51.95 33.1201 52.2344 31.554C52.5176 29.8821 52.8327 28.2282 53.1159 26.6734C53.2546 25.8954 53.3889 25.1434 53.5151 24.4307C53.6459 23.7192 53.7164 23.0391 53.8086 22.4165C54.0099 21.1713 54.0395 20.1265 54.0804 19.3981C54.1168 18.6697 54.1259 18.2554 54.0998 18.2554C54.0736 18.2554 54.0122 18.6686 53.9257 19.3914C53.8347 20.1142 53.7585 21.1477 53.5128 22.3828C53.3991 23.0009 53.307 23.6707 53.1545 24.3789C53.0078 25.0871 52.8543 25.8335 52.6939 26.607C52.604 27.0371 52.5119 27.4784 52.4186 27.9231C52.3492 27.797 52.2742 27.6371 52.1968 27.4469C51.9819 26.9065 51.7828 26.1307 51.6736 25.3449C51.6145 24.9542 51.6122 24.5579 51.5985 24.174C51.5815 23.7957 51.5656 23.4433 51.5519 23.1393C51.5166 22.5336 51.4734 22.1317 51.42 22.1317C51.3665 22.1317 51.3096 22.5325 51.2528 23.1371C51.2289 23.4399 51.2004 23.7923 51.1697 24.1706C51.1572 24.3609 51.1436 24.5568 51.1299 24.7572C51.1174 24.9745 51.1231 25.1839 51.1311 25.3944C51.1743 26.2321 51.3221 27.0528 51.5201 27.672C51.7077 28.2924 52.0035 28.7011 52.0262 28.7247C52.0728 28.781 52.1547 28.7889 52.2435 28.7619C52.0581 29.6547 51.8727 30.5632 51.7009 31.4707C51.5428 32.2993 51.3278 33.1144 51.1481 33.9262C50.9502 34.7334 50.7113 35.5181 50.5043 36.2848C50.3223 36.8793 50.1244 37.4467 49.9368 38.0006C49.9197 38.031 49.9095 38.0513 49.906 38.0581C49.8765 38.1132 49.864 38.1695 49.8617 38.2247C49.8344 38.3046 49.8059 38.3879 49.7798 38.4667C49.5409 39.1569 49.2816 39.7863 49.0018 40.3661C48.7231 40.947 48.4479 41.4784 48.2079 41.9625C48.1476 42.083 48.0884 42.199 48.0316 42.3127C48.027 42.3307 47.9804 42.3937 47.9713 42.4523L47.944 42.5592C47.9292 42.6178 47.9144 42.6752 47.9008 42.7304C47.8439 42.9533 47.7927 43.1582 47.7404 43.3395C47.5436 44.0735 47.3389 44.4507 47.3218 44.498C47.1535 44.8391 47.0932 45.1656 47.2547 45.3018C47.406 45.4336 47.8029 45.223 48.0134 44.7974C48.0338 44.7468 48.2716 44.2784 48.4672 43.5061C48.5207 43.3136 48.5696 43.103 48.6242 42.8767C48.6526 42.7743 48.6788 42.6133 48.697 42.5998C48.7515 42.4872 48.8084 42.3712 48.8664 42.2508C49.0973 41.7711 49.368 41.2307 49.6433 40.6329C49.9345 39.9788 50.2109 39.2571 50.4736 38.4938C50.5225 38.46 50.5658 38.4195 50.5942 38.3666C50.6056 38.344 50.7068 38.1459 50.874 37.816C51.0901 37.5041 51.3472 37.0448 51.7532 36.5415C52.5142 35.5091 53.7153 34.2504 54.7185 32.8307Z" fill="#4F1900"/>
<path d="M36.6572 42.0299C36.4116 41.5728 36.1147 41.0256 35.7416 40.4278C35.3799 39.8198 34.967 39.1511 34.5132 38.4305C33.6226 36.9883 32.7945 35.2038 31.8664 33.2977C31.6287 32.8237 31.3875 32.3419 31.1441 31.8544C30.8779 31.3759 30.6334 30.8816 30.3434 30.4054C29.8031 29.4338 29.0933 28.523 28.5018 27.5862C28.1947 27.1201 27.8876 26.654 27.5805 26.1902C27.3144 25.7027 27.0493 25.2163 26.7866 24.7344C26.393 24.0691 26.0871 23.371 25.7868 22.6854C25.863 22.655 25.9324 22.6043 25.9779 22.5255C25.9949 22.5052 26.095 22.2925 26.2133 21.9367C26.3339 21.5787 26.4158 21.0732 26.4522 20.4922C26.4715 20.2006 26.4761 19.8921 26.4806 19.569C26.4829 19.5026 26.4761 19.56 26.4863 19.4925L26.5057 19.3675C26.5182 19.2842 26.5307 19.1986 26.5443 19.113C26.5671 18.9419 26.6035 18.7674 26.6137 18.5895C26.6899 17.8757 26.699 17.1282 26.707 16.3828C26.707 16.3671 26.7081 16.3491 26.7047 16.3333L26.6979 16.2838L26.6876 16.2162L26.6672 16.0822L26.6262 15.8143C26.5944 15.6364 26.5807 15.454 26.5637 15.2739C26.5295 14.9125 26.4954 14.5567 26.4636 14.2122C26.4317 13.8677 26.3748 13.5344 26.3339 13.2214C26.2634 12.9096 26.1667 12.627 26.0575 12.3748C25.8414 11.8715 25.6537 11.4482 25.5809 11.1217C25.4967 10.7997 25.4956 10.5971 25.4592 10.5982C25.4422 10.5948 25.391 10.802 25.4274 11.1499C25.4524 11.5 25.6048 11.9684 25.7731 12.4761C25.8596 12.7339 25.9267 13.0008 25.9699 13.2822C25.9881 13.5918 26.0222 13.9071 26.0336 14.2516C26.0473 14.5972 26.0609 14.9553 26.0746 15.3189C26.0825 15.5035 26.0871 15.6871 26.111 15.8796L26.1621 16.3851C26.1201 17.1192 26.0791 17.8577 25.9802 18.5321C25.9642 18.7032 25.9233 18.8665 25.8949 19.0286C25.8801 19.1097 25.8641 19.1896 25.8494 19.2684L25.8277 19.3866C25.8232 19.3911 25.7993 19.5589 25.805 19.5656C25.7879 19.8865 25.7731 20.1871 25.7458 20.4584C25.6969 21.1272 25.5491 21.6136 25.4353 21.9029C25.424 21.8781 25.4126 21.8523 25.4012 21.8275C25.1703 21.3569 25.0293 20.8604 24.8507 20.3898C24.6812 19.9158 24.5151 19.4519 24.3536 19.0005C24.2274 18.5389 24.1307 18.0806 24.0226 17.6427C23.9146 17.2036 23.8111 16.7791 23.7588 16.3626C23.6928 15.9471 23.6302 15.5497 23.5711 15.1714C23.5438 14.9789 23.504 14.8044 23.4903 14.6119C23.4858 14.4306 23.4812 14.2538 23.4778 14.0838C23.4585 13.4016 23.4414 12.806 23.4278 12.3162C23.4073 11.8242 23.3925 11.4369 23.3811 11.1724C23.3663 10.9078 23.3527 10.7671 23.339 10.7671C23.3254 10.7671 23.314 10.9078 23.3026 11.1735C23.2958 11.4392 23.2856 11.8287 23.2731 12.3241C23.2662 12.8127 23.2583 13.4061 23.2492 14.0872C23.248 14.2561 23.2458 14.4317 23.2446 14.6119C23.2458 14.622 23.2424 14.6974 23.2469 14.7143L23.256 14.7841L23.2731 14.9237C23.2844 15.0172 23.297 15.1117 23.3095 15.2086C23.3584 15.5925 23.4107 15.9967 23.4653 16.4189C23.5062 16.8433 23.6007 17.2756 23.6985 17.7215C23.7963 18.1673 23.8839 18.6334 24.001 19.1052C24.1546 19.5656 24.3127 20.0385 24.4731 20.5226C24.6437 21.0022 24.7779 21.5111 25.0008 21.9907C25.4274 22.9578 25.797 23.9914 26.3487 24.9619C26.6069 25.455 26.8674 25.9526 27.129 26.4514C27.4327 26.9287 27.7375 27.4072 28.0423 27.8868C28.0969 27.9758 28.1527 28.0602 28.2084 28.1469C27.8069 27.8823 27.3075 27.5761 26.7218 27.2597C25.7891 26.7373 24.6425 26.1981 23.446 25.6014C23.4425 25.5676 23.4425 25.5338 23.43 25.5C23.4243 25.4719 23.3208 25.2535 23.132 24.9135C22.9421 24.5735 22.6384 24.1422 22.3313 23.6289C22.1754 23.3722 22.0344 23.0918 21.9195 22.7867C21.8069 22.4636 21.6898 22.1056 21.576 21.7453C21.3417 21.0169 21.137 20.2547 20.9902 19.4474C20.7377 18.6537 20.525 17.8769 20.2156 17.1766C20.0666 16.8264 19.9495 16.4774 19.7902 16.1678C19.6333 15.8582 19.4843 15.5643 19.3478 15.2941C19.2784 15.1602 19.2124 15.0307 19.1499 14.9091C19.0805 14.7898 19.0054 14.6817 18.9394 14.5781C18.8041 14.3743 18.6858 14.1964 18.588 14.0489C18.3901 13.7585 18.2672 13.6008 18.2445 13.6144C18.2217 13.6279 18.2991 13.8136 18.4526 14.1255C18.5311 14.2809 18.6267 14.4678 18.7358 14.6839C18.7904 14.792 18.853 14.9035 18.911 15.0251C18.9633 15.1512 19.0179 15.2829 19.0748 15.4202C19.1908 15.6949 19.3159 15.9922 19.449 16.3074C19.5855 16.6204 19.6811 16.9717 19.8084 17.3218C20.0723 18.0142 20.2509 18.8181 20.4556 19.5578C20.5637 20.3504 20.7525 21.1914 20.9607 21.9254C21.0642 22.3003 21.1643 22.6482 21.2723 22.9961C21.394 23.362 21.5464 23.6874 21.7034 23.9655C21.9434 24.3956 22.1652 24.7457 22.329 25.0283C21.8831 24.7941 21.4361 24.5521 20.9982 24.2976C20.0052 23.7133 19.06 23.0513 18.3025 22.2992C17.5324 21.5584 16.966 20.7253 16.5975 19.9563C15.8604 18.4038 15.8217 17.207 15.7387 17.225C15.716 17.2272 15.716 17.52 15.7706 18.0288C15.8365 18.5355 15.9798 19.2605 16.3211 20.0768C16.6589 20.8919 17.2117 21.787 17.9829 22.5874C18.7404 23.3992 19.6958 24.1152 20.6922 24.7412C22.6964 25.9887 24.8359 26.9591 26.343 27.8486C27.8672 28.7155 28.7544 29.4766 28.8112 29.516C28.9284 29.6162 29.0683 29.6612 29.1968 29.6612C29.4152 30.0001 29.629 30.3412 29.8213 30.6981C30.0988 31.1687 30.3343 31.6618 30.589 32.1347C30.8245 32.6211 31.0577 33.1018 31.2863 33.5747C32.1814 35.4774 33.0038 37.3069 33.8956 38.7897C35.7132 41.7011 36.7027 43.7603 36.7255 43.901C36.945 44.4009 37.2862 44.7443 37.4864 44.6689C37.6866 44.5934 37.6639 44.1093 37.4341 43.5892C37.3966 43.5239 37.1736 42.9294 36.6572 42.0299Z" fill="#4F1900"/>
<path d="M39.5737 40.6657C39.4963 40.4056 39.4053 40.1422 39.3269 39.8652C39.2541 39.5871 39.179 39.3 39.1017 39.005C38.9435 38.4185 38.7945 37.7812 38.6273 37.1339C38.4692 36.5822 38.3271 36.0103 38.1371 35.4417C38.2372 35.4068 38.3066 35.3516 38.3089 35.2852C38.3077 35.2582 38.2964 34.8056 38.2793 34.1413C38.2634 33.4782 38.186 32.6079 38.1132 31.7455C37.9392 30.0173 37.5877 28.342 37.4911 28.3589C37.3773 28.3781 37.5354 30.0657 37.5695 31.7827C37.5729 32.5708 37.5889 33.3555 37.5741 33.986C37.441 33.7259 37.3147 33.4591 37.1919 33.19C36.6107 31.9133 36.092 30.542 35.1582 29.549C34.2687 28.5526 33.3758 27.689 32.6877 26.8773C31.9973 26.0689 31.4979 25.3326 31.2102 24.7742C30.9394 24.2113 30.828 23.8578 30.7927 23.8679C30.7802 23.8713 30.7961 23.9613 30.8394 24.128C30.8621 24.2113 30.8905 24.3137 30.9235 24.4353C30.9588 24.5558 30.9929 24.6988 31.068 24.8384C31.3148 25.4295 31.7846 26.2119 32.4488 27.0597C33.1097 27.9108 33.9787 28.8138 34.8226 29.8192C35.6655 30.7683 36.1318 32.0923 36.688 33.405C36.8279 33.7349 36.9712 34.0648 37.135 34.3901L37.2351 34.5984L37.3113 34.8416L37.4672 35.3347C37.6924 35.9821 37.8357 36.6554 38.004 37.2937C38.1576 37.9456 38.2907 38.5705 38.4419 39.1784C38.5147 39.4813 38.5864 39.7751 38.6558 40.0611C38.7297 40.3437 38.8173 40.6139 38.889 40.8728C39.1892 41.903 39.3871 42.7722 39.477 43.3959C39.5748 44.0207 39.5657 44.3968 39.5794 44.4384C39.5794 44.7739 39.7489 45.0498 39.9604 45.0543C40.172 45.0588 40.3483 44.7593 40.3471 44.3855C40.3335 44.3416 40.3358 43.9273 40.222 43.2664C40.1185 42.6055 39.8967 41.7026 39.5737 40.6657Z" fill="#4F1900"/>
<path d="M30.9451 43.1854C30.9394 43.1764 30.9371 43.1663 30.9303 43.1572C30.9167 43.1359 30.7733 42.9737 30.572 42.6303C30.3684 42.2915 30.1159 41.7826 29.8372 41.1589C29.6962 40.8425 29.5438 40.5014 29.3823 40.1411L29.3311 40.0341L29.2901 39.8956C29.2617 39.7999 29.2344 39.7031 29.2048 39.6052C29.1479 39.4093 29.0888 39.2089 29.0297 39.0062C28.9159 38.6032 28.776 38.1731 28.635 37.7419C28.5644 37.5268 28.4939 37.3095 28.4234 37.0911L28.2585 36.7826C28.3722 36.7624 28.4541 36.7151 28.4598 36.6487C28.4598 36.6363 28.4643 36.5248 28.4712 36.3402C28.486 36.1544 28.4723 35.9 28.4439 35.6016C28.4063 35.0015 28.2482 34.2382 28.0469 33.4997C27.8342 32.7633 27.5669 32.0518 27.3224 31.5407C27.0812 31.0273 26.8765 30.7098 26.831 30.7289C26.7775 30.7514 26.8867 31.105 27.0369 31.6386C27.1904 32.1711 27.3736 32.8906 27.5135 33.6179C27.642 34.3463 27.7387 35.0849 27.7364 35.6399C27.7387 35.7277 27.7398 35.8088 27.7409 35.8865C27.6147 35.6973 27.4896 35.5093 27.3645 35.3235C27.0937 34.9666 26.8367 34.6086 26.5694 34.2787C26.0428 33.6122 25.5457 32.9998 25.1544 32.4459C24.3582 31.3481 24.0238 30.4846 23.9567 30.5105C23.9317 30.5195 23.9988 30.7391 24.1398 31.1196C24.1762 31.2153 24.216 31.32 24.2593 31.4348C24.3116 31.5452 24.3741 31.66 24.4378 31.785C24.5709 32.0315 24.7074 32.322 24.8996 32.6057C25.2579 33.1934 25.7265 33.8408 26.2156 34.5264C26.467 34.8687 26.7002 35.2278 26.9504 35.5892C27.063 35.775 27.1768 35.9619 27.2917 36.1499L27.4623 36.4325C27.5146 36.5282 27.5578 36.6262 27.6067 36.723L27.8922 37.3039C27.9514 37.5145 28.0117 37.7239 28.0708 37.9321C28.1902 38.3476 28.3097 38.7529 28.4132 39.1785C28.4666 39.3868 28.5201 39.5928 28.5724 39.7932C28.5986 39.8934 28.6236 39.9936 28.6497 40.0915L28.6896 40.2447C28.7294 40.3561 28.7407 40.3662 28.7612 40.4158C28.842 40.6128 28.9205 40.802 28.9967 40.9866C28.9079 40.8898 28.8192 40.7918 28.7271 40.6905C28.6429 40.5948 28.5735 40.5689 28.5087 40.5149C28.4416 40.4664 28.3734 40.4169 28.3051 40.3674C27.7523 39.9756 27.1768 39.5252 26.5102 39.1334C26.1827 38.9308 25.8494 38.7135 25.5036 38.5097C25.1567 38.3104 24.8018 38.1067 24.4412 37.8995C23.9089 37.5955 23.363 37.2825 22.8022 36.974C22.8659 36.8434 22.8591 36.6599 22.7613 36.4865C22.7465 36.4539 22.5702 36.1826 22.2415 35.7671C21.915 35.3483 21.3952 34.8225 20.7457 34.2574C19.4672 33.1146 17.5416 31.8807 16.5145 29.9251C15.9605 28.9467 15.236 28.0809 14.5137 27.3288C14.3306 27.1442 14.152 26.9629 13.9757 26.785C13.8119 26.597 13.6504 26.4124 13.4946 26.2334C13.1829 25.8731 12.8917 25.5308 12.6119 25.2235C12.0557 24.6076 11.5575 24.1269 11.1697 23.8387C10.7864 23.546 10.5441 23.4142 10.5316 23.4311C10.5122 23.4559 10.7215 23.6281 11.0639 23.9513C11.4108 24.2699 11.8624 24.7731 12.3765 25.4104C12.6324 25.7346 12.9088 26.0859 13.2023 26.4574C13.3513 26.6443 13.5048 26.8368 13.6618 27.0327C13.8335 27.2208 14.0087 27.4133 14.1861 27.6092C14.8299 28.3342 15.4601 29.1471 15.9526 30.0455C15.9185 30.0388 15.8866 30.0331 15.8502 30.0264C15.7274 29.9915 15.5875 29.9521 15.435 29.9082C15.2815 29.8654 15.1154 29.8181 14.938 29.7674C14.7628 29.71 14.582 29.638 14.3886 29.5682C13.9939 29.4409 13.6072 29.2383 13.1886 29.0469L13.1727 29.0379C11.9704 28.4873 10.7261 27.6869 9.86731 26.9505C9.43053 26.5891 9.09044 26.2413 8.85613 25.9868C8.63092 25.7245 8.48533 25.5725 8.45803 25.5883C8.43073 25.604 8.524 25.7864 8.70713 26.0915C8.89935 26.3865 9.20646 26.7828 9.61707 27.1915C10.4281 28.0257 11.6417 28.9208 12.8735 29.5637L12.8485 29.5502C13.2807 29.7798 13.6925 30.0174 14.0951 30.1682C14.2942 30.2504 14.4819 30.3349 14.6639 30.4035C14.8481 30.4643 15.0222 30.5218 15.1814 30.5747C15.3406 30.6265 15.4862 30.6749 15.6148 30.7165C15.749 30.7481 15.8661 30.7751 15.964 30.7976C16.1585 30.8426 16.2745 30.8685 16.2904 30.8719C16.3325 30.882 16.3757 30.8753 16.4167 30.8606L16.4519 30.9214C16.6157 31.1601 16.7693 31.4067 16.9535 31.6229C17.3027 32.0743 17.6974 32.4706 18.0841 32.841C18.8644 33.5762 19.6356 34.1943 20.2509 34.7606C21.0164 35.435 21.5158 36.0475 21.8001 36.4381C21.1507 36.1038 20.4818 35.7874 19.7914 35.5116C18.1262 34.8338 16.353 34.4668 14.706 34.1707C13.0578 33.8712 11.528 33.5526 10.2791 33.0932C9.6512 32.8771 9.05632 32.7341 8.53651 32.5832C8.01329 32.4402 7.56401 32.2871 7.2023 32.1351C6.48003 31.8244 6.13084 31.5181 6.10468 31.5519C6.09558 31.5621 6.17861 31.6386 6.34468 31.7748C6.50506 31.919 6.77576 32.0856 7.13064 32.2702C7.48894 32.4481 7.9405 32.6271 8.45917 32.7937C8.97442 32.9671 9.56248 33.1326 10.163 33.3634C11.4108 33.8712 12.9657 34.2393 14.6024 34.5771C16.2438 34.9126 17.9624 35.3078 19.5594 35.9934C21.1654 36.6701 22.6691 37.5809 24.0943 38.4253C24.4503 38.6381 24.8018 38.8475 25.1453 39.0524C25.4854 39.2607 25.8028 39.4746 26.1201 39.6784C26.765 40.0713 27.3167 40.5171 27.8479 40.9044C27.9138 40.9539 27.9787 41.0024 28.0435 41.0496C28.1049 41.0981 28.188 41.1498 28.1982 41.1724C28.3028 41.2906 28.4041 41.4054 28.5042 41.518C28.7032 41.7432 28.892 41.956 29.0706 42.1575C29.4255 42.5617 29.7474 42.9084 29.9919 43.2203C30.0977 43.3486 30.1921 43.4646 30.2797 43.5704C30.2968 43.593 30.3115 43.6121 30.315 43.6177C30.3184 43.6211 30.3229 43.6234 30.3252 43.6267C30.6255 43.9926 30.8029 44.2099 30.8291 44.2414C31.1009 44.5736 31.4604 44.7402 31.6332 44.613C31.805 44.4869 31.7208 44.1108 31.4456 43.7742C31.416 43.7461 31.2408 43.5378 30.9451 43.1854Z" fill="#4F1900"/>
<path d="M20.6093 41.6551C19.9131 41.2149 19.0919 40.7285 18.1297 40.3232C18.0193 40.2781 17.909 40.232 17.7975 40.1869C17.6713 40.1262 17.5439 40.0631 17.4085 40.0226C17.1424 39.9269 16.8614 39.8762 16.5827 39.8458C16.461 39.8334 16.3405 39.8255 16.2199 39.821C16.2017 39.7096 16.1346 39.6128 16.0197 39.5722C15.9685 39.5553 15.021 39.2457 13.68 38.8089L13.6504 38.7988C13.2489 38.6817 12.8178 38.4982 12.3856 38.2313C11.9522 37.9679 11.5075 37.6504 11.0059 37.3746C10.7579 37.2327 10.4815 37.1257 10.2086 37.0312C9.93899 36.9479 9.66942 36.8634 9.40326 36.7801C8.87435 36.6045 8.34203 36.4739 7.83815 36.35C7.3354 36.2262 6.85996 36.108 6.43001 36.0021C5.99778 35.9019 5.61333 35.8062 5.29598 35.7105C4.65675 35.5315 4.25637 35.4358 4.24158 35.4696C4.22566 35.5034 4.59533 35.6666 5.21636 35.9109C5.52575 36.0404 5.90224 36.1676 6.32422 36.2982C6.74508 36.4311 7.21029 36.5774 7.70393 36.7328C8.19417 36.8837 8.71397 37.0402 9.22468 37.2372C9.48174 37.3306 9.74221 37.4241 10.0027 37.5187C10.2461 37.6155 10.4759 37.7134 10.6954 37.8519C11.139 38.1199 11.5689 38.4509 12.0148 38.747C12.4618 39.0476 12.9498 39.2851 13.4309 39.4405L13.3945 39.4281C13.862 39.5959 14.276 39.7456 14.6252 39.8706C14.1748 39.901 13.7301 39.928 13.2956 39.9145C12.7814 39.8897 12.24 39.812 11.7361 39.767C11.23 39.6995 10.7318 39.7062 10.2632 39.6871C10.0288 39.6803 9.80136 39.6747 9.5807 39.6679C9.36004 39.6758 9.1462 39.6837 8.94146 39.6916C8.53198 39.7096 8.15777 39.7175 7.82677 39.7434C7.49578 39.7771 7.20801 39.8075 6.97029 39.8323C6.49598 39.8863 6.22641 39.928 6.22754 39.9528C6.22868 39.9787 6.49939 39.9865 6.97256 39.9809C7.20915 39.9764 7.49578 39.9697 7.82564 39.9629C8.15436 39.9606 8.52402 39.9753 8.92781 39.9798C9.12914 39.9832 9.33956 39.9854 9.55795 39.9888C9.77406 40.0046 9.99814 40.0214 10.2279 40.0395C10.6874 40.0789 11.1731 40.0912 11.6702 40.1779C11.9193 40.2128 12.1729 40.2489 12.4288 40.286C12.5574 40.304 12.6859 40.3221 12.8156 40.3401C12.9486 40.357 13.1045 40.375 13.2444 40.384C13.8108 40.4211 14.3716 40.393 14.9141 40.3738C15.4578 40.3547 15.9901 40.3457 16.4804 40.411C16.7249 40.4448 16.9592 40.4943 17.1697 40.5765C17.2788 40.6114 17.3755 40.6643 17.4722 40.7127C17.4665 40.7116 17.6064 40.7769 17.6042 40.7746L17.6872 40.8118L17.8533 40.885C18.7325 41.2835 19.5298 41.7778 20.1907 42.2191C20.5205 42.442 20.8174 42.6582 21.0802 42.8496C21.3327 43.0511 21.5636 43.2223 21.7421 43.3754C22.0947 43.685 22.3018 43.873 22.3131 43.8989C22.4769 44.0745 22.7499 44.1128 22.9205 43.9856C23.0923 43.8584 23.0741 43.5859 22.8796 43.3776C22.8341 43.318 22.0003 42.5321 20.6093 41.6551Z" fill="#4F1900"/>
<path d="M40.8965 5.12563C42.3604 5.12563 42.3604 2.87842 40.8965 2.87842C39.4326 2.87842 39.4326 5.12563 40.8965 5.12563Z" fill="#D4D659"/>
<path d="M42.8974 4.06704C44.3613 4.06704 44.3613 1.81982 42.8974 1.81982C41.4335 1.81982 41.4324 4.06704 42.8974 4.06704Z" fill="#D4D659"/>
<path d="M46.809 4.4308C48.2728 4.4308 48.2728 2.18359 46.809 2.18359C45.3451 2.18359 45.3451 4.4308 46.809 4.4308Z" fill="#D4D659"/>
<path d="M47.744 8.80581C49.2079 8.80581 49.2079 6.55859 47.744 6.55859C46.279 6.55859 46.279 8.80581 47.744 8.80581Z" fill="#D4D659"/>
<path d="M47.5061 7.30825C48.97 7.30825 48.97 5.06104 47.5061 5.06104C46.0422 5.06104 46.0422 7.30825 47.5061 7.30825Z" fill="#D4D659"/>
<path d="M49.6002 4.30678C51.0641 4.30678 51.0641 2.05957 49.6002 2.05957C48.1352 2.05844 48.1352 4.30678 49.6002 4.30678Z" fill="#D4D659"/>
<path d="M53.0569 3.82973C54.5208 3.82973 54.5208 1.58252 53.0569 1.58252C51.593 1.58139 51.593 3.82973 53.0569 3.82973Z" fill="#D4D659"/>
<path d="M54.0805 5.72231C55.5443 5.72231 55.5443 3.4751 54.0805 3.4751C52.6154 3.4751 52.6154 5.72231 54.0805 5.72231Z" fill="#D4D659"/>
<path d="M56.0802 4.66371C57.5441 4.66371 57.5441 2.4165 56.0802 2.4165C54.6163 2.4165 54.6163 4.66371 56.0802 4.66371Z" fill="#D4D659"/>
<path d="M58.1265 8.44985C59.5904 8.44985 59.5904 6.20264 58.1265 6.20264C56.6615 6.20264 56.6615 8.44985 58.1265 8.44985Z" fill="#D4D659"/>
<path d="M58.9066 8.30824C60.3705 8.30824 60.3705 6.06104 58.9066 6.06104C57.4416 6.05991 57.4416 8.30824 58.9066 8.30824Z" fill="#D4D659"/>
<path d="M62.0675 12.0451C63.5314 12.0451 63.5314 9.79785 62.0675 9.79785C60.6036 9.79673 60.6036 12.0451 62.0675 12.0451Z" fill="#D4D659"/>
<path d="M63.1995 13.61C64.6634 13.61 64.6634 11.3628 63.1995 11.3628C61.7356 11.3628 61.7356 13.61 63.1995 13.61Z" fill="#D4D659"/>
<path d="M63.7681 14.6613C65.232 14.6613 65.232 12.4141 63.7681 12.4141C62.3031 12.4141 62.3031 14.6613 63.7681 14.6613Z" fill="#D4D659"/>
<path d="M67.8969 14.3698C69.3607 14.3698 69.3607 12.1226 67.8969 12.1226C66.433 12.1226 66.433 14.3698 67.8969 14.3698Z" fill="#D4D659"/>
<path d="M68.8058 16.0529C70.2697 16.0529 70.2697 13.8057 68.8058 13.8057C67.3419 13.8057 67.3419 16.0529 68.8058 16.0529Z" fill="#D4D659"/>
<path d="M70.703 15.8605C72.1669 15.8605 72.1669 13.6133 70.703 13.6133C69.2391 13.6133 69.2391 15.8605 70.703 15.8605Z" fill="#D4D659"/>
<path d="M73.1679 16.7194C74.6317 16.7194 74.6317 14.4722 73.1679 14.4722C71.704 14.4722 71.704 16.7194 73.1679 16.7194Z" fill="#D4D659"/>
<path d="M58.0935 16.8537C59.5574 16.8537 59.5574 14.6064 58.0935 14.6064C56.6285 14.6064 56.6285 16.8537 58.0935 16.8537Z" fill="#D4D659"/>
<path d="M55.6809 9.74477C57.1448 9.74477 57.1448 7.49756 55.6809 7.49756C54.217 7.49643 54.217 9.74477 55.6809 9.74477Z" fill="#D4D659"/>
<path d="M57.8829 6.41469C59.3468 6.41469 59.3468 4.16748 57.8829 4.16748C56.4191 4.16748 56.4191 6.41469 57.8829 6.41469Z" fill="#D4D659"/>
<path d="M58.818 10.7897C60.2819 10.7897 60.2819 8.54248 58.818 8.54248C57.3541 8.54136 57.3541 10.7897 58.818 10.7897Z" fill="#D4D659"/>
<path d="M63.6838 17.6823C65.1477 17.6823 65.1477 15.4351 63.6838 15.4351C62.22 15.4339 62.22 17.6823 63.6838 17.6823Z" fill="#D4D659"/>
<path d="M23.1754 8.82485C24.6393 8.82485 24.6393 6.57764 23.1754 6.57764C21.7104 6.57651 21.7104 8.82485 23.1754 8.82485Z" fill="#D4D659"/>
<path d="M27.1962 8.86098C28.6601 8.86098 28.6601 6.61377 27.1962 6.61377C25.7312 6.61264 25.7312 8.86098 27.1962 8.86098Z" fill="#D4D659"/>
<path d="M27.6556 10.2404C29.1195 10.2404 29.1195 7.99316 27.6556 7.99316C26.1906 7.99316 26.1906 10.2404 27.6556 10.2404Z" fill="#D4D659"/>
<path d="M28.4564 12.2511C29.9203 12.2511 29.9203 10.0039 28.4564 10.0039C26.9914 10.0039 26.9914 12.2511 28.4564 12.2511Z" fill="#D4D659"/>
<path d="M29.3049 7.47377C30.7688 7.47377 30.7688 5.22656 29.3049 5.22656C27.8399 5.22656 27.8399 7.47377 29.3049 7.47377Z" fill="#D4D659"/>
<path d="M33.2212 8.37661C34.6851 8.37661 34.6851 6.12939 33.2212 6.12939C31.7573 6.12827 31.7573 8.37661 33.2212 8.37661Z" fill="#D4D659"/>
<path d="M33.3507 10.2018C34.8146 10.2018 34.8146 7.95459 33.3507 7.95459C31.8857 7.95459 31.8857 10.2018 33.3507 10.2018Z" fill="#D4D659"/>
<path d="M34.1505 12.2125C35.6144 12.2125 35.6144 9.96533 34.1505 9.96533C32.6866 9.96533 32.6866 12.2125 34.1505 12.2125Z" fill="#D4D659"/>
<path d="M39.5988 9.59975C41.0626 9.59975 41.0626 7.35254 39.5988 7.35254C38.1349 7.35254 38.1349 9.59975 39.5988 9.59975Z" fill="#D4D659"/>
<path d="M38.2452 8.15297C39.7091 8.15297 39.7091 5.90576 38.2452 5.90576C36.7802 5.90464 36.7802 8.15297 38.2452 8.15297Z" fill="#D4D659"/>
<path d="M37.7856 6.7726C39.2495 6.7726 39.2495 4.52539 37.7856 4.52539C36.3206 4.52539 36.3206 6.7726 37.7856 6.7726Z" fill="#D4D659"/>
<path d="M39.791 6.25258C41.2549 6.25258 41.2549 4.00537 39.791 4.00537C38.326 4.00537 38.326 6.25258 39.791 6.25258Z" fill="#D4D659"/>
<path d="M41.5835 6.9269C43.0474 6.9269 43.0474 4.67969 41.5835 4.67969C40.1196 4.67856 40.1196 6.9269 41.5835 6.9269Z" fill="#D4D659"/>
<path d="M45.7909 3.07631C47.2548 3.07631 47.2548 0.829102 45.7909 0.829102C44.327 0.829102 44.327 3.07631 45.7909 3.07631Z" fill="#D4D659"/>
<path d="M36.9087 20.4923C38.3726 20.4923 38.3726 18.2451 36.9087 18.2451C35.4448 18.244 35.4448 20.4923 36.9087 20.4923Z" fill="#D4D659"/>
<path d="M19.3036 11.9152C20.7675 11.9152 20.7675 9.66797 19.3036 9.66797C17.8397 9.66797 17.8397 11.9152 19.3036 11.9152Z" fill="#D4D659"/>
<path d="M16.2756 15.5372C17.7395 15.5372 17.7395 13.29 16.2756 13.29C14.8118 13.2889 14.8118 15.5372 16.2756 15.5372Z" fill="#D4D659"/>
<path d="M14.0053 21.9054C15.4691 21.9054 15.4691 19.6582 14.0053 19.6582C12.5414 19.6571 12.5414 21.9054 14.0053 21.9054Z" fill="#D4D659"/>
<path d="M5.55311 27.0245C7.01698 27.0245 7.01698 24.7773 5.55311 24.7773C4.08923 24.7773 4.08923 27.0245 5.55311 27.0245Z" fill="#D4D659"/>
<path d="M3.91407 29.8966C5.37794 29.8966 5.37794 27.6494 3.91407 27.6494C2.44905 27.6483 2.44905 29.8966 3.91407 29.8966Z" fill="#D4D659"/>
<path d="M7.44581 30.0216C8.90969 30.0216 8.90969 27.7744 7.44581 27.7744C5.98193 27.7744 5.98193 30.0216 7.44581 30.0216Z" fill="#D4D659"/>
<path d="M3.66157 33.0172C5.12544 33.0172 5.12544 30.77 3.66157 30.77C2.19769 30.77 2.19655 33.0172 3.66157 33.0172Z" fill="#D4D659"/>
<path d="M12.6178 37.5128C14.0817 37.5128 14.0817 35.2656 12.6178 35.2656C11.1539 35.2656 11.1539 37.5128 12.6178 37.5128Z" fill="#D4D659"/>
<path d="M15.6455 26.6496C17.1094 26.6496 17.1094 24.4023 15.6455 24.4023C14.1805 24.4023 14.1805 26.6496 15.6455 26.6496Z" fill="#D4D659"/>
<path d="M34.7443 15.9562C36.2081 15.9562 36.2081 13.709 34.7443 13.709C33.2804 13.709 33.2804 15.9562 34.7443 15.9562Z" fill="#D4D659"/>
<path d="M44.1439 18.0143C45.6078 18.0143 45.6078 15.7671 44.1439 15.7671C42.6801 15.7671 42.6801 18.0143 44.1439 18.0143Z" fill="#D4D659"/>
<path d="M44.9345 18.9489C46.3983 18.9489 46.3983 16.7017 44.9345 16.7017C43.4706 16.7017 43.4706 18.9489 44.9345 18.9489Z" fill="#D4D659"/>
<path d="M47.2208 12.5988C48.6847 12.5988 48.6847 10.3516 47.2208 10.3516C45.757 10.3516 45.757 12.5988 47.2208 12.5988Z" fill="#D4D659"/>
<path d="M38.9517 12.1071C40.4155 12.1071 40.4155 9.85986 38.9517 9.85986C37.4878 9.85874 37.4878 12.1071 38.9517 12.1071Z" fill="#D4D659"/>
<path d="M51.5975 14.882C53.0614 14.882 53.0614 12.6348 51.5975 12.6348C50.1325 12.6336 50.1325 14.882 51.5975 14.882Z" fill="#D4D659"/>
<path d="M52.6929 12.6789C54.1568 12.6789 54.1568 10.4316 52.6929 10.4316C51.229 10.4305 51.229 12.6789 52.6929 12.6789Z" fill="#D4D659"/>
<path d="M54.7539 18.0797C56.2178 18.0797 56.2178 15.8325 54.7539 15.8325C53.29 15.8325 53.29 18.0797 54.7539 18.0797Z" fill="#D4D659"/>
<path d="M55.7719 19.4352C57.2357 19.4352 57.2357 17.188 55.7719 17.188C54.308 17.188 54.308 19.4352 55.7719 19.4352Z" fill="#D4D659"/>
<path d="M57.8079 22.1452C59.2717 22.1452 59.2717 19.8979 57.8079 19.8979C56.3429 19.8968 56.3429 22.1452 57.8079 22.1452Z" fill="#D4D659"/>
<path d="M69.7305 19.3507C71.1944 19.3507 71.1944 17.1035 69.7305 17.1035C68.2666 17.1035 68.2666 19.3507 69.7305 19.3507Z" fill="#D4D659"/>
<path d="M74.1959 19.1515C75.6598 19.1515 75.6598 16.9043 74.1959 16.9043C72.7309 16.9043 72.7309 19.1515 74.1959 19.1515Z" fill="#D4D659"/>
<path d="M77.7811 20.5001C79.245 20.5001 79.245 18.2529 77.7811 18.2529C76.3173 18.2518 76.3173 20.5001 77.7811 20.5001Z" fill="#D4D659"/>
<path d="M77.7971 22.1144C79.261 22.1144 79.261 19.8672 77.7971 19.8672C76.3321 19.8672 76.3321 22.1144 77.7971 22.1144Z" fill="#D4D659"/>
<path d="M76.1935 29.7267C77.6574 29.7267 77.6574 27.4795 76.1935 27.4795C74.7285 27.4795 74.7285 29.7267 76.1935 29.7267Z" fill="#D4D659"/>
<path d="M73.1803 29.9684C74.6442 29.9684 74.6442 27.7212 73.1803 27.7212C71.7153 27.7212 71.7153 29.9684 73.1803 29.9684Z" fill="#D4D659"/>
</g>
<defs>
<clipPath id="clip0">
<rect width="79.8569" height="45.8584" fill="white" transform="translate(0.650635 0.297852)"/>
</clipPath>
</defs>
</svg>
