<svg width="215" height="153" viewBox="0 0 215 153" fill="none" xmlns="http://www.w3.org/2000/svg">
<g clip-path="url(#clip0)">
<path d="M214.661 140.544C214.661 144.082 166.683 151.501 107.5 151.501C48.3173 151.501 0.338989 144.082 0.338989 140.544C0.338989 137.005 48.3173 138.686 107.5 138.686C166.683 138.686 214.661 137.005 214.661 140.544Z" fill="white"/>
<path d="M107.5 151.84C72.0497 151.84 44.7836 149.236 31.6861 147.686C22.3223 146.575 14.3686 145.33 8.68759 144.079C0 142.169 0 140.988 0 140.544C0 140.398 0.0457598 140.178 0.26439 139.961C2.61001 137.634 26.6441 137.827 63.0231 138.118C76.4325 138.225 91.6332 138.347 107.5 138.347C123.367 138.347 138.566 138.225 151.977 138.118C188.356 137.827 212.39 137.634 214.736 139.961C214.954 140.178 215 140.398 215 140.544C215 140.988 215 142.169 206.312 144.079C200.631 145.33 192.678 146.575 183.314 147.686C170.216 149.238 142.95 151.84 107.5 151.84ZM33.5352 138.629C14.9516 138.629 2.20156 138.993 0.742326 140.44C0.723683 140.459 0.677923 140.508 0.677923 140.542C0.677923 140.586 0.771138 141.642 8.83334 143.416C14.494 144.662 22.424 145.904 31.7658 147.011C44.848 148.56 72.0853 151.16 107.5 151.16C142.915 151.16 170.152 148.56 183.234 147.011C192.576 145.904 200.508 144.662 206.167 143.416C214.229 141.642 214.322 140.586 214.322 140.542C214.322 140.508 214.276 140.459 214.258 140.44C212.112 138.312 185.576 138.525 151.982 138.795C138.571 138.901 123.37 139.025 107.5 139.025C91.6298 139.025 76.4291 138.903 63.0181 138.795C52.2814 138.71 42.2651 138.629 33.5352 138.629Z" fill="#324A4A"/>
<path d="M214.661 140.45C214.661 143.732 173.379 146.438 120.162 146.813C116.01 146.843 111.784 146.857 107.5 146.857C95.5923 146.857 84.1371 146.74 73.4344 146.526C30.9506 145.677 0.338989 143.277 0.338989 140.45C0.338989 137.134 42.5058 134.405 96.5397 134.076C100.145 134.054 103.802 134.042 107.502 134.042C119.009 134.042 130.092 134.153 140.481 134.353C183.527 135.185 214.661 137.6 214.661 140.45Z" fill="#C79A24"/>
<path d="M149.485 144.259L149.462 143.516C149.597 143.513 163.213 143.082 176.911 142.381C199.596 141.22 204.538 140.244 205.509 139.783C202.328 138.164 173.421 137.573 154.3 137.573V136.83C154.422 136.83 166.661 136.834 179.08 137.132C204.333 137.739 205.719 138.94 206.175 139.335C206.373 139.506 206.445 139.74 206.368 139.957C206.175 140.501 205.773 141.633 177.457 143.096C163.581 143.813 149.624 144.254 149.485 144.259Z" fill="#324A4A"/>
<path d="M66.1331 145.021C60.5453 145.021 51.8289 144.977 43.0837 144.752C13.4788 143.994 12.3874 141.955 12.0298 141.284C11.8671 140.981 11.8925 140.642 12.1026 140.334C12.6111 139.586 14.4788 138.481 24.7917 137.517C30.815 136.954 38.9772 136.512 49.0545 136.202C66.2043 135.673 83.1863 135.713 83.3558 135.713L83.3541 136.456C83.1846 136.456 66.2128 136.415 49.0766 136.944C19.0649 137.868 13.4144 139.727 12.7179 140.752C12.645 140.859 12.667 140.901 12.6857 140.935C13.0602 141.635 16.7735 143.337 43.1041 144.01C57.6235 144.381 72.0666 144.259 72.2107 144.257L72.2175 144.999C72.1582 145.001 69.8312 145.021 66.1331 145.021Z" fill="#324A4A"/>
<path d="M140.479 134.354L120.162 146.814C116.01 146.845 111.784 146.859 107.5 146.859C95.5923 146.859 84.137 146.742 73.4343 146.528L96.538 134.078C100.143 134.056 103.8 134.044 107.5 134.044C119.008 134.044 130.09 134.153 140.479 134.354Z" fill="#324A4A"/>
<path d="M130.051 28.6999L130.715 26.5102C130.715 26.5102 132.015 23.724 132.758 23.9104C132.758 23.9104 133.129 24.2815 132.571 25.0239C132.219 25.4933 132.2 25.5815 132.385 26.3238C132.573 27.0678 131.244 29.0321 130.051 28.6999Z" fill="#FFBB7E"/>
<path d="M111.4 64.0265C110.471 64.3977 94.4991 63.8401 94.6855 63.4689C94.872 63.0978 94.872 57.8981 94.3144 56.2253C93.7568 54.5542 93.5721 47.8682 92.0857 43.2244C90.5994 38.5807 89.6706 33.5674 90.2282 28.9236C90.7858 24.2799 95.4279 21.68 95.4279 21.68C97.099 19.0802 103.785 25.5798 105.085 27.0661C106.385 28.5525 110.656 36.352 110.842 38.2095C111.029 40.067 111.029 41.3669 110.471 41.9245C109.913 42.4821 111.213 45.4531 111.029 47.8682C110.971 48.6258 111.095 50.4223 111.264 52.5442C111.268 52.6052 111.273 52.6662 111.279 52.7306C111.408 54.3441 111.562 56.1304 111.679 57.7845C111.684 57.8456 111.688 57.9066 111.693 57.9676C111.903 60.9725 111.801 63.8672 111.4 64.0265Z" fill="#FFBB7E"/>
<path d="M133.186 31.9573C131.632 33.3504 127.507 37.101 126.907 38.3026C126.165 39.789 120.035 44.2463 118.921 43.8735C115.745 42.8142 108.893 41.2736 108.893 41.2736C108.893 41.2736 108.522 30.5218 105.742 28.8338C106.07 29.0032 116.518 34.4131 117.25 35.1452C117.733 35.6282 117.981 35.9536 118.298 35.9672C118.337 35.9706 118.377 35.9672 118.42 35.9604C118.56 35.935 118.721 35.852 118.921 35.7028C118.952 35.6825 118.991 35.652 119.042 35.6181C119.24 35.4825 119.604 35.2486 120.084 34.9452C122.655 33.3165 128.244 29.9777 129.6 28.9236C130.821 27.9745 132.619 29.6201 133.347 30.7252C133.608 31.12 133.539 31.6437 133.186 31.9573Z" fill="#FFBB7E"/>
<path d="M129.787 28.9253C129.787 28.9253 132.015 26.6966 132.758 25.5832C133.5 24.4697 134.429 24.0968 136.1 25.3967C137.771 26.6966 137.957 27.2542 137.771 27.9966C137.629 28.566 134.892 31.0608 132.292 32.5471C131.934 32.7522 129.787 28.9253 129.787 28.9253Z" fill="#FFBB7E"/>
<path d="M129.136 144.908C129.136 146.021 128.022 146.021 128.022 146.021C127.651 146.579 126.723 146.208 126.723 146.208C126.536 146.95 125.236 146.579 125.236 146.579C125.05 146.95 124.307 146.95 118.55 146.392C115.066 146.055 111.923 145.853 109.985 145.748C108.663 145.676 107.685 144.257 108.058 142.586C108.38 141.135 109.544 138.129 109.544 136.829C109.544 135.529 109.08 122.435 109.08 117.977C109.08 113.52 111.866 107.02 112.051 106.834C112.149 106.736 112.508 106.22 112.686 105.62C112.827 105.144 112.856 104.615 112.551 104.195C112.513 104.144 112.471 104.095 112.422 104.046C111.493 103.117 107.036 95.3177 107.036 95.3177L119.292 92.7178C119.292 92.7178 123.192 103.304 122.079 107.019C120.964 110.734 117.993 123.362 117.064 126.519C116.135 129.677 115.393 137.662 116.322 138.962C117.25 140.262 121.336 142.305 121.336 142.305C121.336 142.305 125.98 143.976 126.723 144.162C127.465 144.352 129.136 143.794 129.136 144.908Z" fill="#FFBB7E"/>
<path d="M96.2635 130.236C95.8127 131.321 93.8484 135.993 94.0349 136.551C94.2213 137.108 103.321 139.151 103.692 139.337C104.063 139.523 103.878 139.895 103.878 139.895C103.878 139.895 104.065 140.081 104.436 140.452C104.807 140.823 104.249 141.194 104.249 141.194C104.807 142.494 102.392 142.31 101.65 142.31C100.907 142.31 86.0489 142.123 85.6778 142.123C85.3066 142.123 84.9354 141.566 84.9354 140.081C84.9354 138.584 86.9777 134.695 87.5353 133.953C88.0929 133.21 91.435 122.252 92.5502 117.423C93.5501 113.095 97.9821 108.913 99.4243 106.892C99.5921 106.658 99.7175 106.453 99.7938 106.28C99.8514 106.149 99.8955 105.971 99.9311 105.754C100.334 103.192 99.182 95.1584 99.182 95.1584L109.264 94.8483C109.264 94.8483 109.822 104.98 109.264 107.764C108.707 110.549 98.121 125.779 96.2635 130.236Z" fill="#FFBB7E"/>
<path d="M112.62 13.0906C112.712 7.89264 111.452 5.74362 110.193 3.94543C108.893 2.08792 100.721 -1.06951 97.3788 5.05892C94.0349 11.1873 97.5652 12.8584 97.0076 16.9446C96.45 21.0308 94.7349 22.1307 94.7349 22.1307C99.3329 20.8172 104.065 27.5304 104.065 26.7881C104.065 26.0457 105.551 22.5171 106.293 21.7731C107.036 21.0291 108.925 21.6155 109.636 21.402C111.141 20.9511 112.054 19.1936 112.43 16.043C112.871 16.0565 113.535 16.0176 113.535 15.6447C113.537 15.0888 112.62 13.0923 112.62 13.0906Z" fill="#FFBB7E"/>
<path d="M108.966 12.2212C108.925 12.0568 109.02 11.8907 109.181 11.8416C109.903 11.6229 111.752 11.1145 112.05 11.5602C112.422 12.1178 112.237 13.0466 112.05 13.2313C111.912 13.3703 110.334 12.994 109.535 12.7923C109.254 12.7212 109.035 12.5025 108.966 12.2212Z" fill="#324A4A"/>
<path d="M111.9 13.3382C111.639 13.3382 111.027 13.2484 109.515 12.8671C109.207 12.7891 108.966 12.5484 108.888 12.2383C108.837 12.0332 108.954 11.8265 109.156 11.7637C110.127 11.4688 111.8 11.0451 112.113 11.5146C112.513 12.1129 112.31 13.0772 112.103 13.284C112.084 13.3077 112.054 13.3382 111.9 13.3382ZM111.476 11.4587C110.988 11.4587 110.193 11.6146 109.203 11.9146C109.081 11.9519 109.01 12.0773 109.04 12.201C109.103 12.4552 109.3 12.6518 109.554 12.7162C111.208 13.1332 111.905 13.223 112 13.1721C112.14 13.0298 112.349 12.1485 111.984 11.6027C111.92 11.5061 111.744 11.4587 111.476 11.4587Z" fill="#324A4A"/>
<path d="M108.871 12.2077C108.817 12.1941 103.372 11.3027 102.3 11.8382L102.351 11.2908C103.483 10.7247 108.693 11.9738 108.915 12.0263L108.871 12.2077Z" fill="#324A4A"/>
<path d="M96.5431 17.782C96.5431 17.782 95.4279 15.9244 95.6144 14.0669C95.8008 12.2094 95.4279 11.4671 95.0568 10.1672C94.6856 8.86726 94.128 5.15224 97.4719 2.36767C100.814 -0.418594 104.158 0.881324 104.715 0.325426C105.273 -0.232165 108.058 -0.0457365 108.244 0.69659C108.431 1.43892 109.915 0.883018 111.402 1.62534C112.888 2.36767 112.515 3.48285 113.817 3.66759C115.117 3.85402 115.488 6.82502 114.003 7.75377C112.517 8.68253 111.588 7.9402 111.032 9.05369C110.474 10.1689 109.175 10.3536 108.246 10.1689C107.317 9.98244 105.646 11.6552 105.831 12.584C106.017 13.5127 106.944 16.1126 106.944 16.1126L105.458 16.6702C105.458 16.6702 103.743 12.9704 104.136 11.3841C104.529 9.79771 101.558 9.42655 100.816 10.7265C100.073 12.0264 101.744 13.3263 101.373 14.4415C101.002 15.555 98.0312 16.6702 97.4736 17.5989C96.9143 18.5243 96.5431 17.782 96.5431 17.782Z" fill="#4E3E1D"/>
<path d="M112.593 11.8381L112.249 11.8918L112.278 12.076L112.621 12.0223L112.593 11.8381Z" fill="#324A4A"/>
<path d="M110.647 42.0601L110.481 41.9771C111.695 39.5501 110.879 37.9841 110.162 36.6011C110.008 36.3062 109.864 36.0266 109.737 35.7419C109.325 34.8148 107.532 30.9506 106.28 28.9796C105.161 27.2187 104.088 26.356 104.078 26.3475L104.193 26.2018C104.204 26.2103 105.302 27.0899 106.437 28.8796C107.675 30.8286 109.4 34.525 109.908 35.6656C110.034 35.9452 110.176 36.2232 110.329 36.5147C111.066 37.9383 111.903 39.5484 110.647 42.0601Z" fill="#324A4A"/>
<path d="M110.53 54.0135C109.863 54.0135 108.941 53.8745 108.483 53.1881C107.737 52.0696 108.446 48.8325 108.476 48.6952L108.568 48.7155C108.561 48.7494 107.837 52.0526 108.561 53.1373C109.278 54.2135 111.279 53.8644 111.3 53.861L111.317 53.9525C111.283 53.9559 110.959 54.0135 110.53 54.0135Z" fill="#324A4A"/>
<path d="M109.985 60.1776C109.107 60.1776 108.205 60.0759 108.105 59.6742C107.919 58.9319 108.197 56.832 108.208 56.7422L108.3 56.7541C108.297 56.7761 108.014 58.9251 108.195 59.6505C108.339 60.2267 110.754 60.0894 111.674 59.9878L111.685 60.0793C111.522 60.0979 110.763 60.1776 109.985 60.1776Z" fill="#324A4A"/>
<path d="M109.198 48.8935C108.99 48.8935 108.788 48.8783 108.605 48.8427C107.639 48.6495 107.639 47.6987 107.639 46.3835C107.639 45.0785 109.612 43.0922 109.695 43.0074L109.761 43.0735C109.741 43.0939 107.732 45.1175 107.732 46.3835C107.732 47.6546 107.732 48.5732 108.624 48.7528C109.532 48.9342 110.991 48.5512 111.005 48.5478L111.029 48.6376C110.981 48.6495 110.046 48.8935 109.198 48.8935Z" fill="#324A4A"/>
<path d="M94.5923 63.0045C94.5923 63.0045 94.6601 63.8129 94.3144 64.9552C93.8449 66.5026 92.9213 68.6957 92.9213 70.6193C92.9213 73.9615 94.9635 76.1901 96.4499 78.6052C97.9362 81.0203 102.578 88.8199 103.507 91.235C104.436 93.6501 104.807 96.0635 104.807 96.0635C104.807 96.0635 113.257 98.3854 121.43 94.1127C121.43 94.1127 118.459 80.7407 116.415 77.2121C114.372 73.6835 111.679 69.8753 111.679 67.833C111.679 65.7908 111.679 63.7468 111.679 63.7468L94.5923 63.0045Z" fill="#405E5E"/>
<path d="M95.8923 75.4479C95.8923 75.4479 98.4057 91.2892 98.0278 93.5552C97.6566 95.7839 99.0498 95.6907 99.0498 95.6907C99.0498 95.6907 108.893 96.2483 110.38 95.8771C110.38 95.8771 108.522 84.5473 105.736 80.834C102.95 77.1207 95.8923 75.4479 95.8923 75.4479Z" fill="#405E5E"/>
<path d="M104.81 43.1787L104.805 43.0854C104.842 43.0838 108.512 42.8905 109.418 41.9838C110.315 41.0873 108.359 35.8961 108.339 35.8435L108.425 35.8113C108.507 36.0266 110.423 41.111 109.483 42.0499C108.552 42.9821 104.961 43.1719 104.81 43.1787Z" fill="#324A4A"/>
<path d="M118.643 38.9535C118.643 38.3315 118.384 36.535 118.298 35.9689C118.337 35.9723 118.377 35.9689 118.42 35.9622C118.56 35.9367 118.721 35.8537 118.921 35.7046C118.952 35.6842 118.991 35.6537 119.042 35.6198C119.123 37.296 118.643 39.6433 118.643 38.9535Z" fill="#324A4A"/>
<path d="M104.899 96.0821L104.717 96.0465C104.719 96.033 104.951 94.5924 102.734 89.5368C100.495 84.432 96.4177 78.7188 96.3754 78.6612L96.5262 78.5527C96.5669 78.6104 100.658 84.3405 102.904 89.4622C105.156 94.6008 104.91 96.0228 104.899 96.0821Z" fill="#324A4A"/>
<path d="M112.686 105.622C112.827 105.146 112.856 104.617 112.551 104.197L116.879 104.048L112.686 105.622Z" fill="#324A4A"/>
<path d="M103.229 106.742L99.4242 106.89C99.592 106.656 99.7174 106.451 99.7937 106.278C99.8513 106.148 99.8953 105.97 99.9309 105.753L103.229 106.742Z" fill="#324A4A"/>
<path d="M104.044 72.9259L103.899 72.5836C109.819 70.0719 108.998 65.7789 108.99 65.7348L109.352 65.6586C109.363 65.706 110.242 70.2973 104.044 72.9259Z" fill="#324A4A"/>
<path d="M106.865 92.3314C105.67 92.3314 105.668 94.1889 106.865 94.1889C108.059 94.1889 108.061 92.3314 106.865 92.3314Z" fill="white"/>
<path d="M110.847 87.4945C109.652 87.4945 109.651 89.352 110.847 89.352C112.042 89.352 112.044 87.4945 110.847 87.4945Z" fill="white"/>
<path d="M117.249 91.762C116.054 91.762 116.052 93.6195 117.249 93.6195C118.443 93.6195 118.445 91.762 117.249 91.762Z" fill="white"/>
<path d="M117.533 83.227C116.338 83.227 116.337 85.0845 117.533 85.0845C118.728 85.0845 118.73 83.227 117.533 83.227Z" fill="white"/>
<path d="M103.45 80.8085C102.255 80.8085 102.253 82.666 103.45 82.666C104.644 82.666 104.648 80.8085 103.45 80.8085Z" fill="white"/>
<path d="M110.847 77.1104C109.652 77.1104 109.651 78.9679 110.847 78.9679C112.042 78.9679 112.044 77.1104 110.847 77.1104Z" fill="white"/>
<path d="M98.1871 72.7005C96.9922 72.7005 96.9905 74.558 98.1871 74.558C99.3819 74.558 99.3836 72.7005 98.1871 72.7005Z" fill="white"/>
<path d="M95.9108 65.7297C94.716 65.7297 94.7143 67.5873 95.9108 67.5873C97.1056 67.5873 97.1073 65.7297 95.9108 65.7297Z" fill="white"/>
<path d="M102.882 65.1603C101.687 65.1603 101.685 67.0178 102.882 67.0178C104.077 67.0178 104.078 65.1603 102.882 65.1603Z" fill="white"/>
<path d="M111.559 72.2734C110.364 72.2734 110.363 74.1309 111.559 74.1309C112.754 74.1309 112.756 72.2734 111.559 72.2734Z" fill="white"/>
<path d="M98.8971 87.0674C97.7023 87.0674 97.7006 88.9249 98.8971 88.9249C100.092 88.9249 100.095 87.0674 98.8971 87.0674Z" fill="white"/>
<path d="M101.743 92.0467C100.548 92.0467 100.546 93.9042 101.743 93.9042C102.938 93.9042 102.939 92.0467 101.743 92.0467Z" fill="white"/>
<path d="M94.4953 64.39L94.4851 64.761L111.742 65.2358L111.752 64.8648L94.4953 64.39Z" fill="#324A4A"/>
<path d="M95.3363 63.2841H95.1499V64.2128H95.3363V63.2841Z" fill="#324A4A"/>
<path d="M97.1006 63.4689H96.9142V64.3976H97.1006V63.4689Z" fill="#324A4A"/>
<path d="M98.9582 63.4689H98.7717V64.3976H98.9582V63.4689Z" fill="#324A4A"/>
<path d="M100.629 63.4689H100.443V64.3976H100.629V63.4689Z" fill="#324A4A"/>
<path d="M102.487 63.6553H102.3V64.584H102.487V63.6553Z" fill="#324A4A"/>
<path d="M104.158 63.6553H103.971V64.584H104.158V63.6553Z" fill="#324A4A"/>
<path d="M106.015 63.6553H105.829V64.584H106.015V63.6553Z" fill="#324A4A"/>
<path d="M107.686 63.6553H107.5V64.584H107.686V63.6553Z" fill="#324A4A"/>
<path d="M109.544 63.84H109.358V64.7688H109.544V63.84Z" fill="#324A4A"/>
<path d="M111.215 63.84H111.029V64.7688H111.215V63.84Z" fill="#324A4A"/>
<path d="M68.1837 135.325L66.7703 134.432L133.315 29.6676L134.802 30.4116L68.1837 135.325Z" fill="#324A4A"/>
<path d="M136.808 31.8234L130.193 28.5847L131.273 26.6967L137.586 29.8541L136.808 31.8234Z" fill="#324A4A"/>
<path d="M58.8963 152.333C61.2165 152.57 63.5536 152.451 65.889 152.309L73.2767 136.764L72.9293 128.09C72.875 126.729 71.3378 125.963 70.2193 126.739L61.2232 132.981L50.0104 150.963C52.978 151.389 55.9117 152.028 58.8963 152.333Z" fill="#F7AC4B"/>
<path d="M101.633 42.8041C100.533 42.9566 98.9565 43.1651 98.9565 43.0397C98.9565 42.9126 100.334 42.2702 101.212 41.8737C101.207 42.1296 101.226 42.3126 101.277 42.3906C101.333 42.4702 101.456 42.6126 101.633 42.8041Z" fill="#020264"/>
<path d="M118.366 57.4337C118.366 57.0626 117.994 56.8761 117.623 57.0626C117.252 57.249 116.493 57.0761 116.493 57.0761C116.172 56.8948 115.834 56.7185 115.542 56.5643C115.75 56.488 116.106 56.4711 116.106 56.4711L116.645 55.6186L113.83 55.3898C113.83 55.3898 113.152 55.0203 112.979 55.0203C112.979 55.0203 106.293 48.5207 105.922 47.592C105.605 46.7954 102.692 43.9515 101.634 42.8058C101.458 42.6143 101.333 42.472 101.28 42.3923C101.228 42.3143 101.209 42.133 101.216 41.8754C101.241 40.3009 102.158 35.869 101.838 34.5911C101.467 33.1047 103.138 29.7626 102.395 27.9051C101.933 26.7475 99.9803 23.6342 97.0093 24.0053C94.5806 24.3104 93.2672 25.6069 92.4655 26.9831C92.1571 27.5085 91.9655 28.0932 91.8859 28.6966C91.7351 29.8711 91.4927 32.0506 91.6249 33.1047C91.8113 34.5911 92.3672 36.6333 92.1825 38.1197C91.9961 39.606 91.4402 43.6905 93.296 45.7345C95.1535 47.7767 110.01 57.8066 110.01 57.8066L110.046 57.7727C110.117 58.393 110.322 59.4183 110.939 60.0352C111.868 60.964 113.725 61.5216 114.281 61.5216C114.281 61.5216 115.767 62.0792 116.139 61.708C116.352 61.4945 116.381 61.2182 116.367 61.0233C116.415 61.0081 116.462 60.9894 116.51 60.9657C116.906 60.7674 116.984 60.3573 116.972 60.0183C117.167 59.9708 117.337 59.8675 117.438 59.6658C117.667 59.2082 117.684 58.8913 117.664 58.715C118.115 58.3574 118.366 57.6964 118.366 57.4337Z" fill="#FFBB7E"/>
<path d="M115.681 61.9165C115.138 61.9165 114.415 61.6588 114.264 61.6029C113.669 61.5927 111.808 61.0233 110.876 60.0928C110.295 59.5115 110.063 58.5895 109.971 57.8811L109.961 57.8743C109.354 57.4642 95.0736 47.8157 93.2314 45.7887C91.3857 43.7583 91.8925 39.7212 92.084 38.201L92.0959 38.1078C92.2247 37.0757 91.9857 35.7401 91.7738 34.5606C91.6806 34.0453 91.5942 33.5572 91.5383 33.1149C91.4061 32.0624 91.6467 29.888 91.8009 28.6847C91.884 28.0508 92.084 27.4627 92.3907 26.939C93.4229 25.1679 94.9313 24.1799 96.9972 23.9206C100.026 23.5426 102.014 26.7272 102.473 27.8728C102.9 28.9406 102.546 30.4947 102.234 31.8675C101.992 32.9335 101.763 33.9386 101.921 34.5707C102.122 35.3758 101.846 37.3858 101.602 39.1603C101.453 40.25 101.311 41.2788 101.3 41.877C101.294 42.2075 101.329 42.3126 101.351 42.3448C101.399 42.4143 101.512 42.5465 101.697 42.7482C101.965 43.038 102.346 43.4312 102.787 43.8854C104.11 45.2514 105.759 46.9496 106.002 47.5597C106.353 48.4359 112.603 54.5339 113.018 54.9389C113.227 54.9711 113.718 55.2321 113.855 55.3067L116.793 55.5457L116.155 56.5541L116.111 56.5558C116.11 56.5558 115.944 56.5643 115.777 56.5931L115.811 56.6117C116.04 56.7337 116.288 56.8642 116.523 56.9981C116.782 57.0541 117.32 57.1201 117.584 56.988C117.801 56.8795 118.035 56.8795 118.211 56.988C118.362 57.0812 118.45 57.2456 118.45 57.4354C118.45 57.6981 118.209 58.3675 117.752 58.7522C117.765 58.9522 117.73 59.2692 117.513 59.703C117.42 59.8895 117.267 60.0166 117.057 60.0827C117.057 60.5437 116.882 60.8741 116.547 61.0419C116.516 61.0572 116.484 61.0707 116.454 61.0826C116.457 61.2877 116.41 61.5555 116.198 61.769C116.086 61.8758 115.898 61.9165 115.681 61.9165ZM110.108 57.593L110.127 57.7625C110.191 58.3285 110.39 59.3675 110.996 59.9742C111.905 60.8826 113.723 61.4351 114.279 61.4351L114.31 61.4402C114.864 61.6487 115.835 61.8876 116.077 61.6453C116.269 61.4538 116.294 61.2029 116.282 61.0267L116.277 60.9606L116.34 60.9402C116.382 60.9267 116.427 60.908 116.471 60.886C116.762 60.7403 116.903 60.4487 116.886 60.0183L116.884 59.9488L116.952 59.9318C117.149 59.8844 117.282 59.7827 117.362 59.6234C117.577 59.1912 117.599 58.8946 117.579 58.7217L117.574 58.6743L117.611 58.6455C118.045 58.3065 118.281 57.6676 118.281 57.4337C118.281 57.3015 118.225 57.193 118.123 57.1303C117.998 57.0524 117.825 57.0557 117.66 57.1388C117.265 57.3354 116.506 57.1676 116.474 57.1591L116.45 57.1507C116.211 57.0151 115.962 56.8846 115.732 56.7608L115.335 56.549L115.513 56.4846C115.689 56.4202 115.954 56.3965 116.057 56.388L116.498 55.6914L113.788 55.4626C113.515 55.3135 113.083 55.1033 112.978 55.1033H112.944L112.918 55.0796C112.645 54.8135 106.215 48.5563 105.841 47.6208C105.61 47.0411 103.905 45.2836 102.661 44.0006C102.219 43.5447 101.838 43.1515 101.568 42.86C101.373 42.6499 101.258 42.5143 101.205 42.4363C101.144 42.3448 101.119 42.1652 101.126 41.8703C101.136 41.2635 101.278 40.228 101.429 39.1331C101.672 37.3739 101.944 35.3808 101.751 34.608C101.583 33.9369 101.817 32.9115 102.065 31.8268C102.371 30.4795 102.719 28.9524 102.312 27.9339C101.866 26.8204 99.9411 23.7206 97.0159 24.0866C95.0041 24.3392 93.5381 25.2984 92.5348 27.0221C92.2382 27.5271 92.0467 28.0932 91.9653 28.705C91.8128 29.8998 91.5739 32.059 91.7044 33.0929C91.7586 33.5318 91.8467 34.0165 91.9382 34.5301C92.1518 35.7215 92.3941 37.0706 92.2619 38.1281L92.2501 38.223C92.062 39.7212 91.562 43.704 93.3551 45.6768C95.1262 47.6258 108.993 57.0185 109.998 57.6981L110.108 57.593Z" fill="#FFBB7E"/>
<path d="M133.502 25.0255L133.315 27.0678C133.315 27.0678 132.387 28.7388 132.944 29.11C133.502 29.4812 133.873 28.5524 134.244 27.8101C134.615 27.0678 135.359 25.5814 135.173 25.0238C134.987 24.4679 133.687 23.9103 133.502 25.0255Z" fill="#FFBB7E"/>
<path d="M134.615 25.3968L134.244 27.9966C134.244 27.9966 133.315 29.6677 133.873 30.0388C134.431 30.41 134.802 29.4812 135.173 28.7389C135.544 27.9966 135.869 26.678 136.102 26.1391C136.659 24.8392 134.802 24.2816 134.615 25.3968Z" fill="#FFBB7E"/>
<path d="M135.73 26.5101L135.544 28.1812C135.544 28.1812 134.615 29.8523 135.173 30.2235C135.73 30.5946 136.101 29.6659 136.473 28.9235C136.844 28.1812 137.586 26.8813 137.401 26.3237C137.215 25.7678 135.915 25.3966 135.73 26.5101Z" fill="#FFBB7E"/>
<path d="M136.817 27.0203L136.637 28.6304C136.637 28.6304 135.742 30.2405 136.28 30.5998C136.817 30.9574 137.174 30.0625 137.532 29.3473C137.89 28.6321 138.322 27.605 138.142 27.0678C137.966 26.5305 136.996 25.9458 136.817 27.0203Z" fill="#FFBB7E"/>
</g>
<defs>
<clipPath id="clip0">
<rect width="215" height="152.467" fill="white"/>
</clipPath>
</defs>
</svg>
