<svg fill="none" height="144" viewBox="0 0 78 144" width="78" xmlns="http://www.w3.org/2000/svg" xmlns:xlink="http://www.w3.org/1999/xlink"><clipPath id="a"><path d="m.040527 0h77.4849v143.11h-77.4849z"/></clipPath><g clip-path="url(#a)"><path d="m34.9021 115.559s57.0571.545 37.5785-44.9694c0 0 17.7-34.426-13.205-47.231 0 0-19.7813-53.5008-45.5748 1.4282 0 0-23.7233 9.4402-8.64634 39.2152 0 0-19.77386 46.558 29.84764 51.557z" fill="#406150"/><path d="m46.8783 79.6941c.1644-.5197.3325-1.0393.4969-1.559.1719-.5197.3774-1.0319.5643-1.5478.3811-1.0319.7659-2.0675 1.1508-3.1032.3849-1.0356.766-2.0712 1.1471-3.1031.3587-1.0431.8333-2.0263 1.2406-3.0321.8407-2.0002 1.6702-3.9705 2.4698-5.8735.7884-1.6786 1.5582-3.2975 2.2905-4.849.1308.0486.2728.0523.4111-.015.0373-.0187.3661-.1907.9154-.4711.5493-.2841 1.3228-.658 2.1635-1.2524.4297-.2842.8893-.587 1.3788-.9085.4745-.3403.9453-.7366 1.446-1.1254.5493-.4112 1.0874-.8711 1.6254-1.3497.0523.0673.1121.1159.1794.1085.0224-.0038.2092-.0374.5231-.0898.1569-.0299.3438-.0635.5567-.1009.213-.0486.441-.1271.695-.2019 1.0239-.2617 2.2831-.8636 3.4676-1.5291 2.3465-1.402 4.4166-3.1331 4.3418-3.2714-.0971-.1794-2.3615 1.2786-4.708 2.4152-1.1845.5309-2.3877 1.0095-3.333 1.1852-.0337.0074-.0636.0149-.0972.0224 1.8758-1.7721 3.4787-3.7873 4.4764-5.4435 1.0575-1.7273 1.5096-2.9985 1.4498-3.0284-.0934-.0486-.6913 1.1328-1.8459 2.7293-1.1396 1.6039-2.8958 3.5779-4.8911 5.2603-1.0276.8225-2.0252 1.7011-3.0378 2.3965-.5007.3589-.9715.7253-1.4386 1.0394-.4783.2916-.9304.572-1.3526.83-.8258.5496-1.5769.8823-2.1075 1.1365-.0186.0075-.0298.015-.0485.0225.609-1.3048 1.1845-2.5498 1.7038-3.7313.6876-1.4992 1.263-2.9012 1.689-4.1611.4035-1.2674.6501-2.4003.7398-3.3349.0299-.4674.056-.8824.0785-1.245-.0225-.3589-.0561-.6655-.0822-.9123-.0524-.4897-.1009-.744-.1458-.7402-.0448.0037-.0822.2692-.1158.7514-.0112.2393-.0261.5347-.0448.8824-.0561.3439-.1233.7402-.1943 1.1851-.1682.8824-.4783 1.9404-.9379 3.1368-.4858 1.1927-1.106 2.5162-1.8646 3.978-.3699.7328-.7547 1.4955-1.1508 2.2843-.411.7926-.8333 1.6077-1.2704 2.4489-.8707 1.6861-1.7861 3.462-2.7352 5.3015-.8669 1.8917-1.7599 3.8471-2.6679 5.8398-.4372 1.002-.9453 1.9852-1.3377 3.0246-.3736.9384-.751 1.8806-1.1284 2.8227-.0934-1.3235-.2392-3.3798-.4185-5.8996-.0374-.5459-.0785-1.1104-.1233-1.6937-.0449-.5832-.0337-1.1851-.0561-1.802-.0149-.6169-.0261-1.2525-.0411-1.8993-.0074-.6468.0411-1.3085.0598-1.9815.0262-.673.0523-1.3571.0822-2.0488.0523-.5832.1046-1.1777.1607-1.7684.1719-.015.3475-.101.4783-.2542.0635-.0785 1.1172-1.3609 2.6641-3.2452.3849-.4711.8034-.9796 1.2406-1.5179.4334-.5496.9416-1.1291 1.3825-1.761.8669-1.301 1.5992-2.7629 2.3465-4.1873.8034-1.3572 1.6292-2.8152 2.1859-4.221.5755-1.4132 1.0276-2.7554 1.3527-3.9256.34-1.1628.5642-2.1498.7099-2.8414.142-.6917.2055-1.0917.1644-1.103-.0934-.0299-.5455 1.518-1.3377 3.7799-.3923 1.1328-.9042 2.4301-1.5245 3.7761-.3213.6692-.6576 1.3534-1.05 2.0189-.183.3439-.3848.6729-.6053.9944l-.3176.4898-.1607.2468c-.0635.0972-.0822.1346-.1046.1757l-.0747.1308c-.8071 1.417-1.5731 2.819-2.4138 4.0042-.4372.587-.908 1.0842-1.3452 1.6114-.4558.5271-.8855 1.0244-1.2891 1.488-.9042 1.0505-1.6366 1.8992-2.1224 2.46.1084-.901.2392-1.802.3588-2.7068.0822-.7141.2129-1.417.3512-2.1161.0672-.3664.1345-.729.2055-1.0917.0187-.0486.0262-.0897.0224-.1308.0523-.2879.1084-.5795.1607-.8674.3774-1.3572.7025-2.7068 1.1172-3.9855.4148-1.2786.8034-2.5161 1.1995-3.6826.3998-1.1665.7248-2.2843 1.1844-3.2527.2093-.4935.4185-.9608.5979-1.4169.1644-.4599.3213-.8936.4671-1.3048.3138-.8151.4969-1.5366.624-2.1498.2466-1.2225.4932-1.9478.4484-1.9665-.0337-.0262-.37.6916-.695 1.8955-.1682.6094-.3774 1.2786-.7287 2.0787-.1606.3963-.3325.8188-.5156 1.2637-.1906.4411-.4185.8973-.6427 1.3758-.1121.2393-.2279.4823-.3438.7328l-.0896.1869-.0636.1421-.0411.1159c-.0485.1346-.0971.2692-.1494.4038-.1981.5421-.4073 1.1029-.6203 1.6787-.4297 1.1477-.8519 2.389-1.3041 3.6639-.4409 1.2562-.7996 2.6021-1.2069 3.9481-.0896-.1907-.1868-.4038-.2839-.6431-.2242-.5272-.4484-1.1627-.6614-1.8544-.1009-.344-.2093-.7066-.2989-1.073-.0486-.1982-.0785-.3402-.1495-.587l-.1681-.5533c-.441-1.4843-.7324-3.0134-.7623-4.1986-.0411-1.1851.1906-2.0002.0897-2.0376-.0561-.0373-.4671.7553-.5792 2.0152-.127 1.2525.0411 2.89.3849 4.4565l.1345.587c.0112.0523.0261.1084.0187.086l.0261.1495.0523.2991c.0673.3963.1532.7777.2392 1.1516.1793.7402.3774 1.4244.5829 2.0039.3998 1.1665.8519 1.9329.8893 1.9815.0224.0374.056.0561.0934.0748-.0224.1121-.0448.2206-.071.3327-.1532.7141-.3027 1.4319-.3998 2.146-.2205 1.432-.4746 2.8602-.5979 4.2921-.0784.7141-.1532 1.4207-.2279 2.1198-.0411.7029-.0785 1.3983-.1196 2.0825-.0299.6841-.0896 1.3571-.0934 2.0189.0038.6617.0075 1.3085.0112 1.9403.0112.6281-.0112 1.2488.0262 1.8395.0336.5907.0672 1.159.0971 1.7086.2504 4.3705.4223 7.3503.4335 7.526.0149.2841.0785.5383.1681.7477-.1233.3066-.2466.6169-.3699.9235-.2018.5196-.4222 1.0281-.6091 1.5515-.183.5272-.3624 1.0506-.5418 1.5703-.7211 2.0899-1.4311 4.1462-2.1186 6.1427-.6427 2.0151-1.1209 4.0265-1.5731 5.937-.1831.9795-.396 1.9142-.5343 2.8526-.0187.1645-.0411.3253-.0598.4861-.0523-.4225-.0897-.8487-.1345-1.2749-.2018-1.8357-.34-3.7686-.5007-5.6791-.2055-3.8359-.2802-7.7653-.4559-11.6984-.056-1.9553-.1083-3.9107-.1644-5.8548-.0261-.9721-.0523-1.9441-.0784-2.9124-.0038-.9721-.0075-1.9404-.0112-2.9013-.0038-3.8546-.0374-7.6493-.086-11.3207-.0149-.916-.0075-1.8283-.0448-2.7293-.0449-.901-.0897-1.7908-.1383-2.6732-.0598-1.1552-.1195-2.2843-.1756-3.4059.1233-.1271.2279-.2879.2765-.4898.015-.0598.1383-.5758.3438-1.4394.1046-.4299.2279-.9496.3699-1.5403.1719-.5833.3662-1.2375.5754-1.9479.6988-2.5049 1.8085-5.6193 2.8697-8.8906.0635.0224.127.0299.1794 0 .0224-.0112.2017-.1271.5044-.3178.2728-.2281.6913-.501 1.106-.916.8632-.7926 1.8347-1.974 2.6455-3.2414.7884-1.2787 1.5656-2.5386 1.999-3.5817.1121-.2542.1831-.501.2541-.7141.0486-.2206.0897-.4075.1159-.5608.0112-.3141 0-.4823-.0411-.486-.0449-.0038-.1159.1532-.2018.415-.0598.1346-.1308.2953-.2167.4822-.1047.1832-.1981.3964-.3401.6169-.2578.4524-.6165.9646-1.0088 1.5217-.4036.5571-.8295 1.1665-1.2592 1.7347-.8669 1.1478-1.8422 2.1909-2.6567 2.8564-.1906.172-.3737.3066-.5418.4262.4371-1.8319.553-3.6789.6725-5.3949.1196-1.8245.3027-3.5294.3139-4.9912.0224-1.4618-.0523-2.6732-.2018-3.4994-.1382-.8263-.2877-1.2749-.3213-1.2674-.1046.0224.2653 1.8656.0299 4.7444-.0859 1.4394-.3363 3.1031-.5269 4.95-.1905 1.8208-.3774 3.7462-.9042 5.5445-.2803.8749-.6352 1.8021-.964 2.7106-.3289.9085-.6539 1.8058-.9715 2.6731-.6203 1.7423-1.2032 3.3761-1.6404 4.8155-.2279.7178-.4372 1.3758-.624 1.9628-.0411.1533-.0747.2879-.1121.4299-.3251-2.7255-.7735-5.3014-1.3414-7.6606-.6352-2.8376-1.334-5.4061-1.9131-7.6979-.071-.2767-.1345-.5347-.2018-.8038.1532-.0487.2802-.1533.3325-.3104.0113-.0373.1084-.3664.2728-.9122.0785-.2729.1756-.6019.284-.9721.0785-.3776.1644-.8.2616-1.2599.2092-.916.3661-1.9853.5343-3.1218.0934-.5683.1532-1.159.2354-1.7535.0747-.5982.1644-1.2001.1756-1.817.142-2.4376.0598-4.87524-.284-6.6399-.3363-1.77215-.9042-2.80029-.9565-2.77038-.1047.04861.2952 1.11413.4708 2.84889.1868 1.72728.1345 4.10509-.1196 6.47539-.0374.587-.1532 1.1777-.2503 1.7572-.1047.5833-.1869 1.1553-.299 1.7123-.2092 1.1104-.3998 2.1535-.6314 3.0247-.1047.4411-.2018.8449-.2915 1.2038-.0747.2281-.142.43-.2018.6206-.2914-1.1851-.5455-2.2768-.7435-3.2452-.3886-1.6562-.5867-2.9909-.7623-3.8919-.1681-.9011-.2802-1.3834-.3251-1.3759-.0448.0075-.0187.4973.0673 1.417.0896.9197.2055 2.2769.5156 3.963.1981 1.3048.5007 2.804.852 4.479 0 .0149.0074.0261.0074.0374.1046.4972.213 1.0057.3251 1.5328.355 1.6376.7735 3.4247 1.1808 5.3277-.1196-.0449-.3139-.1272-.6016-.2842-.4521-.2505-1.0836-.6767-1.8309-1.2263-.7772-.5645-1.6105-1.1627-2.44-1.9478-.2093-.1944-.4222-.3926-.6352-.5945-.2055-.2131-.411-.4262-.6203-.6468-.4222-.4262-.8258-.8973-1.2368-1.3609-.8258-.9272-1.7076-1.7871-2.3764-2.7255-.3737-.4411-.6203-.9459-.908-1.3982-.1981-.4823-.3587-.9833-.5157-1.4245-.5978-1.802-1.2218-2.8638-1.2891-2.8227-.0859.0523.3699 1.1515.8183 2.9835.0635.228.1271.471.1943.7178.0337.1234.071.2505.1047.3814.0448.1308.0448.243.1494.4561.269.4972.5119 1.0618.8706 1.5478.6577 1.0431 1.5059 1.9553 2.2793 2.9124.3924.4861.7698.9758 1.192 1.4394.2055.2318.411.4674.6128.6954.2167.2169.426.4337.6352.6468.4035.4337.8631.8113 1.2779 1.1815.2018.1906.426.3551.6128.4972.1943.1533.3849.3028.568.4449.7361.587 1.3937 1.0655 1.9093 1.3758.5119.3141.9043.4487.9491.4636.1868.0711.3924.0262.5381-.0859.0822.3925.1644.7776.2429 1.1814.6053 2.8264 1.035 5.8997 1.2891 9.1673.0523 1.6637.1046 3.3723.1569 5.122.0262.8748.056 1.7572.0859 2.6507.0187.8936-.0074 1.8021-.0074 2.7143-.0187 3.492-.0486 7.1073-.1009 10.8011-.3625-.5346-.7996-1.2487-1.3751-2.0899-.3736-.4935-.7211-.9982-1.0873-1.5366-.1158-.157-.2205-.3365-.3251-.5047.0972-.0823.1569-.187.1532-.2991-.0075-.0599-.1046-1.0506-.2466-2.5087-.0598-.729-.1906-1.5665-.3251-2.4563-.1457-.8936-.2503-1.8395-.4596-2.7816-.0971-.4711-.1868-.9422-.2877-1.3983-.1233-.4524-.2466-.8973-.3624-1.3272-.228-.8599-.5119-1.6338-.7287-2.3068-.4596-1.3347-.8033-2.2133-.8855-2.1871-.086.0261.0971.9533.411 2.3329.142.6879.3587 1.4843.5156 2.3442.086.4299.1719.8711.2616 1.3197.0635.4562.1308.916.1943 1.3796.1495.916.2018 1.8768.2989 2.7554.0897.8861.1794 1.7161.2055 2.4377.0112.1944.0225.3813.0337.557-.1906-.3589-.3774-.7253-.5568-1.1066-.1644-.344-.3325-.6917-.4969-1.0431-.1383-.3066-.2766-.7141-.4185-1.0693-1.1285-2.9199-2.156-5.8585-2.7053-8.1504-.5642-2.2843-.6763-3.8845-.7884-3.877-.0449.0038-.0523.4038-.0299 1.1067.0037.3551.0299.7814.1009 1.2636.0635.4823.1121 1.0357.2354 1.6226.4073 2.3629 1.3227 5.4099 2.3465 8.371l.1906.5571c.071.1906.1046.3514.2167.5981.157.359.3139.7179.4708 1.0768.3102.7141.6577 1.4057.9865 2.075.3736.6505.6838 1.3085 1.0761 1.8805.3737.587.7324 1.1441 1.0574 1.5927.6166.9497 1.1098 1.8395 1.532 2.4489.4111.6168.7324.9571.7548 1.0019.0075.0075.015.0113.0224.0187-.0037.4412-.0112.8786-.0149 1.3235.0112.9758.0224 1.9591.0336 2.9386.0262 1.9629.0523 3.9369.0785 5.9109.1158 3.8883.1345 7.8251.2914 11.7321.1121 1.5926.2168 3.1517.3475 4.7406-.3811-.7739-.7734-1.5665-1.177-2.3815-.4259-.9497-1.0275-1.8731-1.5917-2.8265-.2878-.4748-.5755-.9571-.8669-1.4431-.299-.4786-.6315-.931-.9491-1.402-.7137-1.0693-1.476-2.1273-2.2532-3.1817.1121-.2766.1682-.6617.142-1.0879-.0074-.101-.071-.9945-.1793-2.4788-.0561-.7402-.1233-1.63-.1981-2.6432-.1233-1.0095-.2653-2.1386-.4147-3.3686-.0747-.6132-.157-1.2525-.2354-1.9105-.0822-.658-.1532-1.3422-.3064-2.0264-.2765-1.3758-.5343-2.8301-.8594-4.3219-.1719-.744-.3438-1.4992-.5194-2.2619-.0897-.3813-.1756-.7664-.2653-1.1515s-.1681-.7739-.3101-1.1515c-.4858-1.5366-1.0986-3.0284-1.7189-4.4977-.6912-1.7123-1.4124-3.4097-2.1373-5.0622.1159-.1383.1831-.329.1719-.5346-.0149-.101-.0897-1.7684-.3176-4.2135-.1121-1.2226-.2317-2.6358-.4372-4.1425-.1008-.7515-.1793-1.5291-.3026-2.3143-.1345-.7814-.2765-1.574-.4148-2.3628-.1308-.7926-.2914-1.5778-.4484-2.3517-.1905-.7664-.3512-1.5253-.5866-2.2357-.1121-.3552-.2205-.7066-.3251-1.0506-.1233-.3365-.2466-.6655-.3624-.9833-.2504-.6243-.4073-1.2562-.5904-1.8207-.3438-1.1366-.7249-2.0451-1.0873-2.6059-.3513-.5683-.6353-.8113-.6577-.7926-.0486.0411.1682.3365.4335.9272.2765.5833.5679 1.4693.8332 2.6171.1495.5795.2616 1.1964.497 1.8993.1009.3178.2018.643.3064.9758.0897.3402.1793.6879.269 1.0393.198.7029.3213 1.4544.4783 2.2059.1233.7664.2503 1.544.355 2.3329.1083.7851.2204 1.574.3288 2.3516.0971.7777.1532 1.5516.2279 2.2956.1607 1.4917.2391 2.8975.3176 4.1126.0486.744.086 1.4057.1158 1.9852-1.3937-3.0395-2.7762-5.8398-4.0168-8.1466-1.0761-2.1161-2.0737-3.8135-2.7575-5.0136-.6876-1.1926-1.0986-1.8656-1.1359-1.8432-.0374.0225.2951.7403.9117 1.9778.609 1.2412 1.5357 2.976 2.5408 5.1258.5082 1.0692 1.0836 2.217 1.6553 3.4508.5605 1.2412 1.1472 2.5498 1.7599 3.9032.3924.8561.7623 1.7534 1.136 2.6582.0037.0449.0037.0822.0074.0935.0112.2205.1084.4037.2504.5271.1308.3141.2578.6244.3923.9422.2952.7253.6165 1.4356.8931 2.1871.2839.7477.5642 1.503.8668 2.2395.5979 1.488 1.1696 2.9573 1.6068 4.4266.1307.3589.2017.7477.2839 1.1291.0822.3813.1644.7627.2429 1.1403.0448.2094.0897.415.1345.6243-.5754-.6019-1.375-1.3608-2.4063-2.131-1.0799-.8375-2.3765-1.7049-3.7142-2.6694-.1345-.0972-.2727-.2057-.411-.3066.1532-.0636.2541-.1533.2466-.2542-.0037-.0187-.0299-.2019-.071-.5048-.0224-.1495-.0485-.3327-.0822-.5346-.0485-.1981-.1008-.4225-.1569-.6692-.213-.9796-.6502-2.1984-1.1471-3.3686-1.0164-2.3292-2.3092-4.4453-2.4549-4.3705-.1682.086.8407 2.3591 1.6142 4.7032.3736 1.174.7062 2.3629.8407 3.2789.0411.2281.0747.4374.1083.6244.0075.0934.015.1831.0225.2617-.8333-.673-1.6441-1.4058-2.3354-2.2507-1.0275-1.4432-2.1149-2.8489-2.9108-4.3369-.8967-1.4207-1.5581-2.8527-2.1672-4.0528-.3176-.5982-.5679-1.1627-.7846-1.6674-.228-.501-.4223-.9384-.5867-1.2974-.3325-.7178-.5418-1.1216-.5829-1.1029s.086.4524.3438 1.2076c.1308.3776.2914.83.4783 1.3534.1831.5234.3998 1.1104.6838 1.731.5492 1.2488 1.1508 2.7293 2.0027 4.2136.4223.744.7773 1.559 1.3078 2.288.5007.7478 1.0089 1.5105 1.5171 2.2694 1.1471 1.4993 2.567 2.662 3.8972 3.6864 1.334 1.0207 2.5969 1.9142 3.6207 2.7517 2.0813 1.6413 3.0939 3.1031 3.1574 3.1816.1158.1682.2803.2841.4521.329.2317 1.2151.4372 2.4077.6465 3.5406.142.6804.2055 1.3571.2765 2.0114.071.6542.142 1.2824.2092 1.8918.1345 1.215.2578 2.3329.3699 3.3311.0636 1.0057.1196 1.8881.1644 2.6209.0524.8412.0935 1.4805.1196 1.903-.2242-.2991-.4484-.5945-.6726-.8936-.7136-.9309-1.4348-1.8656-2.156-2.804-.3774-.4711-.7473-.9571-1.1321-1.417l-1.1621-1.3496c-.3662-.4524-.766-.8861-1.1023-1.3535-.3288-.4785-.6614-.9159-.9902-1.4244-.3288-.501-.6539-1.002-.979-1.503-.325-.4972-.6389-1.0057-1.0088-1.4655-1.4423-1.8881-2.78-3.6976-4.0131-5.5557-.6128-.931-1.2031-1.8507-1.8085-2.7405-.2989-.4449-.5941-.8861-.8893-1.3235-.1457-.2168-.2914-.4337-.4371-.6468-.157-.2056-.3139-.4112-.4709-.6131-.6202-.8076-1.2255-1.5927-1.8084-2.3517-.2915-.3776-.5792-.7515-.8595-1.1178-.254-.3851-.4857-.7777-.7248-1.159-.2467-.3739-.44843-.7627-.63899-1.1478-.19431-.3851-.39608-.7515-.56796-1.1254-.31761-.7552-.66511-1.4581-.91546-2.1497-.5418-1.3647-.96029-2.5797-1.31153-3.5705-.695-1.9927-1.1247-3.1031-1.2069-3.0769-.08221.0336.18309 1.1926.72115 3.2452.27651 1.0244.61653 2.2731 1.09481 3.6901.21298.714.53433 1.458.82578 2.2469.16067.3926.35124.7851.53433 1.1927.18309.4075.37365.8225.61653 1.23.23166.4075.45959.83.71364 1.2525.284.4.5717.8113.8669 1.2262.5456.7665 1.1098 1.5628 1.6889 2.3779.142.2018.2878.4037.4335.6094.1345.2168.2728.4337.4073.6542.2727.4412.553.8861.8332 1.3348.5642.9159 1.1359 1.8506 1.7226 2.804.5605.9608 1.2517 1.9254 1.9019 2.9087l.4969.7365.4933.6917c.3288.4598.6613.9234.9939 1.387.3475.4524.6352.9534.9416 1.4469.3027.4935.6053.987.9117 1.4805.2989.4898.695 1.0618 1.0425 1.5852.269.3889.553.7366.8333 1.0917-.3774-.1233-.8034-.2804-1.2742-.4748-.2242-.0897-.4559-.1869-.6913-.2841l-.1008-.0411-.1308-.0449-.1869-.0636c-.127-.0411-.254-.086-.3811-.1271-.5156-.172-1.0612-.3552-1.6216-.5458-1.121-.4001-2.3466-.83-3.5124-1.2824-2.3615-.8786-4.5399-2.2208-6.05696-3.4022-.75852-.5907-1.34516-1.1628-1.68892-1.6451-.1943-.2243-.29519-.4449-.38487-.5869-.08594-.1421-.14199-.2169-.16441-.2094s-.00373.0972.04484.2655c.05231.1645.12331.4224.29145.6804.29145.5645.85194 1.2225 1.5843 1.8955 1.44607 1.3347 3.62447 2.8489 6.02337 3.877 1.2069.5347 2.3502.9871 3.4787 1.4432.5679.2168 1.121.4262 1.6441.6243.1308.0487.2615.0973.3886.1459l.1905.071.0486.0187.0224.0075c-.0187-.0075-.0224-.0075-.0224-.0075l.0747.0336c.2392.1085.4708.2131.695.3141 1.5133.7029 2.7501 1.0019 3.1537 1.0767l.0112.0112c.3624.4524.6913.9085 1.0388 1.3609.7024.9571 1.4012 1.9142 2.0962 2.8639 1.3675 1.903 2.7164 3.7574 3.9009 5.6192.299.4636.6166.916.8931 1.3796.269.4674.5343.9272.7959 1.3871.5193.9197 1.0649 1.7796 1.4796 2.7517.4409.9384.8744 1.8543 1.2891 2.7404.2093.4412.4148.8786.6166 1.3086.1009.2131.2017.4262.2989.6355l.0374.0786c.0037.0074.0299.0074.0336.0149-.0075-.0224.0075-.0561.0187-.0262l.0112.0337c.0037.0075-.0224.0112-.0224.0112l.0112.0636.1345.3776c.3736.9197.6726 1.6637.9566 2.4301.2391.7665.5044 1.4838.6613 2.1948.1831.703.3587 1.357.4559 1.993.1083.628.2354 1.2.3064 1.734.1158 1.002.2055 1.806.2765 2.404.0075.097.0149.187.0224.277.0112.232.0187.43.0262.576-.2354-.191-.4821-.374-.7324-.55-.3774-.243-.766-.505-1.1658-.778-.8034-.545-1.6703-1.136-2.5857-1.76-.3027-.21-.624-.412-.9491-.61-.0112-.078-.0299-.161-.056-.243-.0225-.063-.2467-.669-.6988-1.6-.4484-.935-1.1508-2.18-2.0252-3.5929-.2167-.3552-.4409-.7216-.6763-1.0992-.2242-.3813-.4708-.7702-.7585-1.1553-.5493-.7701-1.1247-1.5777-1.7151-2.4077-.4783-.6617-.9603-1.3459-1.4311-2.0525.0934-.0673.1495-.1533.142-.243-.0224-.0412-.0673-.8898-.34-2.0376-.2242-1.1628-.6577-2.6545-1.1397-4.1014-.2354-.7103-.4708-1.4506-.766-2.1049-.1719-.314-.3064-.6542-.5418-.8786-.213-.243-.4521-.4262-.6763-.5832-.4559-.2954-.8706-.4935-1.1434-.6991-.2765-.1907-.4372-.3253-.4708-.2916-.0299.0224.0635.2205.3027.4935.2354.2841.6389.5795 1.0088.9085.1794.1682.3587.3514.5119.5757l.1159.172c.0224.0374.0224.0224.0336.0598l.0374.101c.056.142.1121.2841.1719.4299.2092.6244.3773 1.331.5642 2.0937.3662 1.4656.695 2.9162.8482 4.049.0074.0449.0149.0823.0187.1271-.2952-.3851-.6128-.7589-.9566-1.1066-2.7053-2.8788-5.8739-4.9538-8.1532-6.5839-2.3017-1.6114-3.7515-2.7891-3.8112-2.7105-.0262.0336.3026.3664.9117.9272.6016.5645 1.5843 1.2375 2.6903 2.1161 2.2046 1.7609 5.2461 3.9929 7.8729 6.7334l.0374.0411c.6576.6879 1.1434 1.5927 1.6814 2.5199.5493.9047 1.1135 1.8207 1.6889 2.6656.5605.83 1.0911 1.6526 1.6105 2.419.127.1907.2466.3888.3699.572.1159.1982.2242.4.3363.5907.2242.3851.4409.759.6502 1.1142.8407 1.4246 1.4946 2.6396 1.8981 3.5326.0262.056.0486.113.0748.165-.071-.045-.142-.086-.213-.131-2.0439-1.234-4.2148-2.55-6.382-3.8583-1.0799-.658-2.1299-1.3534-3.1836-2.0151-1.0201-.7066-2.0364-1.3871-2.993-2.0825-.9266-.7328-1.8682-1.3945-2.6903-2.1086-.8108-.7253-1.6142-1.3796-2.3017-2.0451-.6763-.6841-1.2929-1.3123-1.8421-1.8656-.5568-.5533-.9528-1.1141-1.3377-1.5328-.7398-.8599-1.1994-1.3348-1.2704-1.2824-.071.0523.2428.6318.8631 1.6114.3213.4785.6651 1.1066 1.1695 1.7272.5082.6207 1.0836 1.3161 1.7077 2.0788.6426.729 1.4012 1.4468 2.1746 2.2394-.0934-.0336-.1831-.0673-.284-.1047-.2055-.071-.4222-.1495-.6426-.228-.1084-.0411-.2317-.071-.3513-.1084-.0971-.0262-.198-.0561-.2989-.086-.4708-.1608-.9678-.329-1.4797-.5047-.5081-.1945-1.0499-.2991-1.588-.445-.5455-.1458-1.0911-.2729-1.6291-.3813-2.16725-.4561-4.15136-1.559-5.47036-2.6208-1.32274-1.0693-1.99906-2.0526-2.09621-1.9815-.03737.0261.10462.2878.3886.729.13452.2243.31387.486.56048.7552.23914.2692.48576.6057.82205.8898 1.26669 1.2301 3.29937 2.5349 5.54504 3.1368l.8295.2281c.2616.0822.5231.1607.781.243.5119.1682 1.0387.2953 1.5058.4972.4783.187.9379.3664 1.3788.5384.2429.086.4783.1682.7099.2468.2055.0822.4073.1607.6016.2392.7809.3216 1.4647.6169 1.9879.7739.5231.1608.8519.2356.893.2393.0448.0075.0859-.0037.127-.0112.1233.1084.2466.2131.3662.3215.9342.7739 1.9355 1.5217 2.9407 2.2993 1.0313.7253 2.07 1.4917 3.1275 2.2057.9603.654 1.9355 1.305 2.8995 1.944-.7361.116-1.8981.329-3.2956.677-1.1807.28-2.5296.602-3.9794.837-1.4498.221-2.9893.288-4.4839-.097-1.4909-.366-2.8771-1.133-4.0093-2.075-.284-.235-.5418-.493-.8071-.733-.2504-.261-.4932-.515-.7286-.762-.4708-.501-.9192-.9723-1.33025-1.4097-.40355-.4449-.81083-.8113-1.15833-1.144-.17936-.1645-.33629-.329-.49696-.4562-.16815-.1233-.32135-.2355-.4596-.3364-.55675-.4001-.87809-.6095-.90425-.5721-.06725.1085 1.15086 1.017 2.65669 2.8639.3811.4636.7922.9605 1.2517 1.4915.228.266.4634.535.7025.815.2653.266.5269.554.8146.815 1.1546 1.058 2.623 1.956 4.226 2.415 1.5993.487 3.3256.472 4.8314.285 1.517-.195 2.907-.483 4.084-.729 2.3578-.513 3.9346-.666 4.0318-.67.198-.018.3699-.123.4895-.265.6464.426 1.2854.849 1.9019 1.256.9827.666 1.9579 1.256 2.8398 1.911.8818.65 1.7225 1.263 2.496 1.835.3886.288.7622.557 1.121.804.325.247.6165.467.8481.703.2616.217.4223.467.6128.677.1532.231.284.448.4073.646.0934.217.1756.412.2466.58.0785.168.0935.344.1346.475.0709.265.1121.422.1195.456.0112.108.0486.206.1009.303.0187.374.0411.755.0523 1.129.0449 1.596.1084 3.137.1308 4.625.1046 5.948.071 10.984.1084 14.584.0336 3.604.0784 5.773.0971 6.02.0523 1.962.6651 3.518 1.3639 3.473.6987-.045 1.2218-1.649 1.1695-3.586-.0149-.239-.0785-2.389-.1457-5.97-.071-3.589-.086-8.611-.2541-14.611-.0411-1.499-.1196-3.058-.1831-4.67-.0112-.347-.0411-.71-.0598-1.062.0112-.022.015-.044.0262-.067.1382-.112.2316-.25.2578-.4 0-.03.0523-.157.1196-.381.0411-.109.0635-.254.1307-.404.071-.146.1532-.31.2429-.497.1046-.18.2466-.359.3849-.572.1793-.187.34-.408.5829-.621.1121-.108.2316-.22.3774-.34.1494-.131.3064-.262.467-.4.299-.269.6128-.55.9417-.845.1681-.15.34-.303.5119-.456.1756-.168.3587-.34.5418-.516.183-.165.3624-.382.5455-.58.2391-.265.2317-.231.4671-.456.7286-.714 1.5245-1.424 2.2942-2.243.0112-.015.0262-.026.0411-.041.0299-.034.1495.011.2392.004.0523-.004.5044-.053 1.1994-.221.695-.153 1.6179-.482 2.6529-.606l.0411-.007c1.8496-.344 4.2037-.864 6.5353-2l.4372-.206.411-.258.822-.523c.553-.341 1.0799-.7294 1.6105-1.0958.538-.3589 1.0425-.7702 1.5432-1.1627.5081-.3814.9789-.8038 1.4311-1.2188 1.8159-1.66 3.2321-3.4097 4.0354-4.8117.1084-.172.213-.329.3027-.4861.0822-.1645.1569-.3178.2279-.4598.1383-.2879.2579-.5347.355-.7403.1906-.4075.2802-.6393.2504-.6543-.0299-.0149-.1757.1832-.4185.5534-.1196.1869-.2616.415-.4297.6804-.0822.1346-.1682.2767-.2616.4262-.1046.1421-.2167.2916-.3363.4524-.8855 1.3048-2.3428 2.9237-4.17 4.4565-.4596.3814-.9266.7777-1.4386 1.1254-.5044.3626-1.0051.744-1.5432 1.0767-.5343.3402-1.0611.7029-1.6029 1.0095l-.8071.479-.4036.235-.4147.172c-.3774.168-.7586.318-1.1434.46.0971-.34.2242-.815.3437-1.346.0785-.2393.1308-.4935.2467-.7814.1121-.2841.2279-.5833.3512-.8936.2429-.6243.5044-1.2935.766-1.9703l.0112-.0224c.2653-.744.5792-1.4805.9155-2.1572.3587-.6618.7136-1.2824 1.0948-1.7647.7361-.987 1.4161-1.5179 1.3563-1.6151-.0299-.0673-.8257.314-1.7263 1.2487-.4633.4524-.9042 1.0618-1.3414 1.7236-.4147.6767-.8071 1.4207-1.1396 2.1759-.3064.6543-.6128 1.3048-.8968 1.9105-.1457.3103-.284.6094-.4148.8935-.1345.2804-.2316.6057-.3325.8749-.157.5122-.2877.9426-.3811 1.2486-.086.307-.1645.404-.1682.434-.0411.097.0486.258.2055.411-1.4423.437-2.8435.699-4.028.886l.0523-.004c-1.2031.113-2.0775.397-2.7164.528.2951-.344.5903-.696.8855-1.051.3774-.452.7025-.957 1.0537-1.439.355-.4865.6913-.9725 1.0126-1.4548 1.3153-1.9479 2.5932-3.9481 3.6133-5.9184.7921-1.5104 1.4386-2.9947 1.9019-4.378.0523.0038.1046.0038.1532-.0149.0486-.0075.355-.1309.7174-.3851.3587-.2468.7996-.6393 1.2704-1.0655.0523-.0449.1084-.0935.1644-.1421.0187-.015.0449-.0337.0337-.0299l.1121-.0673c.1494-.0897.3064-.1795.4633-.2729.3176-.187.6539-.3851.9977-.587.3437-.2057.7024-.415 1.0611-.6281.0598-.0337.2616-.1496.3176-.2206l.2429-.2168c.1607-.1459.3288-.2879.4858-.4412 1.2779-1.2188 2.2382-2.7517 2.6492-3.9967.4185-1.245.4783-2.1161.4147-2.1273-.1046-.0299-.3288.7963-.8594 1.9142-.5268 1.1216-1.5058 2.4302-2.765 3.4845-.1569.1308-.3214.2542-.482.3813l-.2429.1907c-.0411.0336-.0635.0523-.0635.0486-.0075.0037-.015.0075-.0299.015l-.071.0373c-.3699.1907-.7361.3777-1.0911.5608-.355.1832-.6987.359-1.0238.5272-.1644.086-.3213.1682-.4745.2468l-.1159.0598c-.0971.0448-.1382.0822-.1943.1159-.0784.0598-.1569.1159-.2316.1757-.3849.3141-.6988.5683-.9529.7552.7959-3.1741.4821-5.3052.3625-5.2865-.2205-.0075-.2279 2.2619-1.4087 5.4136-.5717 1.5778-1.446 3.3462-2.5521 5.1669-1.0948 1.8282-2.4325 3.6864-3.8225 5.5482l-.5305.7067-.5194.658c-.3513.4336-.6726.8897-1.0425 1.2977-.7473.811-1.4722 1.618-2.2569 2.344-.3363.336-.6801.654-1.0238.964-.0299-.344-.071-.755-.1121-1.226-.1233-1.301-.2915-3.0059-.3288-4.7144-.0486-1.7049.0747-3.4135.3288-4.6846.2391-1.2712.5567-2.1012.4633-2.1461-.0635-.0373-.538.7291-.9379 2.0115-.411 1.2749-.6838 3.047-.7473 4.8005-.0784 1.7571 0 3.5031.0561 4.8151.056 1.148.0971 1.974.1046 2.195-.0262.022-.0561.049-.0822.071l-.1383.123-.0672.06-.0635.056-.0636.068-.2839.291c-.1495.15-.2765.303-.4484.445-.1607.146-.3214.284-.4783.426-.1719.142-.34.281-.5082.419-.6875.568-1.3227 1.092-1.8907 1.555-.0896.071-.1681.154-.2503.236.0037-.109.0037-.221-.0038-.333.0038-.067-.0411-.419-.0971-1.006-.0037-.089-.0112-.172-.015-.276-.0112-.083-.0224-.183-.0336-.273-.0448-.486-.0897-1.066-.1345-1.75-.0262-.994-.0897-2.183-.1046-3.544.0224-1.361.0448-2.8865.1233-4.5764.1308-2.5124.6614-5.3837 1.4124-8.4195.1906-.0187.3998-.0823.6016-.1907.0448-.0262.34-.1869.837-.4636.5119-.2954 1.2629-.6767 2.1336-1.2188.4259-.2879.8892-.6019 1.3899-.9384.5007-.3403 1.0201-.6468 1.5731-1.002.5755-.3664 1.1771-.7515 1.8085-1.1553.3288-.1944.6053-.4636.9192-.6991.3064-.243.6203-.4898.908-.7627.5979-.5309 1.1994-1.0842 1.8122-1.6525.5979-.5795 1.1771-1.2039 1.7786-1.817.5979-.6169 1.1995-1.245 1.8085-1.8694l.4559-.471c.142-.1645.3139-.2879.4708-.5234l.766-1.0618c1.0387-1.4058 2.1149-2.7741 3.0789-4.1537.9715-1.3759 1.8272-2.7629 2.496-4.1163v-.0038-.0037c.553-1.2338 1.0687-2.389 1.5619-3.4022.2391-.5122.4783-.9908.6576-1.4394.1719-.4599.3064-.8936.4297-1.2936.2467-.7964.4559-1.4357.6502-1.8619.1906-.4299.3251-.6617.2952-.6804-.015-.015-.1943.1869-.4372.6019-.2466.415-.5119 1.0506-.8033 1.832-.1458.3925-.3027.8113-.4895 1.2412-.1869.4038-.4559.8861-.71 1.3796-.5306.9795-1.0948 2.1348-1.7039 3.376l.0187-.0411c-.6912 1.2899-1.5618 2.6134-2.552 3.9369-.9865 1.3272-2.0888 2.6619-3.1686 4.0564l-.8034 1.0581-.0598.0785-.0897.0897-.2316.2281-.4634.4561c-.6165.6094-1.2293 1.2188-1.8346 1.817-.553.5421-1.0911 1.0917-1.6366 1.6077.0075-.602.0672-1.5105.3139-2.647.2055-1.002.538-2.1498.964-3.3649.2204-.6019.4484-1.2262.7062-1.8506.1158-.3103.2765-.6206.3774-.9796l.3139-.9907c.8033-2.647 1.6553-5.2529 2.6716-7.0512 1.0014-1.802 2.0103-2.7778 1.9243-2.8713-.0299-.0337-.2914.1907-.7323.6131-.2205.2131-.497.4636-.7473.8151-.2504.3439-.583.7066-.852 1.1627-1.1807 1.7684-2.1933 4.4229-3.0976 7.0138l-.3849.9571c-.0635.187-.0896.243-.1756.43l-.213.471c-.2877.6244-.5455 1.2562-.7921 1.8694-.4858 1.2338-.8744 2.4264-1.1284 3.4882-.5306 2.1273-.4335 3.6976-.4297 3.7798.0037.0785.0224.1496.0485.2169-.2615.228-.5194.4523-.7734.6729-.2915.2655-.5904.4898-.8819.7141-.2952.2131-.5717.4711-.8706.6393-.609.3739-1.1957.7366-1.7562 1.0768-.5829.3552-1.162.6916-1.6515 1.0094-.4932.3216-.9491.6169-1.3676.8898-.8519.5085-1.5694.8599-2.0701 1.1366-.2055.1084-.3661.1981-.5007.2692.0897-.3402.1831-.6805.2766-1.0244.6389-1.9703 1.2891-4.0116 1.9542-6.0829z" fill="#d7c7b8"/><path d="m37.6228 95.8755c.0039.0077.0077.0154.0077.0193.0039.0039 0 0 0 0v-.0038c0-.0039-.0038-.0116-.0077-.0155z" fill="#66462d"/><path d="m61.0623 95.6774c.0075-.015.015-.03.0225-.0451z" fill="#66462d"/><path d="m25.423 89.0298c.0038.0038.0038.0076.0076.0076.0038.0038.0076.0077.0076.0077z" fill="#66462d"/><g fill="#d4d659"><path d="m38.131 2.42648c-1.2181-.60567-2.2569 1.48052-1.0388 2.08619 1.4236.71036 2.4624-1.37584 1.0388-2.08619z"/><path d="m33.9459 2.68797c-1.4236-.70661-2.4586 1.37958-1.0387 2.08619 1.2218.60567 2.2569-1.48052 1.0387-2.08619z"/><path d="m39.5733 6.66258c-1.4237-.70662-2.4587 1.37958-1.0388 2.08619 1.2181.60567 2.2569-1.48052 1.0388-2.08619z"/><path d="m42.0842 5.17794c-1.2181-.60567-2.2569 1.48053-1.0387 2.0862 1.4236.71035 2.4623-1.37584 1.0387-2.0862z"/><path d="m44.5242 6.39328c-1.2181-.60567-2.2569 1.48052-1.0388 2.08619 1.4199.70661 2.4587-1.37958 1.0388-2.08619z"/><path d="m29.7909 11.5525c-1.2181-.6057-2.2569 1.4805-1.0388 2.0861 1.4237.7067 2.4587-1.3795 1.0388-2.0861z"/><path d="m28.741 9.07785c-1.2182-.60567-2.2569 1.48055-1.0388 2.08615 1.4236.7067 2.4587-1.37954 1.0388-2.08615z"/><path d="m21.4173 18.7046c-1.4237-.7066-2.4587 1.3796-1.0388 2.0862 1.2181.6094 2.2569-1.4768 1.0388-2.0862z"/><path d="m23.3454 25.5244c-1.4237-.7066-2.4587 1.3796-1.0388 2.0862 1.2219.6094 2.2569-1.4805 1.0388-2.0862z"/><path d="m27.62 32.7287c-.2017-.1009-.4259-.1383-.6202-.1121.1233-.4636.0149-.9683-.4895-1.2226-1.4236-.7066-2.4587 1.3796-1.0388 2.0862.1906.0972.3737.1197.5493.0972-.1084.4636-.0486.931.5642 1.2338 1.4199.7141 2.4587-1.3721 1.035-2.0825z"/><path d="m30.3066 34.4595c-1.4237-.7067-2.4587 1.3795-1.0388 2.0861 1.2218.6057 2.2606-1.4805 1.0388-2.0861z"/><path d="m17.3557 28.3994c-1.4236-.7066-2.4586 1.3796-1.0387 2.0862 1.2181.6057 2.2569-1.4805 1.0387-2.0862z"/><path d="m16.8177 25.3972c-1.2181-.6057-2.2568 1.4805-1.0387 2.0862 1.4236.7103 2.4624-1.3759 1.0387-2.0862z"/><path d="m22.5795 13.8181c-1.2182-.6057-2.2569 1.4805-1.0388 2.0862 1.4236.7066 2.4624-1.3796 1.0388-2.0862z"/><path d="m10.7868 32.9381c-.4596-.2281-.89678-.0748-1.19197.243-.19057-.0374-.3886-.0336-.5829.0374-.59038.2056-.92667.8786-.73237 1.4768.10089.3103.19804.6206.29893.9309.19056.5982.84446.9235 1.43481.7141.5269-.1832.8445-.7328.7772-1.2749.766-.3739 1.0313-1.6151-.0037-2.1273z"/><path d="m13.2119 35.7082c-1.2181-.6057-2.2569 1.4805-1.0388 2.0862 1.4237.7066 2.4624-1.3796 1.0388-2.0862z"/><path d="m17.195 42.3784c.8632-.228 1.3452-1.6749.3625-2.1647-1.39-.6916-2.4138 1.2861-1.1247 2.0376-.908.2019-1.3788 1.66-.3251 2.1871 1.2966.6468 2.3204-1.3795 1.0873-2.06z"/><path d="m8.08157 39.3984c-1.42363-.7066-2.45865 1.3796-1.03876 2.0862 1.21812.6094 2.25688-1.4805 1.03876-2.0862z"/><path d="m6.12356 35.6899c-1.42362-.7066-2.45865 1.3796-1.03876 2.0862 1.21812.6094 2.25688-1.4768 1.03876-2.0862z"/><path d="m12.969 28.5564c-1.2181-.6057-2.2569 1.4805-1.0388 2.0862 1.4199.7066 2.4587-1.3796 1.0388-2.0862z"/><path d="m33.0155 39.7124c-1.4236-.7066-2.4586 1.3796-1.0387 2.0862 1.2218.6056 2.2606-1.4805 1.0387-2.0862z"/><path d="m33.4154 34.8337c-1.2181-.6057-2.2569 1.4805-1.0388 2.0862 1.4237.7103 2.4624-1.3758 1.0388-2.0862z"/><path d="m27.0632 26.2043c-1.2181-.6057-2.2569 1.4805-1.0387 2.0862 1.4236.7066 2.4624-1.3796 1.0387-2.0862z"/><path d="m31.039 20.7646c-1.4237-.7066-2.4587 1.3796-1.0388 2.0862 1.2181.6057 2.2569-1.4805 1.0388-2.0862z"/><path d="m4.26281 44.528c-1.21811-.6056-2.25688 1.4806-1.03876 2.0862 1.42363.7067 2.45865-1.3795 1.03876-2.0862z"/><path d="m4.03116 47.5376c-1.42363-.7066-2.45866 1.3796-1.03877 2.0862 1.22186.6056 2.25688-1.4806 1.03877-2.0862z"/><path d="m5.98916 51.2427c-1.42362-.7067-2.45865 1.3795-1.03876 2.0862 1.22186.6094 2.25688-1.4768 1.03876-2.0862z"/><path d="m7.63699 55.5796c-1.42363-.7066-2.45865 1.3796-1.03876 2.0862 1.21812.6056 2.25688-1.4806 1.03876-2.0862z"/><path d="m8.36172 60.2344c-1.42362-.7067-2.45865 1.3795-1.03876 2.0862 1.21812.6094 2.25688-1.4768 1.03876-2.0862z"/><path d="m22.4524 64.5188c-1.2181-.6057-2.2569 1.4805-1.0388 2.0862 1.4199.7103 2.4587-1.3759 1.0388-2.0862z"/><path d="m25.621 63.7524c-1.4236-.7066-2.4587 1.3796-1.0388 2.0862 1.2182.6094 2.2569-1.4768 1.0388-2.0862z"/><path d="m26.9662 67.1582c-1.4236-.7066-2.4586 1.3796-1.0387 2.0862 1.2218.6094 2.2606-1.4768 1.0387-2.0862z"/><path d="m27.5341 36.9795c-1.4236-.7066-2.4587 1.3795-1.0388 2.0862 1.2181.6094 2.2569-1.4768 1.0388-2.0862z"/><path d="m38.8372 26.9934c-1.2182-.6057-2.2569 1.4805-1.0388 2.0862 1.4236.7066 2.4624-1.3796 1.0388-2.0862z"/><path d="m11.1493 44.4421c-1.21813-.6057-2.25689 1.4805-1.0388 2.0862 1.4199.7066 2.4587-1.3796 1.0388-2.0862z"/><path d="m11.041 56.8845c-1.21811-.6057-2.25687 1.4805-1.0388 2.0862 1.4237.7066 2.4624-1.3796 1.0388-2.0862z"/><path d="m12.8307 62.4626c-1.2181-.6057-2.2569 1.4805-1.0388 2.0862 1.4199.7066 2.4587-1.3796 1.0388-2.0862z"/><path d="m6.11612 72.3926c-1.42363-.7067-2.45865 1.3795-1.03876 2.0862 1.21811.6094 2.25687-1.4768 1.03876-2.0862z"/><path d="m8.5524 73.6074c-1.42363-.7066-2.45866 1.3796-1.03877 2.0862 1.21812.6057 2.25688-1.4805 1.03877-2.0862z"/><path d="m7.13614 77.978c-1.42363-.7066-2.45866 1.3796-1.03877 2.0862 1.22186.6094 2.26062-1.4768 1.03877-2.0862z"/><path d="m4.56542 80.6027c-1.21811-.6056-2.25687 1.4806-1.03876 2.0862 1.42363.7104 2.45865-1.3758 1.03876-2.0862z"/><path d="m7.38275 85.1305c-.60906-.3029-.94535-.1383-1.24801.1383.04483-.4038-.14199-.8337-.57917-1.0506-1.42363-.7066-2.45865 1.3796-1.03876 2.0862.43718.2169.89303.1122 1.18449-.1719-.03737.4075.03363.7776.64268 1.0804 1.21812.6094 2.25688-1.4768 1.03877-2.0824z"/><path d="m12.6813 79.5705c-1.2181-.6056-2.2569 1.4805-1.0388 2.0862 1.4236.7066 2.4624-1.3796 1.0388-2.0862z"/><path d="m16.5 74.4414c-1.4236-.7066-2.4586 1.3796-1.0387 2.0862 1.2218.6094 2.2568-1.4768 1.0387-2.0862z"/><path d="m20.2067 76.677c-1.2182-.6057-2.2569 1.4805-1.0388 2.0862 1.4199.7103 2.4587-1.3759 1.0388-2.0862z"/><path d="m15.2483 83.5822c-1.2181-.6056-2.2569 1.4806-1.0388 2.0862 1.4236.7066 2.4624-1.3795 1.0388-2.0862z"/><path d="m11.6275 72.0146c-1.4237-.7066-2.45868 1.3796-1.0388 2.0862 1.2181.6057 2.2569-1.4805 1.0388-2.0862z"/><path d="m16.926 66.4553c-1.2181-.6057-2.2569 1.4805-1.0387 2.0862 1.4236.7066 2.4623-1.3796 1.0387-2.0862z"/><path d="m5.84329 68.3545c-1.42363-.7066-2.45865 1.3795-1.03876 2.0862 1.21812.6056 2.25688-1.4806 1.03876-2.0862z"/><path d="m11.1754 94.8283c-1.21811-.6056-2.25687 1.4806-1.0388 2.0862 1.4237.7104 2.4624-1.3758 1.0388-2.0862z"/><path d="m15.0839 97.1652c-.9229-.4599-1.6852.2617-1.7151 1.0169-.5829.4786-.7435 1.5366.1233 1.9669.8445.418 1.5731-.2957 1.6366-1.0322.5755-.486.766-1.5478-.0448-1.9516z"/><path d="m17.5052 99.9355c-1.4237-.7066-2.4587 1.3795-1.0388 2.0865 1.2218.605 2.2606-1.481 1.0388-2.0865z"/><path d="m5.95547 91.0561c-1.42362-.7066-2.45865 1.3796-1.03876 2.0862 1.21812.6094 2.25688-1.4768 1.03876-2.0862z"/><path d="m18.9886 87.7846c-1.4237-.7066-2.4587 1.3796-1.0388 2.0863 1.2181.6094 2.2569-1.4768 1.0388-2.0863z"/><path d="m26.4355 45.8064c-1.2181-.6057-2.2568 1.4805-1.0387 2.0862 1.4236.7103 2.4624-1.3759 1.0387-2.0862z"/></g></g></svg>