<svg width="159" height="154" viewBox="0 0 159 154" fill="none" xmlns="http://www.w3.org/2000/svg">
<g clip-path="url(#clip0)">
<path d="M89.4452 57.964C89.4452 57.964 95.796 61.1979 96.9886 61.5638C98.0436 61.887 101.188 63.3638 102.732 64.0492L104.617 60.6202C104.617 60.6202 99.7303 57.7912 99.2157 57.4476C98.7012 57.1039 90.6433 51.9604 90.1287 51.9604C89.6142 51.9604 88.587 57.1076 89.4452 57.964Z" fill="#FFBB7E"/>
<path d="M102.39 63.8802C102.39 63.8802 105.886 65.8343 106.848 66.1092C108.048 66.4528 109.248 63.3656 109.421 62.5093C109.48 62.2103 109.936 62.1657 108.906 61.6511C107.627 61.0103 104.894 60.6221 104.448 60.6221C103.761 60.6221 101.876 62.8511 102.39 63.8802Z" fill="#FFBB7E"/>
<path d="M60.388 139.494L59.2754 138.844L125.966 28.0449L127.422 28.864L60.388 139.494Z" fill="#324A4A"/>
<path d="M158.628 145.494C158.628 148.107 123.202 153.585 79.5 153.585C35.7981 153.585 0.37146 148.106 0.37146 145.494C0.37146 142.88 35.7981 144.123 79.5 144.123C123.202 144.123 158.628 142.88 158.628 145.494Z" fill="white"/>
<path d="M79.5 153.957C53.3164 153.957 33.1772 152.034 23.5032 150.888C16.5839 150.069 10.7086 149.148 6.50875 148.223C0 146.791 0 145.914 0 145.494C0 145.362 0.0408654 145.167 0.23219 144.978C1.92068 143.302 17.3121 143.347 46.659 143.583C56.5615 143.662 67.7846 143.752 79.5019 143.752C91.2172 143.752 102.442 143.662 112.345 143.583C141.69 143.349 157.081 143.302 158.772 144.978C158.963 145.167 159.004 145.364 159.004 145.494C159.004 145.916 159.004 146.791 152.493 148.223C148.295 149.146 142.418 150.067 135.499 150.888C125.821 152.034 105.684 153.957 79.5 153.957ZM0.750438 145.505C0.817309 145.613 1.4693 146.387 7.13473 147.597C11.3977 148.507 17.2787 149.411 24.1403 150.214C33.7344 151.334 53.6823 153.212 79.4981 153.212C105.314 153.212 125.264 151.334 134.856 150.214C141.719 149.413 147.6 148.509 151.862 147.597C157.403 146.413 158.147 145.646 158.242 145.5C158.14 145.383 157.586 145.017 154.642 144.723C152.458 144.506 149.32 144.361 145.05 144.279C136.938 144.123 125.54 144.216 112.345 144.322C102.44 144.402 91.2154 144.491 79.4963 144.491C67.7772 144.491 56.5522 144.402 46.6479 144.322C33.4502 144.216 22.0525 144.125 13.9425 144.279C9.67211 144.361 6.53476 144.506 4.35031 144.723C1.36899 145.022 0.841457 145.396 0.750438 145.505Z" fill="#324A4A"/>
<path d="M158.628 145.423C158.628 147.847 128.145 149.846 88.8489 150.123C85.784 150.143 82.6633 150.156 79.5 150.156C70.7083 150.156 62.2473 150.069 54.3473 149.911C22.9775 149.283 0.37146 147.513 0.37146 145.423C0.37146 143.382 22.0227 141.641 52.3542 140.978C56.8865 140.878 61.612 140.804 66.4899 140.755C68.1115 140.741 69.7517 140.726 71.4049 140.716C74.0667 140.702 76.7675 140.692 79.5 140.692C87.9981 140.692 96.1786 140.772 103.852 140.923C135.64 141.536 158.628 143.321 158.628 145.423Z" fill="#F7AC4B"/>
<path d="M110.987 141.047L94.2338 149.937C91.1671 149.959 82.6633 150.156 79.5 150.156C70.7065 150.156 62.2473 150.069 54.3455 149.913L71.4049 140.72C74.0667 140.703 76.7676 140.696 79.4981 140.696C87.9963 140.694 103.315 140.898 110.987 141.047Z" fill="#324A4A"/>
<path d="M91.2451 49.8205C91.1597 49.9264 91.0779 50.2868 90.9962 50.8384C90.4445 54.7002 90.0879 67.9741 90.3869 70.2235C90.7306 72.7962 79.2418 67.8236 74.0983 67.9945C74.0983 67.9945 77.871 61.9929 77.871 58.9075C77.871 57.7131 76.7917 54.2619 75.6196 50.1474C75.4488 49.5475 75.2741 48.9326 75.1033 48.3104C73.4055 42.1657 71.8099 35.1368 73.242 31.9883C74.0017 30.3166 74.6649 29.1612 75.2704 28.3532C75.6754 27.8126 76.0562 27.4281 76.4202 27.1495C78.1886 26.804 80.5644 26.6052 82.2361 27.495C82.8045 28.017 83.2968 28.6039 83.6999 29.0739C83.8949 29.3024 84.2683 29.8429 84.7531 30.5822C86.5326 33.3016 89.8185 38.7237 91.3343 41.2666C91.5888 41.692 91.7912 42.0357 91.9305 42.2753C93.1305 44.3334 91.9305 48.9623 91.2451 49.8205Z" fill="#FFBB7E"/>
<path d="M74.1838 80.6907C73.8401 81.1216 72.9838 87.4558 74.6983 92.0624C76.4128 96.669 79.3272 105.45 78.6418 108.329C77.9564 111.208 73.3274 116.678 72.4693 119.7C71.6111 122.723 70.7548 137.406 70.2402 138.703C69.7257 139.998 67.6676 144.749 68.6966 145.18C69.7257 145.611 70.582 145.899 72.6402 145.756C74.6983 145.613 82.7562 146.332 83.7853 146.044C84.8144 145.756 85.3289 145.756 85.1561 145.325C84.9853 144.894 86.0143 144.894 85.6707 144.606C85.327 144.318 83.098 143.599 82.0708 143.311C81.0417 143.023 78.1273 142.017 77.2691 141.296C76.4109 140.577 76.0691 137.986 76.0691 136.689C76.0691 135.395 79.8418 125.749 82.4126 121.575C84.9853 117.401 88.4142 112.218 88.756 110.346C89.0997 108.475 86.3561 77.0927 86.3561 77.0927C86.3561 77.0927 75.2128 79.396 74.1838 80.6907Z" fill="#FFBB7E"/>
<path d="M74.6982 82.4181C74.6982 82.4181 75.8982 89.9039 77.6127 93.502C79.3272 97.1 82.0707 104.443 82.7562 106.746C83.4416 109.049 80.5847 114.667 80.3562 117.542C79.8417 124.019 81.2144 141.437 81.2144 141.437C81.2144 141.437 80.0145 148.923 81.0435 148.923C82.0726 148.923 94.4177 148.923 95.274 148.923C96.1322 148.923 96.3031 148.492 96.3031 148.347C96.3031 148.202 97.3321 148.49 97.6739 148.059C98.0175 147.628 98.3593 147.916 98.703 147.628C99.0466 147.34 99.3884 146.909 99.3884 146.909C99.3884 146.909 99.732 146.19 98.8739 145.903C98.0157 145.615 92.1868 145.184 91.6723 145.039C91.1577 144.894 87.7287 143.023 87.3851 142.017C87.0415 141.01 86.5269 132.228 87.556 129.205C88.5851 126.183 90.985 116.249 91.6704 114.954C92.3558 113.66 93.7285 109.772 93.7285 107.469C93.7285 105.165 88.2414 75.7998 88.2414 75.7998C88.2414 75.7998 75.7273 79.396 74.6982 82.4181Z" fill="#FFBB7E"/>
<path d="M74.1838 67.9091C74.1838 67.9091 69.2112 73.2234 70.9257 77.8542C72.6402 82.4832 74.7837 84.7977 74.7837 84.7977C74.7837 84.7977 84.4707 77.3397 88.2433 76.9961C88.2433 76.9961 89.8724 74.3379 90.4723 70.1381C90.4742 70.1381 76.9273 68.4236 74.1838 67.9091Z" fill="#80CE9A"/>
<path d="M83.2634 28.3402C83.2634 28.3402 78.3502 25.4648 75.1516 28.3402C75.1516 28.3402 75.8481 27.1087 76.6023 25.6784C76.7026 25.487 76.8047 25.2901 76.9051 25.0951C77.7019 23.5534 78.4709 21.9392 78.4709 21.4451C78.4709 21.1107 79.1192 21.1386 80.0145 21.3336C80.2579 21.3856 80.5179 21.4506 80.7891 21.5231C82.6002 22.0172 84.8553 22.8884 85.158 22.9868C85.6726 23.1577 83.2541 27.6938 83.2634 28.3402Z" fill="#FFBB7E"/>
<path d="M91.2451 49.8205C91.1597 49.9264 91.0779 50.2868 90.9962 50.8384C89.2929 50.5338 83.4305 49.6403 75.6197 50.1475C75.4488 49.5475 75.2742 48.9326 75.1033 48.3104C76.9998 48.2063 80.139 47.8999 82.0708 46.9897C84.597 45.8009 86.1852 38.9317 85.4998 35.5028C84.8422 32.2131 83.5513 25.1322 75.2686 28.3532C75.6735 27.8126 76.0543 27.4281 76.4184 27.1495C78.1868 26.804 80.5625 26.6052 82.2343 27.495C82.6244 27.703 82.9736 27.9668 83.2708 28.303C83.867 28.9791 84.3444 29.7574 84.7531 30.584C86.1035 33.3165 86.7035 36.5764 88.4161 38.4191C89.4062 39.4834 90.4278 40.414 91.3343 41.2685C91.5888 41.6939 91.7912 42.0375 91.9305 42.2771C93.1305 44.3334 91.9305 48.9624 91.2451 49.8205Z" fill="#80CE9A"/>
<path d="M80.2227 128.336C79.7249 124.203 80.7558 118.174 81.079 116.924C81.4821 115.358 82.7582 109.98 82.773 109.328C82.7898 108.639 81.8796 105.006 80.3843 101.855C78.8741 98.6734 74.7448 84.9612 74.704 84.8237L74.8674 84.7736C74.9083 84.911 79.0339 98.6121 80.5385 101.781C82.0449 104.954 82.9607 108.63 82.9439 109.332C82.9272 110.027 81.5787 115.666 81.2443 116.966C80.9248 118.209 79.8976 124.207 80.3936 128.316L80.2227 128.336Z" fill="#324A4A"/>
<path d="M87.6638 44.8368C81.298 41.9688 77.6833 36.294 76.645 34.4625C78.9724 37.1931 83.6998 41.4487 87.6638 44.8368Z" fill="#324A4A"/>
<path d="M76.6171 34.457C76.5614 34.4124 75.2296 33.335 75.107 31.7246C75.0327 30.7531 75.4209 29.802 76.2586 28.8974C77.089 28.0002 78.1626 27.6436 79.448 27.8368C81.6603 28.1674 83.7667 30.0361 83.8485 30.2033L83.6943 30.2776C83.6144 30.155 81.4114 28.1767 79.1564 27.9742C78.0474 27.8739 77.115 28.225 76.3831 29.0145C75.5788 29.8819 75.2073 30.7902 75.276 31.7116C75.393 33.2477 76.7082 34.3121 76.7212 34.3214L76.6171 34.457Z" fill="#020264"/>
<path d="M90.5598 58.2834L90.3889 58.2797C90.3926 58.0995 90.4669 53.8347 90.8997 52.2484L91.065 52.2929C90.6378 53.8607 90.5598 58.2407 90.5598 58.2834Z" fill="#324A4A"/>
<path d="M93.1306 15.5288C92.7869 15.3579 91.6557 12.0553 91.6557 12.0553V12.0571C91.5721 10.6658 91.4124 9.36371 91.1597 8.41452C90.4743 5.84185 89.6161 4.6419 87.3871 2.75651C85.1581 0.871131 79.1564 1.21291 75.7275 4.81464C72.2985 8.41452 77.0983 16.8161 77.7856 17.6743C78.471 18.5324 78.471 21.4469 78.471 21.4469L83.6145 23.3323C83.6145 23.3323 87.558 22.6468 88.9288 22.8177C90.2997 22.9886 91.1579 21.2741 91.5015 18.7033C91.5962 17.9882 91.665 17.0743 91.7003 16.0731C92.3857 15.904 93.3572 15.6421 93.1306 15.5288Z" fill="#FFBB7E"/>
<path d="M92.2742 4.89825C92.1516 5.47222 92.0011 6.21337 91.5888 6.78363C90.2699 8.60028 87.8161 10.0417 87.8161 10.0417C86.1016 11.2417 85.5871 13.6416 85.4162 15.3561C85.2453 17.0706 84.2163 18.2705 82.1581 18.4414C80.1 18.6123 80.4436 21.3559 79.0709 23.5849C78.1459 25.0895 76.7509 25.1879 75.3633 25.2511C74.6928 25.2808 74.0259 25.3031 73.4129 25.4703C71.5275 25.9848 71.5275 28.7284 67.9258 30.9574C66.0237 32.1332 66.2113 29.9283 64.1532 31.4719C62.0951 33.0155 58.4952 34.3864 55.0662 32.501C51.6372 30.6156 49.9227 26.6721 53.0081 25.1285C56.0953 23.5849 59.3775 18.4247 60.5515 16.7269C63.6368 12.2689 68.4385 14.8415 70.6675 13.2979C72.8965 11.7544 72.0607 7.30188 72.382 5.75456C73.242 1.64015 77.7001 1.81105 78.5564 0.611089C79.4146 -0.588869 81.9854 0.78198 86.0998 0.0965555C90.216 -0.588869 92.7887 2.49833 92.2742 4.89825Z" fill="#7F5533"/>
<path d="M91.429 16.2998L91.403 16.1307C92.289 15.9951 93.0915 15.763 93.1212 15.6348C93.1212 15.6348 93.1138 15.6218 93.0822 15.6014C92.5565 15.2503 91.6556 12.1705 91.5553 11.8213L91.7206 11.773C91.99 12.7073 92.7776 15.1908 93.1788 15.4583C93.2921 15.5345 93.3032 15.6162 93.2902 15.6719C93.2197 15.9896 91.9658 16.2162 91.429 16.2998Z" fill="#020264"/>
<path d="M89.6277 16.8269C90.2972 16.1574 90.2972 15.0719 89.6277 14.4023C88.9581 13.7328 87.8726 13.7328 87.203 14.4023C86.5335 15.0719 86.5335 16.1574 87.203 16.8269C87.8726 17.4965 88.9581 17.4965 89.6277 16.8269Z" fill="#ED9FA6"/>
<path d="M91.0408 7.4152C90.9516 7.47836 90.8328 7.5768 90.7287 7.66411C90.6229 7.75513 90.5188 7.85172 90.4148 7.94831C90.2105 8.14706 90.0062 8.34953 89.8148 8.56501C89.4266 8.99223 89.0625 9.44547 88.7189 9.91542C88.3715 10.3835 88.0576 10.8758 87.7493 11.3717L87.5264 11.7488L87.4205 11.929C87.4001 11.9661 87.3759 12.0237 87.3555 12.085C87.2719 12.3339 87.2106 12.6237 87.153 12.9079C86.9227 14.0595 86.7369 15.2484 86.4044 16.4112C86.2335 16.9926 86.0385 17.5758 85.7004 18.1201C85.5295 18.3857 85.3066 18.6569 84.9909 18.8241C84.7178 18.969 84.4355 19.0916 84.1475 19.1956C83.5754 19.4092 82.9736 19.5207 82.4442 19.7083C82.1823 19.8049 81.952 19.9367 81.8405 20.1466C81.8108 20.2024 81.7903 20.2507 81.7755 20.312C81.7588 20.3751 81.7476 20.4438 81.7365 20.5144L81.6752 20.9528C81.5972 21.5472 81.4578 22.149 81.2182 22.7082C80.9842 23.271 80.648 23.7855 80.2523 24.2406C79.4499 25.1489 78.4134 25.8028 77.3267 26.2857C76.2364 26.7724 75.0884 27.1012 73.9293 27.3538C75.081 27.0659 76.2159 26.7018 77.2821 26.1873C78.3446 25.6765 79.3421 24.9985 80.0907 24.0994C80.4585 23.6481 80.765 23.1465 80.9712 22.6041C81.1829 22.0636 81.2981 21.4933 81.3575 20.9101L81.4058 20.4643C81.417 20.3881 81.4263 20.3101 81.4448 20.2284C81.4616 20.1448 81.495 20.0538 81.534 19.9776C81.6157 19.8197 81.7402 19.6841 81.8777 19.5838C82.0151 19.4817 82.1618 19.4129 82.3086 19.3516C82.6002 19.2327 82.89 19.1547 83.1723 19.0674C83.4547 18.982 83.7315 18.8928 83.9989 18.7851C84.2664 18.6792 84.5265 18.5566 84.7735 18.4154C84.9834 18.2984 85.1525 18.0922 85.2918 17.8582C85.5704 17.3845 85.7431 16.8235 85.888 16.2626C86.176 15.1313 86.3227 13.963 86.5215 12.7816C86.5753 12.4844 86.6255 12.189 86.7202 11.8714C86.7462 11.7897 86.7741 11.7079 86.8205 11.6132C86.8632 11.5296 86.8948 11.4757 86.932 11.407L87.1493 11.0114C87.4502 10.4894 87.7604 9.97115 88.1078 9.47333C88.4514 8.97366 88.8155 8.48885 89.213 8.02447C89.4099 7.79042 89.6198 7.56752 89.8353 7.34647C89.9449 7.23688 90.0545 7.12914 90.1715 7.02326C90.2904 6.91553 90.3962 6.81894 90.5467 6.70563L91.0408 7.4152Z" fill="#7F5533"/>
<path d="M90.3219 1.84821C90.66 2.15284 90.8068 2.54292 90.8718 2.94414C90.9312 3.34537 90.8773 3.74845 90.7659 4.12181C90.7436 4.2184 90.7102 4.30756 90.6749 4.39858C90.6396 4.48774 90.6099 4.58248 90.569 4.66978C90.4835 4.84253 90.4111 5.02271 90.3089 5.18431C90.2142 5.34963 90.1195 5.51681 90.0062 5.67284L89.8427 5.90874L89.6607 6.13165C89.4229 6.43256 89.1424 6.69633 88.8601 6.95267C88.5684 7.19786 88.2694 7.43191 87.961 7.64738C87.6545 7.86657 87.3425 8.07276 87.049 8.29752C86.7536 8.51856 86.4713 8.75447 86.2465 9.03495C86.0218 9.31358 85.8323 9.62193 85.7413 9.97114C85.6336 10.3166 85.5723 10.6881 85.5054 11.0541C85.3772 11.7878 85.2769 12.5308 85.1506 13.272C85.0224 14.0112 84.8868 14.7543 84.6398 15.4731C84.5153 15.8316 84.363 16.1883 84.1215 16.4985C84.0027 16.6526 83.8541 16.7938 83.6702 16.8867C83.4956 16.9759 83.3154 17.039 83.1333 17.0947C82.4015 17.3121 81.6529 17.3882 80.9247 17.5424C80.5607 17.6186 80.2003 17.7096 79.8678 17.8619C79.539 18.0105 79.24 18.2538 79.1434 18.5975C79.0449 18.9448 79.0635 19.32 79.1062 19.6878C79.149 20.0575 79.2214 20.4271 79.2381 20.8061C79.2455 20.9955 79.2381 21.1887 79.1954 21.3782C79.1508 21.5676 79.0654 21.7478 78.9409 21.8983C78.6902 22.2011 78.3242 22.3645 77.9639 22.4723C77.2301 22.6729 76.4723 22.6729 75.7274 22.7286C74.9825 22.7769 74.234 22.853 73.5151 23.0537C72.7962 23.2524 72.109 23.5812 71.5368 24.0641C71.2508 24.3038 70.9926 24.5768 70.7604 24.8703C70.5301 25.1657 70.335 25.4852 70.1548 25.8139C70.3313 25.4852 70.5245 25.1619 70.753 24.8629C70.9814 24.5657 71.2378 24.2908 71.5238 24.0474C72.0941 23.557 72.7832 23.219 73.504 23.0109C74.2265 22.8029 74.977 22.7193 75.7237 22.6617C76.4686 22.5986 77.2264 22.5893 77.9397 22.3868C78.2889 22.2791 78.6381 22.1156 78.8666 21.8333C78.9799 21.694 79.0561 21.5268 79.097 21.3503C79.136 21.1738 79.1415 20.99 79.1322 20.8061C79.1137 20.4383 79.0375 20.0705 78.9892 19.6971C78.9428 19.3238 78.9168 18.9355 79.0208 18.5566C79.0747 18.3653 79.1843 18.1907 79.3273 18.0532C79.4685 17.9158 79.6375 17.8136 79.8102 17.73C80.1576 17.5665 80.5272 17.47 80.895 17.3882C81.6306 17.2266 82.3792 17.1393 83.0832 16.9238C83.2578 16.8681 83.4305 16.805 83.5903 16.7214C83.7426 16.6415 83.8708 16.5189 83.9785 16.3777C84.1958 16.0935 84.3407 15.7499 84.4578 15.4025C84.6899 14.7022 84.82 13.9648 84.9388 13.2292C85.0559 12.4918 85.1506 11.7488 85.2713 11.0076C85.3364 10.6361 85.3939 10.2665 85.5035 9.89498C85.5983 9.51419 85.8045 9.16683 86.0459 8.86592C86.2893 8.55943 86.5846 8.30866 86.8855 8.08019C87.1864 7.848 87.4967 7.63624 87.7976 7.41705C88.1022 7.20158 88.3901 6.97125 88.6688 6.73163C88.9381 6.48272 89.2037 6.22824 89.4266 5.93847L89.5975 5.72485L89.7517 5.49823C89.8594 5.34963 89.9467 5.18988 90.0359 5.03014C90.1325 4.87411 90.1975 4.70507 90.2774 4.54161C90.3164 4.45988 90.3405 4.37258 90.374 4.28899C90.4055 4.2054 90.4371 4.11995 90.4557 4.03265C90.5541 3.68901 90.5969 3.33051 90.5411 2.99058C90.5151 2.81969 90.465 2.65623 90.3925 2.50391C90.3535 2.42961 90.3127 2.35717 90.2625 2.28844C90.2161 2.22528 90.1548 2.15284 90.1083 2.11569L90.3219 1.84821Z" fill="white"/>
<path d="M91.6667 112.608L91.5088 112.54C93.3608 108.331 92.3707 104.064 92.3614 104.021L92.5286 103.982C92.5379 104.025 93.5428 108.345 91.6667 112.608Z" fill="#324A4A"/>
<path d="M116.792 42.2753C116.792 42.2753 102.474 49.3915 99.5594 50.4205C96.6449 51.4496 95.6159 51.106 94.0723 50.0769C93.5002 49.6943 90.8253 47.5432 87.662 44.835C83.6999 41.4469 78.9706 37.1913 76.6432 34.4607C75.8203 33.4967 75.2965 32.7239 75.2129 32.2447C75.0698 31.4348 75.1924 30.7438 75.4432 30.1699C76.1008 28.656 77.7354 27.8108 79.37 28.0486C80.0238 28.1452 80.8282 28.3216 81.729 28.643C84.0677 29.4789 95.6827 43.6573 97.0703 44.5452C97.1075 44.5694 97.1372 44.5824 97.1595 44.5879C97.3044 44.6177 97.6406 44.5378 98.1068 44.3855C100.397 43.6425 105.821 41.1589 107.103 41.1589C108.646 41.1589 114.904 38.5008 114.904 38.5008L116.792 42.2753Z" fill="#FFBB7E"/>
<path d="M114.306 38.7608C114.306 38.7608 120.05 35.2464 121.764 35.0736C123.479 34.9028 123.308 37.2544 123.308 38.5026C123.308 40.0462 122.45 41.2462 121.764 41.4171C121.079 41.588 116.535 42.1879 116.535 42.1879C116.535 42.1879 113.106 39.9608 114.306 38.7608Z" fill="#FFBB7E"/>
<path d="M98.1087 44.3892C98.0307 45.7972 95.9019 48.0708 96.3886 47.4206C96.8604 46.7909 97.0443 44.861 97.0703 44.5489C97.1075 44.5731 97.1372 44.5861 97.1595 44.5916C97.3062 44.6195 97.6424 44.5415 98.1087 44.3892Z" fill="#324A4A"/>
<path d="M96.5687 50.4856C94.7261 50.4856 92.4877 48.2696 92.3837 48.1674L92.5045 48.0467C92.5323 48.0746 95.235 50.7475 97.0498 50.2534C98.9092 49.7463 100.624 49.0628 100.64 49.0572L100.704 49.2169C100.687 49.2244 98.9631 49.9098 97.0944 50.4206C96.9272 50.4633 96.7508 50.4856 96.5687 50.4856Z" fill="#324A4A"/>
<path d="M124.307 29.1742L127.47 30.8683C127.924 31.1116 128.488 30.9556 128.754 30.5135L128.78 30.4689C129.066 29.9915 128.89 29.3711 128.395 29.1148L125.206 27.4653C124.729 27.2183 124.14 27.4096 123.898 27.8907C123.664 28.3588 123.846 28.9272 124.307 29.1742Z" fill="#324A4A"/>
<path d="M68.3641 127.731L67.584 136.578L64.9463 140.414C60.0703 140.462 55.343 140.536 50.8106 140.637L58.1534 132.12L66.2874 126.519C67.2125 125.882 68.4626 126.612 68.3641 127.731Z" fill="#F85976"/>
<path d="M91.6594 84.6917L97.4994 74.6519L99.747 75.8165L93.5633 85.862L91.6594 84.6917Z" fill="#F85976"/>
<path d="M121.056 35.2464L123.822 34.3883L124.314 33.9926C124.314 33.9926 125.022 34.0446 125.022 34.7319C125.022 35.4192 124.851 35.5901 124.164 36.1028C123.479 36.6173 122.62 37.1318 122.62 37.1318C122.62 37.1318 120.521 35.5901 121.056 35.2464Z" fill="#FFBB7E"/>
<path d="M120.886 36.79L123.651 35.9318L124.144 35.5362C124.144 35.5362 124.851 35.5882 124.851 36.2755C124.851 36.9609 124.681 37.1337 123.993 37.6463C123.308 38.1609 122.45 38.6754 122.45 38.6754C122.45 38.6754 120.349 37.1337 120.886 36.79Z" fill="#FFBB7E"/>
<path d="M120.709 38.4358L123.323 37.6259L123.789 37.2526C123.789 37.2526 124.458 37.3027 124.458 37.951C124.458 38.5993 124.296 38.7609 123.648 39.2475C122.999 39.7342 122.189 40.2209 122.189 40.2209C122.189 40.2209 120.202 38.7609 120.709 38.4358Z" fill="#FFBB7E"/>
<path d="M120.538 39.6358L123.152 38.8259L123.618 38.4525C123.618 38.4525 124.287 38.5027 124.287 39.1509C124.287 39.7992 124.125 39.9608 123.477 40.4475C123.07 40.7521 122.598 41.0586 122.305 41.2425C122.13 41.3521 121.909 41.3391 121.747 41.2128C121.222 40.7967 120.15 39.8847 120.538 39.6358Z" fill="#FFBB7E"/>
<path d="M117.904 36.7064C117.904 36.7064 119.022 35.4173 119.708 34.9028C120.393 34.3883 122.451 33.8737 122.451 33.8737L121.606 35.2891L117.904 36.7064Z" fill="#FFBB7E"/>
<path d="M108.799 61.8461C108.799 61.8461 108.178 61.991 107.428 62.0783C106.676 62.1656 105.756 62.0114 105.648 62.3365C105.477 62.851 105.992 63.0219 106.506 63.0219C107.021 63.0219 108.866 63.0219 109.25 63.0219C109.592 63.0219 110.236 61.6975 108.799 61.8461Z" fill="#FFBB7E"/>
<path d="M108.628 62.8733C108.628 62.8733 108.007 63.0182 107.257 63.1055C106.505 63.1928 105.585 63.0386 105.477 63.3637C105.307 63.8782 105.821 64.0491 106.336 64.0491C106.85 64.0491 108.524 64.22 108.908 64.22C109.248 64.2237 110.064 62.7247 108.628 62.8733Z" fill="#FFBB7E"/>
<path d="M108.219 64.0511C108.219 64.0511 107.664 64.0474 106.913 64.1347C106.163 64.222 105.242 64.0678 105.134 64.3929C104.963 64.9074 105.477 65.0783 105.992 65.0783C106.506 65.0783 107.838 65.2492 108.221 65.2492C108.563 65.2511 109.657 63.9025 108.219 64.0511Z" fill="#FFBB7E"/>
<path d="M107.409 66.4063C107.409 66.4063 104.79 65.9363 105.134 65.4218C105.477 64.9073 106.163 65.4218 106.848 65.4218C107.534 65.4218 108.128 65.1562 108.26 65.3735C108.39 65.5946 108.141 66.5326 107.409 66.4063Z" fill="#FFBB7E"/>
<path d="M104.446 60.4512C104.446 60.4512 105.476 59.9366 106.161 59.593C106.846 59.2493 108.561 58.5639 108.734 58.9076C108.905 59.2512 108.219 59.7657 107.875 59.9366C107.532 60.1075 106.479 61.4914 105.719 61.7421C104.961 61.9948 103.932 60.9657 104.446 60.4512Z" fill="#FFBB7E"/>
</g>
<defs>
<clipPath id="clip0">
<rect width="159" height="153.957" fill="white"/>
</clipPath>
</defs>
</svg>
